{
.formatVersion = 3;
axes = (
{
name = Weight;
tag = wght;
}
);
classes = (
{
code = "parenleft parenright hyphen at A O bracketleft backslash bracketright i j o braceleft braceright guillemotleft guillemotright Scedilla scedilla Tcedilla tcedilla gravecomb acutecomb circumflexcomb tildecomb macroncomb brevecomb dotaccentcomb dieresiscomb hookabovecomb ringcomb hungarumlautcomb caroncomb dblgravecomb breveinvertedcomb horncomb commaaccentcomb cedillacomb ogonekcomb endash emdash bullet guilsinglleft guilsinglright zero.numr one.numr two.numr three.numr four.numr five.numr six.numr seven.numr eight.numr nine.numr periodcentered.loclCAT acutecomb_dotaccentcomb circumflexcomb_acutecomb circumflexcomb_gravecomb circumflexcomb_hookabovecomb circumflexcomb_tildecomb tildecomb_acutecomb tildecomb_dieresiscomb tildecomb_macroncomb macroncomb_acutecomb macroncomb_dieresiscomb macroncomb_gravecomb brevecomb_acutecomb brevecomb_gravecomb brevecomb_hookabovecomb brevecomb_tildecomb dotaccentcomb_macroncomb dieresiscomb_acutecomb dieresiscomb_macroncomb";
name = aalt;
},
{

glyphs = (
{
glyphname = .notdef;
layers = (
{
layerId = "32C70213-2585-4D1B-95B0-B141A53AEEAA";
shapes = (
{
closed = 1;
nodes = (
(509,0,ls),
(532,0,o),
(544,12,o),
(544,35,cs),
(544,665,ls),
(544,688,o),
(532,700,o),
(509,700,cs),
(75,700,ls),
(52,700,o),
(40,688,o),
(40,665,cs),
(40,35,ls),
(40,12,o),
(52,0,o),
(75,0,cs)
);
},
{
closed = 1;
nodes = (
(75,30,ls),
(72,30,o),
(70,32,o),
(70,35,cs),
(70,633,ls),
(70,638,o),
(73,639,o),
(76,635,cs),
(491,36,l),
(494,33,o),
(492,30,o),
(488,30,cs)
);
},
{
closed = 1;
nodes = (
(92,664,l),
(89,667,o),
(91,670,o),
(95,670,cs),
(509,670,ls),
(512,670,o),
(514,668,o),
(514,665,cs),
(514,67,ls),
(514,62,o),
(511,61,o),
(508,65,cs)
);
}
);
width = 584;
},
{
layerId = "CCC3D61B-F98C-4821-B26B-81827A7D0F36";
shapes = (
{
closed = 1;
nodes = (
(509,0,ls),
(532,0,o),
(544,12,o),
(544,35,cs),
(544,665,ls),
(544,688,o),
(532,700,o),
(509,700,cs),
(75,700,ls),
(52,700,o),
(40,688,o),
(40,665,cs),
(40,35,ls),
(40,12,o),
(52,0,o),
(75,0,cs)
);
},
{
closed = 1;
nodes = (
(75,30,ls),
(72,30,o),
(70,32,o),
(70,35,cs),
(70,633,ls),
(70,638,o),
(73,639,o),
(76,635,cs),
(491,36,l),
(494,33,o),
(492,30,o),
(488,30,cs)
);
},
{
closed = 1;
nodes = (
(92,664,l),
(89,667,o),
(91,670,o),
(95,670,cs),
(509,670,ls),
(512,670,o),
(514,668,o),
(514,665,cs),
(514,67,ls),
(514,62,o),
(511,61,o),
(508,65,cs)
);
}
);
width = 584;
},
{
layerId = "A90C822B-E05B-4C1D-A0F8-AEE47565E770";
shapes = (
{
closed = 1;
nodes = (
(509,0,ls),
(532,0,o),
(544,12,o),
(544,35,cs),
(544,665,ls),
(544,688,o),
(532,700,o),
(509,700,cs),
(75,700,ls),
(52,700,o),
(40,688,o),
(40,665,cs),
(40,35,ls),
(40,12,o),
(52,0,o),
(75,0,cs)
);
},
{
closed = 1;
nodes = (
(67,22,ls),
(64,22,o),
(62,24,o),
(62,27,cs),
(62,650,ls),
(62,655,o),
(65,656,o),
(68,652,cs),
(502,28,l),
(505,25,o),
(503,22,o),
(499,22,cs)
);
},
{
closed = 1;
nodes = (
(81,672,l),
(78,675,o),
(80,678,o),
(84,678,cs),
(517,678,ls),
(520,678,o),
(522,676,o),
(522,673,cs),
(522,49,ls),
(522,44,o),
(519,43,o),
(516,47,cs)
);
}
);
width = 584;
}
);
},
{
glyphname = exclam;
layers = (
{
layerId = "32C70213-2585-4D1B-95B0-B141A53AEEAA";
shapes = (
{
closed = 1;
nodes = (
(247,266,l),
(256,325,o),
(267,387,o),
(275,451,cs),
(283,514,o),
(289,576,o),
(289,635,cs),
(289,720,l),
(75,720,l),
(75,635,ls),
(75,575,o),
(80,514,o),
(89,451,cs),
(98,388,o),
(108,326,o),
(117,266,c)
);
},
{
closed = 1;
nodes = (
(243,-11,o),
(282,29,o),
(282,89,cs),
(282,153,o),
(247,189,o),
(183,189,cs),
(123,189,o),
(84,149,o),
(84,89,cs),
(84,25,o),
(119,-11,o),
(183,-11,cs)
);
}
);
width = 364;
},
{
layerId = "CCC3D61B-F98C-4821-B26B-81827A7D0F36";
shapes = (
{
closed = 1;
nodes = (
(147,241,l),
(155,300,o),
(161,365,o),
(165,433,cs),
(169,500,o),
(171,569,o),
(171,630,cs),
(171,700,l),
(63,700,l),
(63,630,ls),
(63,571,o),
(65,508,o),
(70,439,cs),
(74,370,o),
(80,304,o),
(87,241,c)
);
},
{
closed = 1;
nodes = (
(155,-11,o),
(183,20,o),
(183,64,cs),
(183,112,o),
(158,139,o),
(114,139,cs),
(73,139,o),
(45,108,o),
(45,64,cs),
(45,16,o),
(70,-11,o),
(114,-11,cs)
);
}
);
width = 236;
},
{
layerId = "A90C822B-E05B-4C1D-A0F8-AEE47565E770";
shapes = (
{
closed = 1;
nodes = (
(140,241,l),
(141,273,o),
(143,305,o),
(144,337,c),
(144,369,o),
(144,403,o),
(144,436,cs),
(143,700,l),
(121,700,l),
(121,436,l),
(120,402,o),
(120,369,o),
(121,337,cs),
(122,305,o),
(123,273,o),
(124,241,c)
);
},
{
closed = 1;
nodes = (
(149,-8,o),
(160,8,o),
(160,28,cs),
(160,51,o),
(150,64,o),
(129,64,cs),
(110,64,o),
(98,49,o),
(98,28,cs),
(98,5,o),
(109,-8,o),
(129,-8,cs)
);
}
);
width = 254;
}
);
unicode = 33;
},
{
glyphname = quotedbl;
layers = (
{
layerId = "32C70213-2585-4D1B-95B0-B141A53AEEAA";
shapes = (
{
closed = 1;
nodes = (
(420,432,l),
(506,700,l),
(308,700,l),
(290,432,l)
);
},
{
closed = 1;
nodes = (
(180,432,l),
(266,700,l),
(68,700,l),
(50,432,l)
);
}
);
width = 526;
},
{
layerId = "CCC3D61B-F98C-4821-B26B-81827A7D0F36";
shapes = (
{
closed = 1;
nodes = (
(305,442,l),
(385,700,l),
(269,700,l),
(245,442,l)
);
},
{
closed = 1;
nodes = (
(97,442,l),
(178,700,l),
(60,700,l),
(37,442,l)
);
}
);
width = 412;
},
{
layerId = "A90C822B-E05B-4C1D-A0F8-AEE47565E770";
shapes = (
{
closed = 1;
nodes = (
(190,442,l),
(248,700,l),
(221,700,l),
(173,442,l)
);
},
{
closed = 1;
nodes = (
(97,442,l),
(155,700,l),
(128,700,l),
(80,442,l)
);
}
);
width = 328;
}
);
unicode = 34;
},
{
glyphname = numbersign;
layers = (
{
layerId = "32C70213-2585-4D1B-95B0-B141A53AEEAA";
shapes = (
{
closed = 1;
nodes = (
(548,0,l),
(668,700,l),
(489,700,l),
(369,0,l)
);
},
{
closed = 1;
nodes = (
(679,133,l),
(679,296,l),
(60,296,l),
(60,133,l)
);
},
{
closed = 1;
nodes = (
(289,0,l),
(409,700,l),
(230,700,l),
(110,0,l)
);
},
{
closed = 1;
nodes = (
(716,413,l),
(716,576,l),
(98,576,l),
(98,413,l)
);
}
);
width = 776;
},
{
layerId = "CCC3D61B-F98C-4821-B26B-81827A7D0F36";
shapes = (
{
closed = 1;
nodes = (
(457,0,l),
(577,700,l),
(487,700,l),
(367,0,l)
);
},
{
closed = 1;
nodes = (
(610,173,l),
(610,256,l),
(31,256,l),
(31,173,l)
);
},
{
closed = 1;
nodes = (
(191,0,l),
(311,700,l),
(221,700,l),
(101,0,l)
);
},
{
closed = 1;
nodes = (
(647,453,l),
(647,536,l),
(69,536,l),
(69,453,l)
);
}
);
width = 678;
},
{
layerId = "A90C822B-E05B-4C1D-A0F8-AEE47565E770";
shapes = (
{
closed = 1;
nodes = (
(433,0,l),
(553,700,l),
(531,700,l),
(411,0,l)
);
},
{
closed = 1;
nodes = (
(609,216,l),
(609,238,l),
(41,238,l),
(41,216,l)
);
},
{
closed = 1;
nodes = (
(154,0,l),
(274,700,l),
(252,700,l),
(132,0,l)
);
},
{
closed = 1;
nodes = (
(646,475,l),
(646,497,l),
(79,497,l),
(79,475,l)
);
}
);
width = 687;
}
);
unicode = 35;
},
{
glyphname = dollar;
layers = (
{
layerId = "32C70213-2585-4D1B-95B0-B141A53AEEAA";
shapes = (
{
closed = 1;
nodes = (
(405,-10,o),
(477,10,o),
(529,50,cs),
(580,89,o),
(612,148,o),
(612,224,cs),
(612,296,o),
(585,347,o),
(541,383,cs),
(496,419,o),
(432,442,o),
(359,455,cs),
(343,458,o),
(317,462,o),
(295,470,cs),
(273,478,o),
(254,489,o),
(254,506,cs),
(254,518,o),
(261,528,o),
(274,533,cs),
(286,538,o),
(304,541,o),
(327,541,cs),
(366,541,o),
(404,536,o),
(441,525,cs),
(477,514,o),
(513,499,o),
(545,476,c),
(613,625,l),
(569,660,o),
(524,683,o),
(476,699,cs),
(427,714,o),
(375,720,o),
(316,720,cs),
(244,720,o),
(174,698,o),
(122,658,cs),
(69,618,o),
(35,561,o),
(35,493,cs),
(35,433,o),
(54,385,o),
(94,348,cs),
(134,311,o),
(194,285,o),
(274,266,c),
(294,262,o),
(324,256,o),
(349,248,cs),
(374,239,o),
(395,225,o),
(395,204,cs),
(395,191,o),
(389,180,o),
(378,175,cs),
(366,170,o),
(350,167,o),
(330,167,cs),
(294,167,o),
(256,173,o),
(217,189,c),
(177,204,o),
(137,227,o),
(97,259,c),
(12,96,l),
(84,28,o),
(180,-10,o),
(325,-10,cs)
);
},
{
closed = 1;
nodes = (
(372,-91,l),
(352,350,l),
(284,383,l),
(264,-91,l)
);
},
{
closed = 1;
nodes = (
(386,792,l),
(278,792,l),
(298,381,l),
(366,348,l)
);
}
);
width = 642;
},
{
layerId = "CCC3D61B-F98C-4821-B26B-81827A7D0F36";
shapes = (
{
closed = 1;
nodes = (
(393,-10,o),
(456,12,o),
(500,50,cs),
(544,88,o),
(569,141,o),
(569,208,cs),
(569,256,o),
(548,298,o),
(508,331,cs),
(468,364,o),
(410,389,o),
(337,405,cs),
(285,416,o),
(249,430,o),
(226,448,cs),
(202,466,o),
(193,489,o),
(193,517,cs),
(193,545,o),
(206,570,o),
(229,587,cs),
(252,603,o),
(284,613,o),
(323,613,cs),
(358,613,o),
(388,604,o),
(416,587,cs),
(443,570,o),
(467,544,o),
(487,512,c),
(563,587,l),
(539,627,o),
(507,658,o),
(467,679,cs),
(427,699,o),
(381,710,o),
(326,710,cs),
(258,710,o),
(198,690,o),
(155,655,cs),
(111,619,o),
(85,570,o),
(85,514,cs),
(85,457,o),
(102,410,o),
(138,375,cs),
(174,339,o),
(227,316,o),
(299,301,cs),
(355,290,o),
(395,276,o),
(422,256,cs),
(449,236,o),
(461,211,o),
(461,180,cs),
(461,152,o),
(446,129,o),
(422,113,cs),
(397,97,o),
(364,87,o),
(325,87,cs),
(284,87,o),
(250,95,o),
(218,115,cs),
(186,134,o),
(156,164,o),
(124,211,c),
(50,126,l),
(114,34,o),
(198,-10,o),
(314,-10,cs)
);
},
{
closed = 1;
nodes = (
(351,-91,l),
(351,330,l),
(254,363,l),
(254,-91,l)
);
},
{
closed = 1;
nodes = (
(391,782,l),
(294,782,l),
(294,363,l),
(391,330,l)
);
}
);
width = 624;
},
{
layerId = "A90C822B-E05B-4C1D-A0F8-AEE47565E770";
shapes = (
{
closed = 1;
nodes = (
(361,-10,o),
(418,10,o),
(459,42,cs),
(500,74,o),
(526,119,o),
(526,170,cs),
(526,229,o),
(506,265,o),
(469,294,cs),
(432,322,o),
(376,342,o),
(307,366,cs),
(238,390,o),
(188,410,o),
(156,434,cs),
(124,458,o),
(110,486,o),
(110,526,cs),
(110,573,o),
(130,611,o),
(164,638,cs),
(198,665,o),
(244,681,o),
(299,681,cs),
(343,681,o),
(382,669,o),
(415,653,cs),
(448,636,o),
(474,613,o),
(494,590,c),
(509,605,l),
(488,630,o),
(461,656,o),
(427,674,cs),
(393,692,o),
(350,703,o),
(298,703,cs),
(238,703,o),
(185,686,o),
(148,656,cs),
(111,626,o),
(88,581,o),
(88,529,cs),
(88,480,o),
(105,446,o),
(139,419,cs),
(173,392,o),
(225,371,o),
(294,347,cs),
(358,324,o),
(410,305,o),
(447,280,cs),
(483,255,o),
(504,222,o),
(504,173,cs),
(504,128,o),
(480,87,o),
(443,59,cs),
(406,30,o),
(354,12,o),
(298,12,cs),
(250,12,o),
(207,21,o),
(168,37,cs),
(129,53,o),
(96,78,o),
(68,110,c),
(55,92,l),
(110,28,o),
(201,-10,o),
(297,-10,cs)
);
},
{
closed = 1;
nodes = (
(310,-91,l),
(310,354,l),
(288,359,l),
(288,-91,l)
);
},
{
closed = 1;
nodes = (
(310,782,l),
(288,782,l),
(288,363,l),
(310,359,l)
);
}
);
width = 566;
}
);
unicode = 36;
},
{
glyphname = percent;
layers = (
{
layerId = "32C70213-2585-4D1B-95B0-B141A53AEEAA";
shapes = (
{
closed = 1;
nodes = (
(380,0,l),
(848,700,l),
(665,700,l),
(202,0,l)
);
},
{
closed = 1;
nodes = (
(288,329,o),
(336,350,o),
(370,386,cs),
(404,422,o),
(424,472,o),
(424,528,cs),
(424,587,o),
(404,636,o),
(371,672,cs),
(338,707,o),
(289,728,o),
(233,728,cs),
(176,728,o),
(128,707,o),
(94,672,cs),
(60,636,o),
(40,587,o),
(40,528,cs),
(40,472,o),
(60,422,o),
(95,386,cs),
(130,350,o),
(177,329,o),
(233,329,cs)
);
},
{
closed = 1;
nodes = (
(220,452,o),
(210,460,o),
(203,473,cs),
(195,486,o),
(192,505,o),
(192,528,cs),
(192,552,o),
(196,571,o),
(203,584,cs),
(210,597,o),
(221,605,o),
(233,605,cs),
(245,605,o),
(255,597,o),
(262,584,cs),
(269,571,o),
(272,552,o),
(272,528,cs),
(272,505,o),
(269,486,o),
(262,473,cs),
(255,460,o),
(245,452,o),
(233,452,cs)
);
},
{
closed = 1;
nodes = (
(888,-10,o),
(936,11,o),
(970,47,cs),
(1004,83,o),
(1024,133,o),
(1024,189,cs),
(1024,248,o),
(1004,297,o),
(971,333,cs),
(938,368,o),
(889,389,o),
(833,389,cs),
(776,389,o),
(728,368,o),
(694,333,cs),
(660,297,o),
(640,248,o),
(640,189,cs),
(640,133,o),
(660,83,o),
(695,47,cs),
(730,11,o),
(777,-10,o),
(833,-10,cs)
);
},
{
closed = 1;
nodes = (
(820,113,o),
(810,121,o),
(803,134,cs),
(795,147,o),
(792,166,o),
(792,189,cs),
(792,213,o),
(796,232,o),
(803,245,cs),
(810,258,o),
(821,266,o),
(833,266,cs),
(845,266,o),
(855,258,o),
(862,245,cs),
(869,232,o),
(872,213,o),
(872,189,cs),
(872,166,o),
(869,147,o),
(862,134,cs),
(855,121,o),
(845,113,o),
(833,113,cs)
);
}
);
width = 1064;
},
{
layerId = "CCC3D61B-F98C-4821-B26B-81827A7D0F36";
shapes = (
{
closed = 1;
nodes = (
(227,0,l),
(695,700,l),
(592,700,l),
(129,0,l)
);
},
{
closed = 1;
nodes = (
(237,329,o),
(275,350,o),
(303,384,cs),
(331,418,o),
(347,465,o),
(347,518,cs),
(347,574,o),
(332,622,o),
(305,656,cs),
(277,690,o),
(239,709,o),
(194,709,cs),
(149,709,o),
(110,690,o),
(83,656,cs),
(56,622,o),
(40,574,o),
(40,518,cs),
(40,463,o),
(55,417,o),
(83,383,cs),
(110,349,o),
(148,329,o),
(193,329,cs)
);
},
{
closed = 1;
nodes = (
(173,404,o),
(154,415,o),
(142,435,cs),
(130,455,o),
(123,483,o),
(123,518,cs),
(123,553,o),
(130,581,o),
(142,601,cs),
(154,621,o),
(172,633,o),
(193,633,cs),
(216,633,o),
(233,622,o),
(245,602,cs),
(257,582,o),
(263,554,o),
(263,518,cs),
(263,482,o),
(257,454,o),
(245,435,cs),
(233,415,o),
(215,404,o),
(194,404,cs)
);
},
{
closed = 1;
nodes = (
(680,-9,o),
(718,12,o),
(746,46,cs),
(773,80,o),
(789,127,o),
(789,180,cs),
(789,236,o),
(774,284,o),
(747,318,cs),
(719,352,o),
(681,371,o),
(636,371,cs),
(591,371,o),
(552,352,o),
(525,318,cs),
(498,284,o),
(482,236,o),
(482,180,cs),
(482,127,o),
(498,78,o),
(526,45,cs),
(553,12,o),
(592,-9,o),
(636,-9,cs)
);
},
{
closed = 1;
nodes = (
(615,65,o),
(596,77,o),
(584,97,cs),
(572,117,o),
(565,145,o),
(565,180,cs),
(565,216,o),
(572,244,o),
(584,264,cs),
(596,284,o),
(615,295,o),
(636,295,cs),
(657,295,o),
(675,283,o),
(687,263,cs),
(699,243,o),
(706,215,o),
(706,180,cs),
(706,145,o),
(699,117,o),
(687,97,cs),
(675,77,o),
(657,65,o),
(636,65,cs)
);
}
);
width = 839;
},
{
layerId = "A90C822B-E05B-4C1D-A0F8-AEE47565E770";
shapes = (
{
closed = 1;
nodes = (
(199,0,l),
(664,700,l),
(637,700,l),
(172,0,l)
);
},
{
closed = 1;
nodes = (
(237,329,o),
(275,350,o),
(303,384,cs),
(331,418,o),
(347,465,o),
(347,518,cs),
(347,574,o),
(331,622,o),
(304,656,cs),
(276,690,o),
(237,709,o),
(193,709,cs),
(148,709,o),
(110,690,o),
(83,656,cs),
(55,622,o),
(40,574,o),
(40,518,cs),
(40,463,o),
(55,417,o),
(83,383,cs),
(110,349,o),
(148,329,o),
(193,329,cs)
);
},
{
closed = 1;
nodes = (
(156,350,o),
(122,367,o),
(99,397,cs),
(76,427,o),
(62,469,o),
(62,518,cs),
(62,569,o),
(76,611,o),
(99,641,cs),
(122,671,o),
(156,688,o),
(193,688,cs),
(232,688,o),
(264,671,o),
(288,641,cs),
(311,611,o),
(325,569,o),
(325,518,cs),
(325,469,o),
(311,427,o),
(287,397,cs),
(263,367,o),
(230,350,o),
(193,350,cs)
);
},
{
closed = 1;
nodes = (
(681,-9,o),
(719,12,o),
(747,46,cs),
(775,80,o),
(791,127,o),
(791,180,cs),
(791,236,o),
(775,284,o),
(748,318,cs),
(720,352,o),
(681,371,o),
(637,371,cs),
(592,371,o),
(554,352,o),
(527,318,cs),
(499,284,o),
(484,236,o),
(484,180,cs),
(484,125,o),
(499,79,o),
(527,45,cs),
(554,11,o),
(592,-9,o),
(637,-9,cs)
);
},
{
closed = 1;
nodes = (
(600,12,o),
(566,29,o),
(543,59,cs),
(520,89,o),
(506,131,o),
(506,180,cs),
(506,231,o),
(520,273,o),
(543,303,cs),
(566,333,o),
(600,350,o),
(637,350,cs),
(676,350,o),
(708,333,o),
(732,303,cs),
(755,273,o),
(769,231,o),
(769,180,cs),
(769,131,o),
(755,89,o),
(731,59,cs),
(707,29,o),
(674,12,o),
(637,12,cs)
);
}
);
width = 831;
}
);
unicode = 37;
},
{
glyphname = ampersand;
layers = (
{
layerId = "32C70213-2585-4D1B-95B0-B141A53AEEAA";
shapes = (
{
closed = 1;
nodes = (
(583,0,l),
(530,54,l),
(436,138,l),
(309,267,ls),
(176,403,o),
(163,468,o),
(163,516,cs),
(163,637,o),
(245,720,o),
(399,720,cs),
(539,720,o),
(618,651,o),
(618,536,cs),
(618,429,o),
(549,375,o),
(386,336,cs),
(319,320,ls),
(263,307,o),
(240,273,o),
(240,231,cs),
(240,176,o),
(281,145,o),
(346,145,cs),
(453,145,o),
(533,231,o),
(541,359,c),
(733,359,l),
(701,140,o),
(548,-10,o),
(341,-10,cs),
(174,-10,o),
(50,88,o),
(50,239,cs),
(50,344,o),
(110,420,o),
(219,436,cs),
(302,448,ls),
(397,462,o),
(440,483,o),
(440,518,cs),
(440,538,o),
(425,550,o),
(402,550,cs),
(376,550,o),
(361,534,o),
(361,513,cs),
(361,457,o),
(474,346,o),
(533,290,cs),
(560,264,l),
(659,178,l),
(829,0,l)
);
}
);
width = 804;
},
{
layerId = "CCC3D61B-F98C-4821-B26B-81827A7D0F36";
shapes = (
{
closed = 1;
nodes = (
(558,0,l),
(508,53,l),
(460,97,l),
(277,291,ls),
(161,413,o),
(143,459,o),
(143,516,cs),
(143,633,o),
(218,710,o),
(314,710,cs),
(423,710,o),
(479,653,o),
(479,543,cs),
(479,465,o),
(438,411,o),
(355,387,cs),
(253,357,ls),
(188,338,o),
(145,300,o),
(145,227,cs),
(145,131,o),
(220,69,o),
(328,69,cs),
(470,69,o),
(566,177,o),
(583,342,c),
(678,342,l),
(650,133,o),
(522,-10,o),
(324,-10,cs),
(165,-10,o),
(50,82,o),
(50,227,cs),
(50,334,o),
(112,393,o),
(202,417,cs),
(310,446,ls),
(365,461,o),
(392,493,o),
(392,549,cs),
(392,600,o),
(369,625,o),
(329,625,cs),
(276,625,o),
(241,581,o),
(241,529,cs),
(241,460,o),
(301,398,o),
(374,320,cs),
(525,158,l),
(571,116,l),
(680,0,l)
);
}
);
width = 719;
},
{
layerId = "A90C822B-E05B-4C1D-A0F8-AEE47565E770";
shapes = (
{
closed = 1;
nodes = (
(540,0,l),
(491,53,l),
(478,66,l),
(253,309,ls),
(150,420,o),
(128,452,o),
(128,519,cs),
(128,630,o),
(187,703,o),
(272,703,cs),
(352,703,o),
(397,657,o),
(397,576,cs),
(397,487,o),
(334,465,o),
(271,426,cs),
(203,384,ls),
(138,344,o),
(73,320,o),
(73,221,cs),
(73,98,o),
(175,12,o),
(315,12,cs),
(483,12,o),
(590,136,o),
(614,329,c),
(636,329,l),
(612,128,o),
(502,-10,o),
(311,-10,cs),
(159,-10,o),
(50,77,o),
(50,216,cs),
(50,327,o),
(120,360,o),
(189,403,cs),
(256,445,ls),
(317,483,o),
(378,499,o),
(378,579,cs),
(378,655,o),
(323,681,o),
(275,681,cs),
(198,681,o),
(151,616,o),
(151,522,cs),
(151,462,o),
(170,436,o),
(255,343,cs),
(498,78,l),
(505,70,l),
(569,0,l)
);
}
);
width = 656;
}
);
unicode = 38;
},
{
glyphname = quotesingle;
layers = (
{
layerId = "32C70213-2585-4D1B-95B0-B141A53AEEAA";
shapes = (
{
closed = 1;
nodes = (
(180,432,l),
(266,700,l),
(68,700,l),
(50,432,l)
);
}
);
width = 286;
},
{
layerId = "CCC3D61B-F98C-4821-B26B-81827A7D0F36";
shapes = (
{
closed = 1;
nodes = (
(97,442,l),
(178,700,l),
(60,700,l),
(37,442,l)
);
}
);
width = 205;
},
{
layerId = "A90C822B-E05B-4C1D-A0F8-AEE47565E770";
shapes = (
{
closed = 1;
nodes = (
(74,442,l),
(121,700,l),
(94,700,l),
(56,442,l)
);
}
);
width = 187;
}
);
unicode = 39;
},
{
glyphname = parenleft;
layers = (
{
layerId = "32C70213-2585-4D1B-95B0-B141A53AEEAA";
shapes = (
{
closed = 1;
nodes = (
(407,-84,l),
(351,-45,o),
(310,6,o),
(283,65,cs),
(256,124,o),
(244,190,o),
(244,258,cs),
(244,326,o),
(256,392,o),
(283,451,cs),
(310,510,o),
(351,561,o),
(407,600,c),
(291,702,l),
(127,601,o),
(40,445,o),
(40,258,cs),
(40,70,o),
(126,-85,o),
(290,-186,c)
);
}
);
width = 407;
},
{
layerId = "CCC3D61B-F98C-4821-B26B-81827A7D0F36";
shapes = (
{
closed = 1;
nodes = (
(346,-124,l),
(278,-76,o),
(226,-19,o),
(191,46,cs),
(155,110,o),
(137,182,o),
(137,258,cs),
(137,334,o),
(155,406,o),
(191,471,cs),
(226,535,o),
(278,592,o),
(346,640,c),
(291,702,l),
(127,601,o),
(40,445,o),
(40,258,cs),
(40,70,o),
(126,-85,o),
(290,-186,c)
);
}
);
width = 366;
},
{
layerId = "A90C822B-E05B-4C1D-A0F8-AEE47565E770";
shapes = (
{
closed = 1;
nodes = (
(325,-169,l),
(241,-113,o),
(181,-50,o),
(141,22,cs),
(101,93,o),
(83,171,o),
(83,258,cs),
(83,346,o),
(103,426,o),
(144,498,cs),
(184,570,o),
(245,633,o),
(325,685,c),
(311,702,l),
(147,601,o),
(60,445,o),
(60,258,cs),
(60,70,o),
(146,-85,o),
(310,-186,c)
);
}
);
width = 335;
}
);
unicode = 40;
},
{
glyphname = parenright;
layers = (
{
layerId = "32C70213-2585-4D1B-95B0-B141A53AEEAA";
shapes = (
{
closed = 1;
nodes = (
(116,-186,l),
(280,-85,o),
(367,71,o),
(367,258,cs),
(367,446,o),
(281,601,o),
(117,702,c),
(0,600,l),
(56,561,o),
(97,510,o),
(124,451,cs),
(151,392,o),
(163,326,o),
(163,258,cs),
(163,190,o),
(151,124,o),
(124,65,cs),
(97,6,o),
(56,-45,o),
(0,-84,c)
);
}
);
width = 407;
},
{
layerId = "CCC3D61B-F98C-4821-B26B-81827A7D0F36";
shapes = (
{
closed = 1;
nodes = (
(73,-186,l),
(237,-85,o),
(324,71,o),
(324,258,cs),
(324,446,o),
(238,601,o),
(74,702,c),
(18,640,l),
(86,592,o),
(138,535,o),
(174,471,cs),
(209,406,o),
(227,334,o),
(227,258,cs),
(227,182,o),
(209,110,o),
(174,46,cs),
(138,-19,o),
(86,-76,o),
(18,-124,c)
);
}
);
width = 363;
},
{
layerId = "A90C822B-E05B-4C1D-A0F8-AEE47565E770";
shapes = (
{
closed = 1;
nodes = (
(24,-186,l),
(188,-85,o),
(275,71,o),
(275,258,cs),
(275,446,o),
(189,601,o),
(25,702,c),
(10,685,l),
(94,629,o),
(154,566,o),
(194,495,cs),
(234,423,o),
(252,345,o),
(252,258,cs),
(252,170,o),
(232,90,o),
(192,18,cs),
(151,-54,o),
(90,-117,o),
(10,-169,c)
);
}
);
width = 335;
}
);
unicode = 41;
},
{
glyphname = asterisk;
layers = (
{
layerId = "32C70213-2585-4D1B-95B0-B141A53AEEAA";
shapes = (
{
closed = 1;
nodes = (
(315,336,l),
(294,487,l),
(275,487,l),
(404,386,l),
(470,498,l),
(315,551,l),
(315,541,l),
(472,607,l),
(406,721,l),
(271,610,l),
(293,605,l),
(312,762,l),
(168,762,l),
(190,604,l),
(220,608,l),
(74,721,l),
(8,607,l),
(160,541,l),
(160,552,l),
(8,498,l),
(74,386,l),
(216,482,l),
(190,487,l),
(171,336,l)
);
}
);
width = 480;
},
{
layerId = "CCC3D61B-F98C-4821-B26B-81827A7D0F36";
shapes = (
{
closed = 1;
nodes = (
(234,376,l),
(226,491,l),
(215,493,l),
(319,423,l),
(356,487,l),
(244,542,l),
(244,531,l),
(357,586,l),
(320,651,l),
(217,581,l),
(225,573,l),
(234,700,l),
(159,700,l),
(167,585,l),
(172,583,l),
(68,653,l),
(30,589,l),
(142,535,l),
(144,540,l),
(32,486,l),
(69,421,l),
(172,491,l),
(167,491,l),
(159,376,l)
);
}
);
width = 387;
},
{
layerId = "A90C822B-E05B-4C1D-A0F8-AEE47565E770";
shapes = (
{
closed = 1;
nodes = (
(211,376,l),
(207,534,l),
(199,532,l),
(334,455,l),
(347,475,l),
(208,545,l),
(208,534,l),
(347,603,l),
(334,625,l),
(193,543,l),
(207,539,l),
(211,700,l),
(187,700,l),
(191,528,l),
(203,544,l),
(66,625,l),
(53,603,l),
(196,531,l),
(195,545,l),
(53,475,l),
(66,455,l),
(201,531,l),
(191,536,l),
(187,376,l)
);
}
);
width = 402;
}
);
unicode = 42;
},
{
glyphname = plus;
layers = (
{
layerId = "32C70213-2585-4D1B-95B0-B141A53AEEAA";
shapes = (
{
closed = 1;
nodes = (
(385,37,l),
(385,530,l),
(216,530,l),
(216,37,l)
);
},
{
closed = 1;
nodes = (
(551,206,l),
(551,366,l),
(50,366,l),
(50,206,l)
);
}
);
width = 601;
},
{
layerId = "CCC3D61B-F98C-4821-B26B-81827A7D0F36";
shapes = (
{
closed = 1;
nodes = (
(347,42,l),
(347,525,l),
(242,525,l),
(242,42,l)
);
},
{
closed = 1;
nodes = (
(546,235,l),
(546,325,l),
(45,325,l),
(45,235,l)
);
}
);
width = 591;
},
{
layerId = "A90C822B-E05B-4C1D-A0F8-AEE47565E770";
shapes = (
{
closed = 1;
nodes = (
(306,42,l),
(306,525,l),
(284,525,l),
(284,42,l)
);
},
{
closed = 1;
nodes = (
(530,277,l),
(530,299,l),
(60,299,l),
(60,277,l)
);
}
);
width = 590;
}
);
unicode = 43;
},
{
glyphname = comma;
layers = (
{
layerId = "32C70213-2585-4D1B-95B0-B141A53AEEAA";
shapes = (
{
closed = 1;
nodes = (
(82,-215,l),
(134,-202,o),
(179,-170,o),
(211,-130,cs),
(243,-90,o),
(262,-43,o),
(262,5,cs),
(262,45,o),
(251,78,o),
(230,103,cs),
(208,128,o),
(181,140,o),
(149,140,cs),
(93,140,o),
(53,110,o),
(53,62,cs),
(53,30,o),
(65,6,o),
(98,-15,cs),
(123,-30,o),
(126,-44,o),
(126,-56,cs),
(126,-83,o),
(90,-128,o),
(30,-151,c)
);
}
);
width = 302;
},
{
layerId = "CCC3D61B-F98C-4821-B26B-81827A7D0F36";
shapes = (
{
closed = 1;
nodes = (
(88,-179,l),
(127,-164,o),
(159,-138,o),
(183,-106,cs),
(207,-74,o),
(221,-36,o),
(221,4,cs),
(221,38,o),
(213,65,o),
(196,86,cs),
(179,107,o),
(157,117,o),
(132,117,cs),
(96,117,o),
(71,96,o),
(71,64,cs),
(71,44,o),
(76,29,o),
(103,4,c),
(124,-19,o),
(129,-29,o),
(129,-42,cs),
(129,-67,o),
(97,-106,o),
(50,-133,c)
);
}
);
width = 267;
},
{
layerId = "A90C822B-E05B-4C1D-A0F8-AEE47565E770";
shapes = (
{
closed = 1;
nodes = (
(86,-122,l),
(110,-101,o),
(126,-82,o),
(136,-65,cs),
(146,-48,o),
(150,-30,o),
(150,-7,cs),
(150,13,o),
(146,28,o),
(138,39,cs),
(130,49,o),
(119,54,o),
(104,54,cs),
(84,54,o),
(74,42,o),
(74,26,cs),
(74,11,o),
(82,1,o),
(93,-3,cs),
(112,-10,o),
(122,-15,o),
(122,-36,cs),
(122,-53,o),
(102,-82,o),
(77,-110,c)
);
}
);
width = 216;
}
);
rightKerningGroup = comma;
unicode = 44;
},
{
glyphname = hyphen;
layers = (
{
layerId = "32C70213-2585-4D1B-95B0-B141A53AEEAA";
shapes = (
{
closed = 1;
nodes = (
(438,198,l),
(438,378,l),
(50,378,l),
(50,198,l)
);
}
);
width = 488;
},
{
layerId = "CCC3D61B-F98C-4821-B26B-81827A7D0F36";
shapes = (
{
closed = 1;
nodes = (
(341,235,l),
(341,337,l),
(53,337,l),
(53,235,l)
);
}
);
width = 394;
},
{
layerId = "A90C822B-E05B-4C1D-A0F8-AEE47565E770";
shapes = (
{
closed = 1;
nodes = (
(334,263,l),
(334,285,l),
(60,285,l),
(60,263,l)
);
}
);
width = 394;
}
);
leftKerningGroup = hyphen2;
rightKerningGroup = hyphen;
unicode = 45;
},
{
glyphname = period;
layers = (
{
layerId = "32C70213-2585-4D1B-95B0-B141A53AEEAA";
shapes = (
{
closed = 1;
nodes = (
(199,-11,o),
(238,29,o),
(238,89,cs),
(238,153,o),
(203,189,o),
(139,189,cs),
(79,189,o),
(40,149,o),
(40,89,cs),
(40,25,o),
(75,-11,o),
(139,-11,cs)
);
}
);
width = 278;
},
{
layerId = "CCC3D61B-F98C-4821-B26B-81827A7D0F36";
shapes = (
{
closed = 1;
nodes = (
(155,-11,o),
(183,20,o),
(183,64,cs),
(183,112,o),
(158,139,o),
(114,139,cs),
(73,139,o),
(45,108,o),
(45,64,cs),
(45,16,o),
(70,-11,o),
(114,-11,cs)
);
}
);
width = 228;
},
{
layerId = "A90C822B-E05B-4C1D-A0F8-AEE47565E770";
shapes = (
{
closed = 1;
nodes = (
(133,-5,o),
(144,9,o),
(144,26,cs),
(144,46,o),
(133,57,o),
(114,57,cs),
(95,57,o),
(84,45,o),
(84,26,cs),
(84,6,o),
(95,-5,o),
(114,-5,cs)
);
}
);
width = 228;
}
);
rightKerningGroup = comma;
unicode = 46;
},
{
glyphname = slash;
layers = (
{
layerId = "32C70213-2585-4D1B-95B0-B141A53AEEAA";
shapes = (
{
closed = 1;
nodes = (
(206,-149,l),
(623,700,l),
(419,700,l),
(0,-149,l)
);
}
);
width = 623;
},
{
layerId = "CCC3D61B-F98C-4821-B26B-81827A7D0F36";
shapes = (
{
closed = 1;
nodes = (
(118,-132,l),
(529,700,l),
(430,700,l),
(18,-132,l)
);
}
);
width = 557;
},
{
layerId = "A90C822B-E05B-4C1D-A0F8-AEE47565E770";
shapes = (
{
closed = 1;
nodes = (
(99,-95,l),
(493,700,l),
(469,700,l),
(75,-95,l)
);
}
);
width = 566;
}
);
unicode = 47;
},
{
glyphname = zero;
layers = (
{
layerId = "32C70213-2585-4D1B-95B0-B141A53AEEAA";
shapes = (
{
closed = 1;
nodes = (
(467,-10,o),
(549,23,o),
(605,84,cs),
(661,144,o),
(690,234,o),
(690,350,cs),
(690,466,o),
(661,556,o),
(605,617,cs),
(549,677,o),
(467,710,o),
(362,710,cs),
(257,710,o),
(175,677,o),
(120,617,cs),
(64,556,o),
(35,466,o),
(35,350,cs),
(35,234,o),
(64,144,o),
(120,84,cs),
(175,23,o),
(257,-10,o),
(362,-10,cs)
);
},
{
closed = 1;
nodes = (
(282,168,o),
(239,233,o),
(239,350,cs),
(239,475,o),
(282,542,o),
(362,542,cs),
(442,542,o),
(485,475,o),
(485,350,cs),
(485,233,o),
(442,168,o),
(362,168,cs)
);
}
);
width = 725;
},
{
layerId = "CCC3D61B-F98C-4821-B26B-81827A7D0F36";
shapes = (
{
closed = 1;
nodes = (
(383,-10,o),
(448,24,o),
(492,87,cs),
(536,150,o),
(561,239,o),
(561,350,cs),
(561,461,o),
(536,550,o),
(492,613,cs),
(448,676,o),
(383,710,o),
(303,710,cs),
(223,710,o),
(159,676,o),
(115,613,cs),
(70,550,o),
(46,461,o),
(46,350,cs),
(46,239,o),
(70,150,o),
(115,87,cs),
(159,24,o),
(223,-10,o),
(303,-10,cs)
);
},
{
closed = 1;
nodes = (
(206,88,o),
(150,182,o),
(150,350,cs),
(150,518,o),
(206,612,o),
(303,612,cs),
(400,612,o),
(456,518,o),
(456,350,cs),
(456,182,o),
(400,88,o),
(303,88,cs)
);
}
);
width = 607;
},
{
layerId = "A90C822B-E05B-4C1D-A0F8-AEE47565E770";
shapes = (
{
closed = 1;
nodes = (
(394,-10,o),
(458,21,o),
(502,82,cs),
(546,142,o),
(568,233,o),
(568,350,cs),
(568,467,o),
(546,558,o),
(502,619,cs),
(458,679,o),
(394,710,o),
(310,710,cs),
(226,710,o),
(162,679,o),
(118,619,cs),
(74,558,o),
(52,467,o),
(52,350,cs),
(52,233,o),
(74,142,o),
(118,82,cs),
(162,21,o),
(226,-10,o),
(310,-10,cs)
);
},
{
closed = 1;
nodes = (
(158,12,o),
(75,131,o),
(75,350,cs),
(75,569,o),
(158,688,o),
(310,688,cs),
(463,688,o),
(545,569,o),
(545,350,cs),
(545,131,o),
(463,12,o),
(310,12,cs)
);
}
);
width = 620;
}
);
unicode = 48;
},
{
glyphname = one;
layers = (
{
layerId = "32C70213-2585-4D1B-95B0-B141A53AEEAA";
shapes = (
{
closed = 1;
nodes = (
(400,0,l),
(400,710,l),
(248,710,l),
(40,615,l),
(69,421,l),
(228,489,l),
(191,617,l),
(191,0,l)
);
}
);
width = 480;
},
{
layerId = "CCC3D61B-F98C-4821-B26B-81827A7D0F36";
shapes = (
{
closed = 1;
nodes = (
(284,0,l),
(284,710,l),
(232,710,l),
(45,610,l),
(74,516,l),
(212,589,l),
(175,617,l),
(175,0,l)
);
}
);
width = 374;
},
{
layerId = "A90C822B-E05B-4C1D-A0F8-AEE47565E770";
shapes = (
{
closed = 1;
nodes = (
(217,8,l),
(217,710,l),
(207,710,l),
(55,605,l),
(61,585,l),
(200,678,l),
(195,678,l),
(195,8,l)
);
}
);
width = 327;
}
);
unicode = 49;
},
{
glyphname = two;
layers = (
{
layerId = "32C70213-2585-4D1B-95B0-B141A53AEEAA";
shapes = (
{
closed = 1;
nodes = (
(556,0,l),
(556,184,l),
(202,184,l),
(222,74,l),
(381,247,ls),
(433,304,o),
(468,353,o),
(489,396,cs),
(509,439,o),
(518,476,o),
(518,509,cs),
(518,572,o),
(492,624,o),
(449,661,cs),
(406,698,o),
(348,720,o),
(284,720,cs),
(224,720,o),
(167,698,o),
(119,662,cs),
(71,625,o),
(32,575,o),
(8,516,c),
(165,436,l),
(184,468,o),
(198,489,o),
(214,502,cs),
(230,514,o),
(245,520,o),
(264,520,cs),
(285,520,o),
(300,515,o),
(309,507,cs),
(318,499,o),
(322,489,o),
(322,478,cs),
(322,454,o),
(302,421,o),
(277,387,cs),
(252,353,o),
(221,317,o),
(197,292,cs),
(0,82,l),
(34,0,l)
);
}
);
width = 548;
},
{
layerId = "CCC3D61B-F98C-4821-B26B-81827A7D0F36";
shapes = (
{
closed = 1;
nodes = (
(516,0,l),
(516,104,l),
(172,104,l),
(192,74,l),
(351,247,ls),
(402,302,o),
(437,350,o),
(461,394,cs),
(484,438,o),
(494,478,o),
(494,517,cs),
(494,574,o),
(473,623,o),
(437,657,cs),
(401,691,o),
(351,710,o),
(291,710,cs),
(234,710,o),
(181,693,o),
(140,661,cs),
(99,629,o),
(67,584,o),
(51,525,c),
(134,473,l),
(146,514,o),
(169,549,o),
(194,573,cs),
(219,597,o),
(250,610,o),
(278,610,cs),
(310,610,o),
(337,600,o),
(355,584,cs),
(373,567,o),
(383,541,o),
(383,509,cs),
(383,480,o),
(366,445,o),
(345,413,cs),
(324,380,o),
(297,347,o),
(274,323,c),
(60,82,l),
(93,0,l)
);
}
);
width = 548;
},
{
layerId = "A90C822B-E05B-4C1D-A0F8-AEE47565E770";
shapes = (
{
closed = 1;
nodes = (
(506,0,l),
(506,22,l),
(94,22,l),
(94,4,l),
(385,314,ls),
(412,342,o),
(438,376,o),
(459,413,cs),
(480,450,o),
(494,492,o),
(494,536,cs),
(494,587,o),
(471,630,o),
(434,661,cs),
(397,692,o),
(344,710,o),
(285,710,cs),
(233,710,o),
(185,696,o),
(146,666,cs),
(106,636,o),
(76,589,o),
(56,524,c),
(77,514,l),
(97,581,o),
(128,623,o),
(165,651,cs),
(202,678,o),
(243,688,o),
(283,688,cs),
(338,688,o),
(384,672,o),
(418,645,cs),
(452,617,o),
(471,579,o),
(471,535,cs),
(471,491,o),
(454,449,o),
(432,413,cs),
(410,376,o),
(382,346,o),
(362,323,c),
(72,13,l),
(78,0,l)
);
}
);
width = 548;
}
);
unicode = 50;
},
{
glyphname = three;
layers = (
{
layerId = "32C70213-2585-4D1B-95B0-B141A53AEEAA";
shapes = (
{
closed = 1;
nodes = (
(394,-10,o),
(464,17,o),
(515,61,cs),
(566,105,o),
(597,166,o),
(597,237,cs),
(597,301,o),
(568,357,o),
(524,398,cs),
(480,438,o),
(419,463,o),
(355,463,cs),
(327,463,o),
(300,457,o),
(289,452,c),
(339,389,l),
(573,632,l),
(534,710,l),
(82,710,l),
(82,535,l),
(369,525,l),
(304,546,l),
(168,400,l),
(211,287,l),
(227,295,o),
(245,302,o),
(262,307,cs),
(279,311,o),
(295,314,o),
(307,314,cs),
(338,314,o),
(361,307,o),
(377,295,cs),
(393,282,o),
(402,263,o),
(402,239,cs),
(402,216,o),
(392,198,o),
(377,185,cs),
(361,172,o),
(341,165,o),
(318,165,cs),
(291,165,o),
(266,171,o),
(242,185,cs),
(218,199,o),
(196,221,o),
(176,253,c),
(25,156,l),
(98,32,o),
(190,-10,o),
(314,-10,cs)
);
}
);
width = 637;
},
{
layerId = "CCC3D61B-F98C-4821-B26B-81827A7D0F36";
shapes = (
{
closed = 1;
nodes = (
(319,-10,o),
(380,16,o),
(424,58,cs),
(467,100,o),
(494,159,o),
(494,227,cs),
(494,287,o),
(471,341,o),
(433,381,cs),
(395,420,o),
(342,443,o),
(283,443,cs),
(267,443,o),
(237,437,o),
(226,432,c),
(251,406,l),
(480,660,l),
(460,700,l),
(59,700,l),
(59,600,l),
(357,600,l),
(336,631,l),
(120,393,l),
(150,314,l),
(174,325,o),
(197,332,o),
(217,337,cs),
(237,341,o),
(255,344,o),
(271,344,cs),
(308,344,o),
(338,333,o),
(359,312,cs),
(379,291,o),
(390,261,o),
(390,221,cs),
(390,181,o),
(375,147,o),
(351,123,cs),
(327,99,o),
(295,85,o),
(259,85,cs),
(231,85,o),
(205,93,o),
(179,110,cs),
(153,127,o),
(128,154,o),
(104,191,c),
(20,138,l),
(84,31,o),
(152,-10,o),
(251,-10,cs)
);
}
);
width = 529;
},
{
layerId = "A90C822B-E05B-4C1D-A0F8-AEE47565E770";
shapes = (
{
closed = 1;
nodes = (
(329,-10,o),
(387,17,o),
(428,59,cs),
(468,101,o),
(493,158,o),
(493,222,cs),
(493,287,o),
(470,343,o),
(433,383,cs),
(396,422,o),
(343,445,o),
(280,445,cs),
(229,445,o),
(200,431,o),
(165,406,c),
(175,400,l),
(465,676,l),
(452,700,l),
(89,700,l),
(89,678,l),
(444,678,l),
(444,687,l),
(127,383,l),
(141,361,l),
(166,389,o),
(190,405,o),
(214,414,cs),
(237,422,o),
(259,423,o),
(280,423,cs),
(332,423,o),
(381,402,o),
(415,366,cs),
(449,330,o),
(470,279,o),
(470,222,cs),
(470,165,o),
(448,112,o),
(412,74,cs),
(376,36,o),
(325,12,o),
(266,12,cs),
(223,12,o),
(183,19,o),
(146,40,cs),
(109,61,o),
(73,95,o),
(40,150,c),
(20,138,l),
(84,30,o),
(165,-10,o),
(264,-10,cs)
);
}
);
width = 529;
}
);
unicode = 51;
},
{
glyphname = four;
layers = (
{
layerId = "32C70213-2585-4D1B-95B0-B141A53AEEAA";
shapes = (
{
closed = 1;
nodes = (
(103,110,l),
(663,110,l),
(663,280,l),
(185,280,l),
(194,237,l),
(488,710,l),
(285,710,l),
(17,272,l)
);
},
{
closed = 1;
nodes = (
(367,0,l),
(576,0,l),
(576,443,l),
(407,403,l),
(367,237,l)
);
}
);
width = 693;
},
{
layerId = "CCC3D61B-F98C-4821-B26B-81827A7D0F36";
shapes = (
{
closed = 1;
nodes = (
(76,160,l),
(578,160,l),
(578,259,l),
(137,259,l),
(141,247,l),
(470,700,l),
(353,700,l),
(30,250,l)
);
},
{
closed = 1;
nodes = (
(382,0,l),
(486,0,l),
(486,432,l),
(382,412,l),
(382,205,l)
);
}
);
width = 620;
},
{
layerId = "A90C822B-E05B-4C1D-A0F8-AEE47565E770";
shapes = (
{
closed = 1;
nodes = (
(46,190,l),
(578,190,l),
(578,212,l),
(54,212,l),
(57,204,l),
(465,700,l),
(436,700,l),
(35,212,l)
);
},
{
closed = 1;
nodes = (
(434,0,l),
(456,0,l),
(456,424,l),
(434,424,l),
(434,201,l)
);
}
);
width = 620;
}
);
unicode = 52;
},
{
glyphname = five;
layers = (
{
layerId = "32C70213-2585-4D1B-95B0-B141A53AEEAA";
shapes = (
{
closed = 1;
nodes = (
(377,-7,o),
(445,19,o),
(494,63,cs),
(542,107,o),
(572,169,o),
(572,238,cs),
(572,310,o),
(547,371,o),
(504,415,cs),
(460,458,o),
(400,483,o),
(332,483,cs),
(297,483,o),
(263,475,o),
(231,463,cs),
(199,450,o),
(169,431,o),
(144,411,c),
(229,397,l),
(262,619,l),
(201,535,l),
(531,535,l),
(531,710,l),
(111,710,l),
(66,392,l),
(150,282,l),
(175,298,o),
(197,310,o),
(218,318,cs),
(239,326,o),
(262,329,o),
(287,329,cs),
(314,329,o),
(336,321,o),
(352,307,cs),
(368,293,o),
(377,273,o),
(377,250,cs),
(377,229,o),
(369,208,o),
(354,195,cs),
(338,182,o),
(318,173,o),
(291,173,cs),
(262,173,o),
(236,177,o),
(212,188,cs),
(188,199,o),
(165,216,o),
(141,243,c),
(26,118,l),
(90,37,o),
(184,-7,o),
(301,-7,cs)
);
}
);
width = 617;
},
{
layerId = "CCC3D61B-F98C-4821-B26B-81827A7D0F36";
shapes = (
{
closed = 1;
nodes = (
(329,-7,o),
(391,19,o),
(436,63,cs),
(481,107,o),
(508,169,o),
(508,238,cs),
(508,306,o),
(484,363,o),
(444,404,cs),
(404,444,o),
(348,468,o),
(284,468,cs),
(257,468,o),
(227,463,o),
(200,455,cs),
(172,447,o),
(151,437,o),
(140,426,c),
(165,397,l),
(198,619,l),
(177,600,l),
(487,600,l),
(487,700,l),
(109,700,l),
(68,403,l),
(125,326,l),
(164,346,o),
(189,356,o),
(210,362,cs),
(231,368,o),
(246,368,o),
(265,368,cs),
(304,368,o),
(338,353,o),
(363,328,cs),
(388,303,o),
(403,268,o),
(403,228,cs),
(403,191,o),
(388,156,o),
(362,132,cs),
(336,107,o),
(298,92,o),
(257,92,cs),
(229,92,o),
(206,98,o),
(181,112,cs),
(156,126,o),
(131,147,o),
(99,182,c),
(39,115,l),
(88,35,o),
(165,-7,o),
(257,-7,cs)
);
}
);
width = 568;
},
{
layerId = "A90C822B-E05B-4C1D-A0F8-AEE47565E770";
shapes = (
{
closed = 1;
nodes = (
(329,-10,o),
(391,17,o),
(436,61,cs),
(481,105,o),
(508,168,o),
(508,237,cs),
(508,304,o),
(483,361,o),
(443,401,cs),
(403,441,o),
(346,464,o),
(282,464,cs),
(243,464,o),
(207,456,o),
(172,443,cs),
(137,430,o),
(106,411,o),
(77,387,c),
(87,379,l),
(131,690,l),
(116,678,l),
(487,678,l),
(487,700,l),
(111,700,l),
(65,377,l),
(78,361,l),
(103,385,o),
(136,404,o),
(172,419,cs),
(207,434,o),
(245,442,o),
(281,442,cs),
(341,442,o),
(392,419,o),
(428,382,cs),
(464,345,o),
(485,295,o),
(485,239,cs),
(485,175,o),
(460,119,o),
(420,78,cs),
(379,37,o),
(322,12,o),
(258,12,cs),
(221,12,o),
(183,22,o),
(148,43,c),
(112,63,o),
(82,93,o),
(58,133,c),
(39,115,l),
(90,35,o),
(165,-10,o),
(257,-10,cs)
);
}
);
width = 568;
}
);
unicode = 53;
},
{
glyphname = six;
layers = (
{
layerId = "32C70213-2585-4D1B-95B0-B141A53AEEAA";
shapes = (
{
closed = 1;
nodes = (
(381,0,o),
(449,29,o),
(498,75,cs),
(546,121,o),
(576,187,o),
(576,260,cs),
(576,323,o),
(551,380,o),
(511,421,cs),
(470,462,o),
(415,489,o),
(355,489,cs),
(314,489,o),
(263,468,o),
(221,435,cs),
(179,402,o),
(145,355,o),
(141,303,c),
(179,260,l),
(199,305,o),
(213,338,o),
(229,370,cs),
(244,401,o),
(259,428,o),
(282,464,cs),
(437,700,l),
(433,710,l),
(237,710,l),
(134,538,ls),
(105,489,o),
(79,448,o),
(60,405,cs),
(41,361,o),
(30,315,o),
(30,258,cs),
(30,187,o),
(61,123,o),
(110,76,cs),
(159,29,o),
(227,0,o),
(302,0,cs)
);
},
{
closed = 1;
nodes = (
(281,170,o),
(258,179,o),
(242,194,cs),
(226,209,o),
(217,231,o),
(217,255,cs),
(217,279,o),
(226,299,o),
(242,315,cs),
(258,330,o),
(281,339,o),
(306,339,cs),
(330,339,o),
(353,329,o),
(369,314,cs),
(385,298,o),
(395,278,o),
(395,255,cs),
(395,230,o),
(386,209,o),
(370,194,cs),
(354,178,o),
(333,170,o),
(306,170,cs)
);
}
);
width = 596;
},
{
layerId = "CCC3D61B-F98C-4821-B26B-81827A7D0F36";
shapes = (
{
closed = 1;
nodes = (
(354,0,o),
(412,27,o),
(455,74,cs),
(498,121,o),
(522,185,o),
(522,260,cs),
(522,323,o),
(498,380,o),
(459,421,cs),
(419,462,o),
(367,489,o),
(308,489,cs),
(268,489,o),
(230,478,o),
(197,457,cs),
(164,436,o),
(133,404,o),
(108,363,c),
(132,260,l),
(140,292,o),
(154,331,o),
(174,375,cs),
(194,419,o),
(220,466,o),
(249,517,c),
(359,702,l),
(355,712,l),
(250,712,l),
(159,558,ls),
(120,494,o),
(91,434,o),
(71,382,cs),
(51,329,o),
(40,283,o),
(40,247,cs),
(40,175,o),
(66,114,o),
(110,70,cs),
(153,26,o),
(214,0,o),
(283,0,cs)
);
},
{
closed = 1;
nodes = (
(243,100,o),
(208,117,o),
(184,143,cs),
(159,169,o),
(144,207,o),
(144,248,cs),
(144,288,o),
(159,323,o),
(184,348,cs),
(208,373,o),
(244,389,o),
(285,389,cs),
(321,389,o),
(355,373,o),
(379,347,cs),
(403,321,o),
(418,284,o),
(418,247,cs),
(418,203,o),
(403,167,o),
(379,141,cs),
(355,115,o),
(322,100,o),
(283,100,cs)
);
}
);
width = 557;
},
{
layerId = "A90C822B-E05B-4C1D-A0F8-AEE47565E770";
shapes = (
{
closed = 1;
nodes = (
(359,-10,o),
(416,16,o),
(457,58,cs),
(498,100,o),
(523,158,o),
(523,222,cs),
(523,289,o),
(498,347,o),
(457,388,cs),
(416,429,o),
(359,455,o),
(295,455,cs),
(252,455,o),
(212,443,o),
(177,419,cs),
(141,394,o),
(111,357,o),
(87,306,c),
(93,303,l),
(93,322,o),
(102,350,o),
(118,385,cs),
(133,420,o),
(155,460,o),
(183,501,cs),
(312,695,l),
(310,700,l),
(288,700,l),
(156,501,ls),
(124,452,o),
(102,403,o),
(87,358,cs),
(72,313,o),
(67,272,o),
(68,233,c),
(68,161,o),
(94,101,o),
(135,58,cs),
(175,15,o),
(232,-10,o),
(295,-10,cs)
);
},
{
closed = 1;
nodes = (
(241,12,o),
(188,35,o),
(152,73,cs),
(115,111,o),
(92,162,o),
(92,221,cs),
(92,281,o),
(115,334,o),
(152,372,cs),
(188,410,o),
(241,433,o),
(298,433,cs),
(354,433,o),
(405,410,o),
(441,372,cs),
(477,334,o),
(500,282,o),
(500,223,cs),
(500,163,o),
(477,111,o),
(441,73,cs),
(405,35,o),
(354,12,o),
(298,12,cs)
);
}
);
width = 605;
}
);
unicode = 54;
},
{
glyphname = seven;
layers = (
{
layerId = "32C70213-2585-4D1B-95B0-B141A53AEEAA";
shapes = (
{
closed = 1;
nodes = (
(274,0,l),
(526,620,l),
(509,710,l),
(35,710,l),
(35,526,l),
(410,526,l),
(336,642,l),
(64,0,l)
);
}
);
width = 561;
},
{
layerId = "CCC3D61B-F98C-4821-B26B-81827A7D0F36";
shapes = (
{
closed = 1;
nodes = (
(228,0,l),
(507,631,l),
(493,700,l),
(60,700,l),
(60,600,l),
(414,600,l),
(402,632,l),
(112,0,l)
);
}
);
width = 542;
},
{
layerId = "A90C822B-E05B-4C1D-A0F8-AEE47565E770";
shapes = (
{
closed = 1;
nodes = (
(123,0,l),
(424,680,l),
(408,700,l),
(0,700,l),
(0,678,l),
(414,678,l),
(406,693,l),
(98,0,l)
);
}
);
width = 466;
}
);
unicode = 55;
},
{
glyphname = eight;
layers = (
{
layerId = "32C70213-2585-4D1B-95B0-B141A53AEEAA";
shapes = (
{
closed = 1;
nodes = (
(383,-3,o),
(453,19,o),
(503,57,cs),
(553,95,o),
(583,148,o),
(583,209,cs),
(583,270,o),
(565,317,o),
(534,350,cs),
(503,383,o),
(460,403,o),
(409,411,c),
(422,360,l),
(466,377,o),
(498,401,o),
(521,429,cs),
(544,457,o),
(555,490,o),
(555,529,cs),
(555,585,o),
(527,634,o),
(482,667,cs),
(437,700,o),
(374,720,o),
(306,720,cs),
(238,720,o),
(175,700,o),
(130,667,cs),
(85,634,o),
(57,585,o),
(57,529,cs),
(57,490,o),
(70,456,o),
(93,428,cs),
(116,399,o),
(149,376,o),
(189,360,c),
(205,415,l),
(92,391,o),
(30,330,o),
(30,209,cs),
(30,148,o),
(61,94,o),
(111,57,cs),
(161,20,o),
(230,-3,o),
(306,-3,cs)
);
},
{
closed = 1;
nodes = (
(286,156,o),
(266,163,o),
(253,176,cs),
(240,188,o),
(231,205,o),
(231,225,cs),
(231,245,o),
(240,262,o),
(253,275,cs),
(266,287,o),
(286,294,o),
(306,294,cs),
(329,294,o),
(347,287,o),
(360,275,cs),
(373,262,o),
(381,245,o),
(381,225,cs),
(381,205,o),
(373,187,o),
(360,175,cs),
(347,163,o),
(327,156,o),
(306,156,cs)
);
},
{
closed = 1;
nodes = (
(286,457,o),
(270,463,o),
(259,474,cs),
(247,485,o),
(240,501,o),
(240,518,cs),
(240,537,o),
(247,552,o),
(259,563,cs),
(270,574,o),
(286,581,o),
(306,581,cs),
(326,581,o),
(342,574,o),
(354,563,cs),
(365,552,o),
(372,537,o),
(372,518,cs),
(372,501,o),
(365,485,o),
(354,474,cs),
(342,463,o),
(326,457,o),
(306,457,cs)
);
}
);
width = 613;
},
{
layerId = "CCC3D61B-F98C-4821-B26B-81827A7D0F36";
shapes = (
{
closed = 1;
nodes = (
(356,-3,o),
(414,20,o),
(457,57,cs),
(500,93,o),
(526,144,o),
(526,200,cs),
(526,239,o),
(513,275,o),
(489,307,cs),
(465,339,o),
(432,365,o),
(392,381,c),
(395,364,l),
(431,379,o),
(460,399,o),
(479,423,cs),
(498,447,o),
(508,477,o),
(508,509,cs),
(508,561,o),
(484,609,o),
(444,644,cs),
(404,679,o),
(349,700,o),
(289,700,cs),
(229,700,o),
(174,679,o),
(134,644,cs),
(94,609,o),
(70,561,o),
(70,509,cs),
(70,477,o),
(81,447,o),
(101,423,c),
(120,398,o),
(147,377,o),
(182,364,c),
(188,385,l),
(100,346,o),
(53,284,o),
(53,200,cs),
(53,144,o),
(79,93,o),
(122,57,cs),
(165,20,o),
(224,-3,o),
(289,-3,cs)
);
},
{
closed = 1;
nodes = (
(253,97,o),
(220,109,o),
(197,128,cs),
(174,147,o),
(160,175,o),
(160,204,cs),
(160,236,o),
(174,265,o),
(197,286,cs),
(220,306,o),
(253,318,o),
(289,318,cs),
(326,318,o),
(359,306,o),
(382,286,cs),
(405,265,o),
(419,236,o),
(419,204,cs),
(419,173,o),
(405,147,o),
(382,128,cs),
(359,108,o),
(326,97,o),
(289,97,cs)
);
},
{
closed = 1;
nodes = (
(257,414,o),
(229,424,o),
(209,440,cs),
(189,456,o),
(177,479,o),
(177,506,cs),
(177,533,o),
(189,556,o),
(209,573,cs),
(229,590,o),
(257,600,o),
(289,600,cs),
(321,600,o),
(349,590,o),
(369,573,cs),
(389,556,o),
(401,533,o),
(401,506,cs),
(401,479,o),
(389,456,o),
(369,440,cs),
(349,424,o),
(321,414,o),
(289,414,cs)
);
}
);
width = 579;
},
{
layerId = "A90C822B-E05B-4C1D-A0F8-AEE47565E770";
shapes = (
{
closed = 1;
nodes = (
(357,-3,o),
(416,18,o),
(458,53,cs),
(500,88,o),
(526,137,o),
(526,193,cs),
(526,242,o),
(508,284,o),
(477,317,cs),
(446,350,o),
(403,374,o),
(351,386,c),
(347,374,l),
(394,382,o),
(430,404,o),
(456,432,cs),
(482,460,o),
(495,495,o),
(495,530,cs),
(495,583,o),
(472,628,o),
(436,660,cs),
(399,692,o),
(347,710,o),
(290,710,cs),
(234,710,o),
(182,692,o),
(146,660,cs),
(109,628,o),
(86,583,o),
(86,530,cs),
(86,495,o),
(100,459,o),
(125,431,cs),
(150,402,o),
(188,381,o),
(233,374,c),
(229,386,l),
(120,361,o),
(55,290,o),
(55,193,cs),
(55,137,o),
(81,89,o),
(124,54,cs),
(167,18,o),
(225,-3,o),
(290,-3,cs)
);
},
{
closed = 1;
nodes = (
(233,19,o),
(179,40,o),
(141,72,cs),
(103,104,o),
(78,147,o),
(78,191,cs),
(78,243,o),
(101,287,o),
(139,319,cs),
(177,350,o),
(230,368,o),
(290,368,cs),
(351,368,o),
(405,350,o),
(443,319,cs),
(481,287,o),
(503,243,o),
(503,191,cs),
(503,146,o),
(479,103,o),
(440,71,cs),
(401,39,o),
(349,19,o),
(290,19,cs)
);
},
{
closed = 1;
nodes = (
(238,388,o),
(193,404,o),
(161,431,cs),
(128,458,o),
(109,494,o),
(109,537,cs),
(109,580,o),
(128,617,o),
(161,644,cs),
(193,671,o),
(238,688,o),
(290,688,cs),
(342,688,o),
(388,671,o),
(421,644,cs),
(453,617,o),
(472,580,o),
(472,537,cs),
(472,493,o),
(453,456,o),
(421,430,cs),
(388,404,o),
(342,388,o),
(290,388,cs)
);
}
);
width = 580;
}
);
unicode = 56;
},
{
glyphname = nine;
layers = (
{
layerId = "32C70213-2585-4D1B-95B0-B141A53AEEAA";
shapes = (
{
closed = 1;
nodes = (
(389,0,l),
(482,174,l),
(506,221,o),
(530,266,o),
(547,314,cs),
(564,362,o),
(576,415,o),
(576,472,cs),
(576,540,o),
(545,602,o),
(496,647,cs),
(447,691,o),
(379,720,o),
(304,720,cs),
(227,720,o),
(157,691,o),
(109,644,cs),
(60,596,o),
(30,531,o),
(30,456,cs),
(30,395,o),
(55,336,o),
(93,293,cs),
(131,250,o),
(184,223,o),
(241,223,cs),
(285,223,o),
(338,244,o),
(382,277,cs),
(426,310,o),
(461,357,o),
(465,409,c),
(417,452,l),
(189,10,l),
(193,0,l)
);
},
{
closed = 1;
nodes = (
(271,383,o),
(251,393,o),
(236,409,c),
(220,424,o),
(211,446,o),
(211,467,cs),
(211,492,o),
(219,513,o),
(235,529,cs),
(250,544,o),
(271,552,o),
(295,552,cs),
(320,552,o),
(341,543,o),
(356,528,cs),
(371,513,o),
(379,491,o),
(379,467,cs),
(379,443,o),
(371,423,o),
(356,408,cs),
(341,392,o),
(320,383,o),
(295,383,cs)
);
}
);
width = 596;
},
{
layerId = "CCC3D61B-F98C-4821-B26B-81827A7D0F36";
shapes = (
{
closed = 1;
nodes = (
(334,0,l),
(417,174,ls),
(454,254,o),
(479,313,o),
(495,361,cs),
(510,408,o),
(516,445,o),
(516,478,cs),
(516,542,o),
(489,602,o),
(445,644,cs),
(401,686,o),
(341,712,o),
(274,712,cs),
(205,712,o),
(144,685,o),
(100,641,cs),
(56,596,o),
(30,534,o),
(30,462,cs),
(30,402,o),
(55,348,o),
(93,308,cs),
(131,268,o),
(184,243,o),
(241,243,cs),
(278,243,o),
(316,255,o),
(349,277,cs),
(381,299,o),
(411,329,o),
(435,369,c),
(432,452,l),
(224,10,l),
(228,0,l)
);
},
{
closed = 1;
nodes = (
(231,343,o),
(200,359,o),
(177,383,cs),
(154,407,o),
(141,440,o),
(141,475,cs),
(141,515,o),
(155,550,o),
(177,574,cs),
(199,598,o),
(230,612,o),
(266,612,cs),
(306,612,o),
(339,597,o),
(363,573,c),
(386,548,o),
(400,514,o),
(400,474,cs),
(400,438,o),
(386,405,o),
(362,381,cs),
(338,357,o),
(304,343,o),
(264,343,cs)
);
}
);
width = 551;
},
{
layerId = "A90C822B-E05B-4C1D-A0F8-AEE47565E770";
shapes = (
{
closed = 1;
nodes = (
(292,0,l),
(403,199,ls),
(430,246,o),
(453,292,o),
(472,338,cs),
(491,384,o),
(502,431,o),
(502,476,cs),
(502,544,o),
(477,603,o),
(436,644,cs),
(395,685,o),
(338,710,o),
(275,710,cs),
(211,710,o),
(154,685,o),
(113,643,cs),
(72,601,o),
(47,542,o),
(47,478,cs),
(47,413,o),
(72,353,o),
(113,312,cs),
(154,271,o),
(211,245,o),
(275,245,cs),
(318,245,o),
(356,256,o),
(391,280,cs),
(426,303,o),
(456,339,o),
(481,387,c),
(478,384,l),
(268,5,l),
(270,0,l)
);
},
{
closed = 1;
nodes = (
(216,267,o),
(165,291,o),
(129,329,cs),
(93,367,o),
(70,418,o),
(70,477,cs),
(70,537,o),
(93,590,o),
(129,628,cs),
(165,666,o),
(216,688,o),
(272,688,cs),
(331,688,o),
(382,666,o),
(419,628,cs),
(455,590,o),
(478,538,o),
(478,479,cs),
(478,419,o),
(455,367,o),
(419,329,cs),
(382,291,o),
(331,267,o),
(272,267,cs)
);
}
);
width = 548;
}
);
unicode = 57;
},
{
glyphname = less;
layers = (
{
layerId = "32C70213-2585-4D1B-95B0-B141A53AEEAA";
shapes = (
{
closed = 1;
nodes = (
(521,139,l),
(196,297,l),
(196,226,l),
(521,384,l),
(443,549,l),
(35,316,l),
(35,207,l),
(443,-26,l)
);
}
);
width = 526;
},
{
layerId = "CCC3D61B-F98C-4821-B26B-81827A7D0F36";
shapes = (
{
closed = 1;
nodes = (
(459,79,l),
(100,285,l),
(100,218,l),
(459,424,l),
(411,499,l),
(50,292,l),
(50,211,l),
(411,4,l)
);
}
);
width = 524;
},
{
layerId = "A90C822B-E05B-4C1D-A0F8-AEE47565E770";
shapes = (
{
closed = 1;
nodes = (
(416,56,l),
(70,256,l),
(70,250,l),
(416,450,l),
(404,470,l),
(48,266,l),
(48,240,l),
(404,36,l)
);
}
);
width = 472;
}
);
unicode = 60;
},
{
glyphname = equal;
layers = (
{
layerId = "32C70213-2585-4D1B-95B0-B141A53AEEAA";
shapes = (
{
closed = 1;
nodes = (
(586,321,l),
(586,481,l),
(80,481,l),
(80,321,l)
);
},
{
closed = 1;
nodes = (
(586,82,l),
(586,242,l),
(80,242,l),
(80,82,l)
);
}
);
width = 666;
},
{
layerId = "CCC3D61B-F98C-4821-B26B-81827A7D0F36";
shapes = (
{
closed = 1;
nodes = (
(516,331,l),
(516,421,l),
(50,421,l),
(50,331,l)
);
},
{
closed = 1;
nodes = (
(516,142,l),
(516,231,l),
(50,231,l),
(50,142,l)
);
}
);
width = 566;
},
{
layerId = "A90C822B-E05B-4C1D-A0F8-AEE47565E770";
shapes = (
{
closed = 1;
nodes = (
(501,347,l),
(501,371,l),
(65,371,l),
(65,347,l)
);
},
{
closed = 1;
nodes = (
(501,190,l),
(501,214,l),
(65,214,l),
(65,190,l)
);
}
);
width = 566;
}
);
unicode = 61;
},
{
glyphname = greater;
layers = (
{
layerId = "32C70213-2585-4D1B-95B0-B141A53AEEAA";
shapes = (
{
closed = 1;
nodes = (
(507,207,l),
(507,316,l),
(99,549,l),
(21,384,l),
(346,226,l),
(346,297,l),
(21,139,l),
(99,-26,l)
);
}
);
width = 527;
},
{
layerId = "CCC3D61B-F98C-4821-B26B-81827A7D0F36";
shapes = (
{
closed = 1;
nodes = (
(474,211,l),
(474,292,l),
(113,499,l),
(65,424,l),
(424,218,l),
(424,285,l),
(65,79,l),
(113,4,l)
);
}
);
width = 524;
},
{
layerId = "A90C822B-E05B-4C1D-A0F8-AEE47565E770";
shapes = (
{
closed = 1;
nodes = (
(424,240,l),
(424,266,l),
(68,470,l),
(56,450,l),
(402,250,l),
(402,256,l),
(56,56,l),
(68,36,l)
);
}
);
width = 470;
}
);
unicode = 62;
},
{
glyphname = question;
layers = (
{
layerId = "32C70213-2585-4D1B-95B0-B141A53AEEAA";
shapes = (
{
closed = 1;
nodes = (
(160,25,o),
(195,-11,o),
(255,-11,cs),
(319,-11,o),
(358,29,o),
(358,93,cs),
(358,153,o),
(323,189,o),
(263,189,cs),
(199,189,o),
(160,149,o),
(160,85,cs)
);
},
{
closed = 1;
nodes = (
(313,218,l),
(382,291,l),
(338,308,ls),
(314,317,o),
(304,329,o),
(304,337,cs),
(304,346,o),
(315,356,o),
(342,368,cs),
(371,381,ls),
(448,416,o),
(485,458,o),
(485,535,cs),
(485,656,o),
(394,720,o),
(272,720,cs),
(148,720,o),
(67,654,o),
(34,596,c),
(138,505,l),
(157,545,o),
(205,563,o),
(239,563,cs),
(280,563,o),
(281,536,o),
(281,528,cs),
(281,489,o),
(259,469,o),
(233,457,cs),
(207,445,ls),
(153,420,o),
(119,387,o),
(119,341,cs),
(119,290,o),
(161,255,o),
(251,233,cs)
);
}
);
width = 554;
},
{
layerId = "CCC3D61B-F98C-4821-B26B-81827A7D0F36";
shapes = (
{
closed = 1;
nodes = (
(167,14,o),
(189,-11,o),
(229,-11,cs),
(272,-11,o),
(297,17,o),
(297,60,cs),
(297,100,o),
(275,124,o),
(235,124,cs),
(192,124,o),
(167,97,o),
(167,54,cs)
);
},
{
closed = 1;
nodes = (
(268,193,l),
(311,240,l),
(263,263,ls),
(239,275,o),
(228,297,o),
(228,313,cs),
(228,333,o),
(244,348,o),
(281,369,cs),
(318,390,ls),
(392,432,o),
(427,475,o),
(427,548,cs),
(427,657,o),
(349,715,o),
(241,715,cs),
(141,715,o),
(71,665,o),
(37,616,c),
(100,561,l),
(128,597,o),
(174,622,o),
(221,622,cs),
(276,622,o),
(307,588,o),
(307,541,cs),
(307,499,o),
(283,473,o),
(231,445,cs),
(212,435,ls),
(148,401,o),
(118,365,o),
(118,320,cs),
(118,277,o),
(146,238,o),
(208,215,cs)
);
}
);
width = 500;
},
{
layerId = "A90C822B-E05B-4C1D-A0F8-AEE47565E770";
shapes = (
{
closed = 1;
nodes = (
(174,1,o),
(183,-10,o),
(199,-10,cs),
(217,-10,o),
(226,4,o),
(226,23,cs),
(226,39,o),
(219,50,o),
(202,50,cs),
(184,50,o),
(174,37,o),
(174,19,cs)
);
},
{
closed = 1;
nodes = (
(216,164,l),
(228,181,l),
(176,221,ls),
(153,239,o),
(140,260,o),
(140,290,cs),
(140,328,o),
(162,351,o),
(210,381,cs),
(256,411,ls),
(330,459,o),
(361,495,o),
(361,562,cs),
(361,658,o),
(297,710,o),
(205,710,cs),
(132,710,o),
(76,677,o),
(41,640,c),
(57,625,l),
(94,657,o),
(138,689,o),
(201,689,cs),
(272,689,o),
(337,648,o),
(337,565,cs),
(337,510,o),
(308,471,o),
(229,420,cs),
(218,413,ls),
(145,366,o),
(116,339,o),
(116,290,cs),
(116,262,o),
(126,229,o),
(159,205,cs)
);
}
);
width = 438;
}
);
unicode = 63;
},
{
glyphname = at;
layers = (
{
layerId = "32C70213-2585-4D1B-95B0-B141A53AEEAA";
shapes = (
{
closed = 1;
nodes = (
(454,-162,o),
(488,-159,o),
(528,-148,cs),
(567,-137,o),
(610,-120,o),
(669,-89,c),
(632,-22,l),
(595,-42,o),
(564,-58,o),
(532,-68,cs),
(499,-78,o),
(464,-82,o),
(417,-82,cs),
(324,-82,o),
(249,-56,o),
(200,-6,cs),
(151,45,o),
(124,117,o),
(124,209,cs),
(124,341,o),
(167,448,o),
(244,521,cs),
(320,593,o),
(431,633,o),
(568,633,cs),
(655,633,o),
(722,611,o),
(770,569,cs),
(817,527,o),
(842,467,o),
(842,391,cs),
(842,327,o),
(829,269,o),
(807,226,cs),
(785,183,o),
(755,157,o),
(720,157,cs),
(709,157,o),
(700,160,o),
(694,165,cs),
(688,170,o),
(684,181,o),
(687,194,cs),
(752,517,l),
(576,517,l),
(545,391,l),
(580,395,l),
(576,435,o),
(563,469,o),
(543,493,cs),
(523,516,o),
(497,530,o),
(466,530,cs),
(399,530,o),
(338,490,o),
(294,434,cs),
(249,377,o),
(221,304,o),
(221,237,cs),
(221,181,o),
(240,133,o),
(270,99,cs),
(300,65,o),
(341,45,o),
(389,45,cs),
(469,45,o),
(531,102,o),
(563,202,c),
(529,222,l),
(529,198,o),
(528,175,o),
(528,151,cs),
(528,119,o),
(543,93,o),
(568,74,cs),
(592,55,o),
(628,45,o),
(669,45,cs),
(741,45,o),
(806,86,o),
(852,151,cs),
(898,215,o),
(925,303,o),
(925,396,cs),
(925,489,o),
(891,568,o),
(830,623,cs),
(769,678,o),
(683,710,o),
(576,710,cs),
(428,710,o),
(293,663,o),
(197,576,cs),
(100,488,o),
(40,362,o),
(40,206,cs),
(40,97,o),
(75,4,o),
(140,-61,cs),
(204,-125,o),
(298,-162,o),
(414,-162,cs)
);
},
{
closed = 1;
nodes = (
(434,192,o),
(426,198,o),
(420,208,cs),
(414,218,o),
(410,232,o),
(410,249,cs),
(410,289,o),
(420,326,o),
(436,352,cs),
(452,378,o),
(474,394,o),
(501,394,cs),
(517,394,o),
(528,389,o),
(536,380,cs),
(543,371,o),
(545,358,o),
(545,343,cs),
(545,330,o),
(543,316,o),
(540,301,cs),
(535,268,o),
(520,241,o),
(503,222,cs),
(486,203,o),
(465,192,o),
(445,192,cs)
);
}
);
width = 965;
},
{
layerId = "CCC3D61B-F98C-4821-B26B-81827A7D0F36";
shapes = (
{
closed = 1;
nodes = (
(454,-162,o),
(488,-159,o),
(528,-148,cs),
(567,-137,o),
(610,-120,o),
(669,-89,c),
(632,-22,l),
(595,-42,o),
(564,-58,o),
(532,-68,cs),
(499,-78,o),
(464,-82,o),
(417,-82,cs),
(324,-82,o),
(249,-56,o),
(200,-6,cs),
(151,45,o),
(124,117,o),
(124,209,cs),
(124,341,o),
(168,446,o),
(246,518,cs),
(324,590,o),
(436,630,o),
(572,630,cs),
(656,630,o),
(725,607,o),
(771,567,cs),
(817,526,o),
(842,466,o),
(842,391,cs),
(842,323,o),
(826,259,o),
(801,213,cs),
(776,167,o),
(740,137,o),
(700,137,cs),
(688,137,o),
(675,142,o),
(667,151,cs),
(659,160,o),
(654,174,o),
(657,193,cs),
(708,501,l),
(607,501,l),
(581,331,l),
(605,390,l),
(601,426,o),
(588,456,o),
(568,477,cs),
(548,498,o),
(522,510,o),
(491,510,cs),
(420,510,o),
(361,473,o),
(319,420,cs),
(277,367,o),
(252,300,o),
(252,237,cs),
(252,184,o),
(267,138,o),
(294,106,cs),
(321,74,o),
(357,55,o),
(400,55,cs),
(480,55,o),
(543,106,o),
(574,202,c),
(560,222,l),
(557,198,o),
(551,175,o),
(551,155,cs),
(551,124,o),
(563,99,o),
(584,82,cs),
(605,65,o),
(634,55,o),
(669,55,cs),
(741,55,o),
(806,95,o),
(852,158,cs),
(898,221,o),
(925,305,o),
(925,396,cs),
(925,489,o),
(891,568,o),
(830,623,cs),
(769,678,o),
(683,710,o),
(576,710,cs),
(428,710,o),
(293,663,o),
(197,576,cs),
(100,488,o),
(40,362,o),
(40,206,cs),
(40,97,o),
(75,4,o),
(140,-61,cs),
(204,-125,o),
(298,-162,o),
(414,-162,cs)
);
},
{
closed = 1;
nodes = (
(402,140,o),
(384,149,o),
(372,165,cs),
(360,181,o),
(354,204,o),
(354,232,cs),
(354,280,o),
(370,328,o),
(396,364,cs),
(422,400,o),
(456,425,o),
(495,425,cs),
(520,425,o),
(542,418,o),
(556,403,cs),
(570,388,o),
(577,369,o),
(577,342,cs),
(577,326,o),
(574,310,o),
(570,286,cs),
(565,250,o),
(545,214,o),
(518,186,cs),
(491,158,o),
(458,140,o),
(423,140,cs)
);
}
);
width = 965;
},
{
layerId = "A90C822B-E05B-4C1D-A0F8-AEE47565E770";
shapes = (
{
closed = 1;
nodes = (
(464,-162,o),
(511,-155,o),
(555,-143,cs),
(599,-130,o),
(642,-112,o),
(677,-91,c),
(665,-73,l),
(637,-90,o),
(595,-107,o),
(551,-120,c),
(506,-132,o),
(459,-140,o),
(424,-140,cs),
(324,-140,o),
(237,-103,o),
(176,-39,cs),
(115,26,o),
(78,119,o),
(78,231,cs),
(78,343,o),
(125,458,o),
(207,544,cs),
(289,630,o),
(406,688,o),
(547,688,cs),
(651,688,o),
(741,659,o),
(806,607,cs),
(870,554,o),
(908,478,o),
(908,382,cs),
(908,281,o),
(880,204,o),
(840,153,cs),
(799,102,o),
(746,77,o),
(697,77,cs),
(665,77,o),
(651,85,o),
(647,101,cs),
(642,117,o),
(646,142,o),
(653,177,cs),
(716,501,l),
(694,501,l),
(669,362,l),
(679,370,l),
(666,422,o),
(639,458,o),
(607,480,cs),
(575,502,o),
(537,510,o),
(501,510,cs),
(436,510,o),
(378,478,o),
(338,427,cs),
(298,376,o),
(274,306,o),
(274,231,cs),
(274,179,o),
(293,135,o),
(323,104,cs),
(353,72,o),
(395,55,o),
(443,55,cs),
(539,55,o),
(621,118,o),
(656,218,c),
(646,229,l),
(630,184,o),
(621,155,o),
(621,128,cs),
(621,109,o),
(625,90,o),
(637,77,cs),
(649,64,o),
(668,55,o),
(699,55,cs),
(755,55,o),
(813,86,o),
(857,142,cs),
(901,198,o),
(931,280,o),
(931,384,cs),
(931,479,o),
(892,560,o),
(824,618,cs),
(756,676,o),
(659,710,o),
(546,710,cs),
(401,710,o),
(278,653,o),
(191,564,cs),
(104,475,o),
(55,353,o),
(55,224,cs),
(55,109,o),
(93,13,o),
(158,-55,cs),
(223,-123,o),
(316,-162,o),
(424,-162,cs)
);
},
{
closed = 1;
nodes = (
(401,77,o),
(365,93,o),
(339,121,cs),
(313,148,o),
(297,187,o),
(297,232,cs),
(297,308,o),
(323,372,o),
(361,417,cs),
(399,461,o),
(449,488,o),
(501,488,cs),
(554,488,o),
(594,466,o),
(622,437,cs),
(649,408,o),
(662,370,o),
(662,335,cs),
(662,327,o),
(660,312,o),
(659,305,cs),
(648,232,o),
(622,175,o),
(586,136,cs),
(549,97,o),
(501,77,o),
(445,77,cs)
);
}
);
width = 986;
}
);
unicode = 64;
},
{
glyphname = A;
layers = (
{
layerId = "32C70213-2585-4D1B-95B0-B141A53AEEAA";
shapes = (
{
closed = 1;
nodes = (
(190,0,l),
(302,306,ls),
(317,347,o),
(328,373,o),
(337,400,cs),
(345,427,o),
(353,455,o),
(361,496,c),
(327,496,l),
(335,455,o),
(342,428,o),
(351,401,cs),
(359,374,o),
(369,347,o),
(384,306,cs),
(496,0,l),
(710,0,l),
(431,700,l),
(261,700,l),
(-20,0,l)
);
},
{
closed = 1;
nodes = (
(565,104,l),
(508,251,l),
(183,251,l),
(120,104,l)
);
}
);
width = 690;
},
{
layerId = "CCC3D61B-F98C-4821-B26B-81827A7D0F36";
shapes = (
{
closed = 1;
nodes = (
(135,0,l),
(294,418,l),
(302,441,o),
(315,478,o),
(328,515,cs),
(340,552,o),
(352,590,o),
(360,613,c),
(337,612,l),
(341,601,o),
(355,559,o),
(369,516,cs),
(383,473,o),
(396,431,o),
(400,422,c),
(560,0,l),
(675,0,l),
(406,700,l),
(296,700,l),
(25,0,l)
);
},
{
closed = 1;
nodes = (
(549,174,l),
(503,278,l),
(185,278,l),
(145,174,l)
);
}
);
width = 700;
},
{
layerId = "A90C822B-E05B-4C1D-A0F8-AEE47565E770";
shapes = (
{
closed = 1;
nodes = (
(46,0,l),
(237,503,ls),
(242,516,o),
(255,553,o),
(270,591,cs),
(285,629,o),
(301,670,o),
(309,694,c),
(298,695,l),
(313,658,o),
(330,614,o),
(344,578,cs),
(358,542,o),
(368,513,o),
(372,504,cs),
(565,0,l),
(591,0,l),
(322,700,l),
(289,700,l),
(20,0,l)
);
},
{
closed = 1;
nodes = (
(493,230,l),
(485,253,l),
(128,253,l),
(120,230,l)
);
}
);
width = 611;
}
);
leftKerningGroup = A2;
rightKerningGroup = A;
unicode = 65;
},
{
glyphname = B;
layers = (
{
layerId = "32C70213-2585-4D1B-95B0-B141A53AEEAA";
shapes = (
{
closed = 1;
nodes = (
(412,0,ls),
(485,0,o),
(551,17,o),
(599,53,cs),
(646,89,o),
(675,143,o),
(675,216,cs),
(675,260,o),
(660,299,o),
(633,329,cs),
(606,359,o),
(568,380,o),
(523,391,c),
(526,372,l),
(562,381,o),
(590,400,o),
(610,427,cs),
(629,454,o),
(638,490,o),
(638,531,cs),
(638,583,o),
(617,625,o),
(577,654,cs),
(537,683,o),
(478,700,o),
(402,700,cs),
(80,700,l),
(80,0,l)
);
},
{
closed = 1;
nodes = (
(280,282,l),
(401,282,ls),
(442,282,o),
(465,262,o),
(465,229,cs),
(465,209,o),
(460,195,o),
(450,185,cs),
(440,175,o),
(425,170,o),
(406,170,cs),
(280,170,l)
);
},
{
closed = 1;
nodes = (
(280,530,l),
(363,530,ls),
(387,530,o),
(403,524,o),
(415,516,c),
(426,507,o),
(430,494,o),
(430,478,cs),
(430,462,o),
(426,448,o),
(415,440,cs),
(404,431,o),
(389,426,o),
(365,426,cs),
(280,426,l)
);
}
);
width = 715;
},
{
layerId = "CCC3D61B-F98C-4821-B26B-81827A7D0F36";
shapes = (
{
closed = 1;
nodes = (
(400,0,ls),
(473,0,o),
(532,18,o),
(572,53,cs),
(612,88,o),
(633,139,o),
(633,206,cs),
(633,255,o),
(617,296,o),
(590,328,cs),
(562,360,o),
(524,381,o),
(477,392,c),
(477,372,l),
(514,383,o),
(544,402,o),
(565,428,cs),
(585,454,o),
(596,487,o),
(596,524,cs),
(596,581,o),
(579,626,o),
(544,655,cs),
(509,684,o),
(458,700,o),
(390,700,cs),
(98,700,l),
(98,0,l)
);
},
{
closed = 1;
nodes = (
(206,306,l),
(389,306,ls),
(470,306,o),
(523,272,o),
(523,208,cs),
(523,175,o),
(511,148,o),
(489,131,cs),
(467,114,o),
(434,104,o),
(394,104,cs),
(206,104,l)
);
},
{
closed = 1;
nodes = (
(206,596,l),
(372,596,ls),
(409,596,o),
(438,588,o),
(458,572,cs),
(478,556,o),
(488,534,o),
(488,503,cs),
(488,475,o),
(477,452,o),
(459,436,cs),
(441,420,o),
(415,410,o),
(384,410,cs),
(206,410,l)
);
}
);
width = 681;
},
{
layerId = "A90C822B-E05B-4C1D-A0F8-AEE47565E770";
shapes = (
{
closed = 1;
nodes = (
(371,0,ls),
(451,0,o),
(508,22,o),
(545,56,cs),
(581,90,o),
(597,139,o),
(597,192,cs),
(597,240,o),
(581,284,o),
(547,316,cs),
(513,348,o),
(462,370,o),
(395,374,c),
(401,361,l),
(449,369,o),
(489,390,o),
(517,420,cs),
(544,450,o),
(560,488,o),
(560,531,cs),
(560,578,o),
(542,619,o),
(511,650,cs),
(479,681,o),
(434,700,o),
(378,700,cs),
(110,700,l),
(110,0,l)
);
},
{
closed = 1;
nodes = (
(131,356,l),
(377,356,ls),
(502,356,o),
(574,288,o),
(574,188,cs),
(574,141,o),
(560,101,o),
(528,71,cs),
(495,41,o),
(444,22,o),
(372,22,cs),
(131,22,l)
);
},
{
closed = 1;
nodes = (
(131,678,l),
(375,678,ls),
(426,678,o),
(466,662,o),
(494,636,cs),
(522,610,o),
(537,572,o),
(537,532,cs),
(537,489,o),
(519,451,o),
(489,423,cs),
(459,395,o),
(417,378,o),
(372,378,cs),
(131,378,l)
);
}
);
width = 652;
}
);
leftKerningGroup = B;
unicode = 66;
},
{
glyphname = C;
layers = (
{
layerId = "32C70213-2585-4D1B-95B0-B141A53AEEAA";
shapes = (
{
closed = 1;
nodes = (
(476,-10,o),
(531,1,o),
(579,18,cs),
(626,34,o),
(668,59,o),
(693,87,c),
(590,249,l),
(558,213,o),
(506,184,o),
(446,184,cs),
(390,184,o),
(344,201,o),
(312,230,cs),
(280,259,o),
(262,301,o),
(262,352,cs),
(262,408,o),
(281,451,o),
(311,480,cs),
(341,509,o),
(383,525,o),
(428,525,cs),
(493,525,o),
(537,498,o),
(565,463,c),
(694,614,l),
(659,650,o),
(617,677,o),
(573,694,cs),
(528,711,o),
(478,720,o),
(430,720,cs),
(315,720,o),
(218,682,o),
(149,618,cs),
(80,553,o),
(40,462,o),
(40,355,cs),
(40,248,o),
(80,157,o),
(148,93,cs),
(216,28,o),
(312,-10,o),
(424,-10,cs)
);
}
);
width = 705;
},
{
layerId = "CCC3D61B-F98C-4821-B26B-81827A7D0F36";
shapes = (
{
closed = 1;
nodes = (
(431,-10,o),
(482,1,o),
(526,18,cs),
(569,34,o),
(606,58,o),
(630,86,c),
(576,174,l),
(531,127,o),
(468,99,o),
(400,99,cs),
(328,99,o),
(268,123,o),
(225,167,cs),
(182,211,o),
(158,274,o),
(158,350,cs),
(158,422,o),
(184,484,o),
(226,528,cs),
(268,572,o),
(326,598,o),
(391,598,cs),
(455,598,o),
(514,570,o),
(571,510,c),
(643,585,l),
(619,621,o),
(581,651,o),
(537,672,cs),
(492,693,o),
(442,706,o),
(391,706,cs),
(295,706,o),
(210,667,o),
(148,603,cs),
(86,539,o),
(48,450,o),
(48,350,cs),
(48,245,o),
(83,154,o),
(142,91,cs),
(201,27,o),
(285,-10,o),
(382,-10,cs)
);
}
);
width = 679;
},
{
layerId = "A90C822B-E05B-4C1D-A0F8-AEE47565E770";
shapes = (
{
closed = 1;
nodes = (
(447,-10,o),
(492,-2,o),
(533,14,cs),
(573,30,o),
(610,53,o),
(639,81,c),
(624,99,l),
(568,43,o),
(491,12,o),
(399,12,cs),
(307,12,o),
(226,47,o),
(169,106,cs),
(112,165,o),
(78,249,o),
(78,346,cs),
(78,445,o),
(112,530,o),
(169,591,cs),
(226,652,o),
(307,688,o),
(399,688,cs),
(496,688,o),
(577,646,o),
(637,578,c),
(655,594,l),
(623,630,o),
(586,659,o),
(543,679,cs),
(500,699,o),
(451,710,o),
(399,710,cs),
(299,710,o),
(212,672,o),
(152,608,cs),
(91,543,o),
(55,453,o),
(55,346,cs),
(55,242,o),
(91,153,o),
(152,90,cs),
(212,26,o),
(299,-10,o),
(399,-10,cs)
);
}
);
width = 690;
}
);
leftKerningGroup = C;
unicode = 67;
},
{
glyphname = D;
layers = (
{
layerId = "32C70213-2585-4D1B-95B0-B141A53AEEAA";
shapes = (
{
closed = 1;
nodes = (
(388,0,ls),
(493,0,o),
(584,37,o),
(648,99,cs),
(712,161,o),
(750,249,o),
(750,350,cs),
(750,453,o),
(712,540,o),
(648,602,cs),
(584,664,o),
(493,700,o),
(388,700,cs),
(80,700,l),
(80,0,l)
);
},
{
closed = 1;
nodes = (
(296,565,l),
(256,516,l),
(383,516,ls),
(427,516,o),
(463,498,o),
(490,469,cs),
(517,440,o),
(532,398,o),
(532,350,cs),
(532,302,o),
(517,260,o),
(490,231,cs),
(463,202,o),
(427,184,o),
(383,184,cs),
(259,184,l),
(296,133,l)
);
}
);
width = 790;
},
{
layerId = "CCC3D61B-F98C-4821-B26B-81827A7D0F36";
shapes = (
{
closed = 1;
nodes = (
(372,0,ls),
(472,0,o),
(555,36,o),
(612,97,cs),
(668,158,o),
(700,246,o),
(700,350,cs),
(700,454,o),
(668,542,o),
(611,603,cs),
(554,664,o),
(472,700,o),
(372,700,cs),
(98,700,l),
(98,0,l)
);
},
{
closed = 1;
nodes = (
(206,605,l),
(200,596,l),
(367,596,ls),
(438,596,o),
(492,573,o),
(531,530,cs),
(570,487,o),
(590,426,o),
(590,350,cs),
(590,274,o),
(570,212,o),
(532,170,cs),
(494,128,o),
(438,104,o),
(367,104,cs),
(203,104,l),
(206,93,l)
);
}
);
width = 748;
},
{
layerId = "A90C822B-E05B-4C1D-A0F8-AEE47565E770";
shapes = (
{
closed = 1;
nodes = (
(357,0,ls),
(442,0,o),
(524,38,o),
(584,100,cs),
(644,162,o),
(682,250,o),
(682,350,cs),
(682,451,o),
(644,540,o),
(584,602,cs),
(524,664,o),
(442,700,o),
(357,700,cs),
(110,700,l),
(110,0,l)
);
},
{
closed = 1;
nodes = (
(132,689,l),
(121,678,l),
(352,678,ls),
(432,678,o),
(509,643,o),
(566,584,cs),
(622,525,o),
(659,443,o),
(659,350,cs),
(659,258,o),
(622,176,o),
(566,117,cs),
(509,57,o),
(432,22,o),
(352,22,cs),
(122,22,l),
(132,13,l)
);
}
);
width = 737;
}
);
leftKerningGroup = B;
rightKerningGroup = D;
unicode = 68;
},
{
glyphname = E;
layers = (
{
layerId = "32C70213-2585-4D1B-95B0-B141A53AEEAA";
shapes = (
{
closed = 1;
nodes = (
(621,0,l),
(621,175,l),
(287,175,l),
(287,525,l),
(603,525,l),
(603,700,l),
(80,700,l),
(80,0,l)
);
},
{
closed = 1;
nodes = (
(566,272,l),
(566,436,l),
(183,436,l),
(183,272,l)
);
}
);
width = 668;
},
{
layerId = "CCC3D61B-F98C-4821-B26B-81827A7D0F36";
shapes = (
{
closed = 1;
nodes = (
(539,0,l),
(539,104,l),
(206,104,l),
(206,596,l),
(539,596,l),
(539,700,l),
(98,700,l),
(98,0,l)
);
},
{
closed = 1;
nodes = (
(484,307,l),
(484,411,l),
(147,411,l),
(147,307,l)
);
}
);
width = 614;
},
{
layerId = "A90C822B-E05B-4C1D-A0F8-AEE47565E770";
shapes = (
{
closed = 1;
nodes = (
(495,0,l),
(495,22,l),
(132,22,l),
(132,678,l),
(501,678,l),
(501,700,l),
(110,700,l),
(110,0,l)
);
},
{
closed = 1;
nodes = (
(443,351,l),
(443,373,l),
(123,373,l),
(123,351,l)
);
}
);
width = 566;
}
);
leftKerningGroup = B;
rightKerningGroup = E;
unicode = 69;
},
{
glyphname = F;
layers = (
{
layerId = "32C70213-2585-4D1B-95B0-B141A53AEEAA";
shapes = (
{
closed = 1;
nodes = (
(296,0,l),
(296,700,l),
(80,700,l),
(80,0,l)
);
},
{
closed = 1;
nodes = (
(546,246,l),
(546,416,l),
(183,416,l),
(183,246,l)
);
},
{
closed = 1;
nodes = (
(583,516,l),
(583,700,l),
(183,700,l),
(183,516,l)
);
}
);
width = 630;
},
{
layerId = "CCC3D61B-F98C-4821-B26B-81827A7D0F36";
shapes = (
{
closed = 1;
nodes = (
(206,0,l),
(206,700,l),
(98,700,l),
(98,0,l)
);
},
{
closed = 1;
nodes = (
(507,298,l),
(507,402,l),
(146,402,l),
(146,298,l)
);
},
{
closed = 1;
nodes = (
(552,596,l),
(552,700,l),
(146,700,l),
(146,596,l)
);
}
);
width = 602;
},
{
layerId = "A90C822B-E05B-4C1D-A0F8-AEE47565E770";
shapes = (
{
closed = 1;
nodes = (
(132,0,l),
(132,700,l),
(110,700,l),
(110,0,l)
);
},
{
closed = 1;
nodes = (
(444,341,l),
(444,363,l),
(122,363,l),
(122,341,l)
);
},
{
closed = 1;
nodes = (
(501,678,l),
(501,700,l),
(123,700,l),
(123,678,l)
);
}
);
width = 575;
}
);
leftKerningGroup = B;
unicode = 70;
},
{
glyphname = G;
layers = (
{
layerId = "32C70213-2585-4D1B-95B0-B141A53AEEAA";
shapes = (
{
closed = 1;
nodes = (
(513,-10,o),
(597,22,o),
(657,77,cs),
(717,132,o),
(753,210,o),
(753,299,cs),
(753,308,o),
(752,333,o),
(752,357,c),
(751,381,o),
(749,406,o),
(748,418,c),
(404,418,l),
(404,266,l),
(582,266,l),
(554,314,l),
(554,285,ls),
(554,253,o),
(541,225,o),
(521,206,cs),
(500,186,o),
(471,174,o),
(436,174,cs),
(385,174,o),
(342,193,o),
(311,225,cs),
(280,257,o),
(262,303,o),
(262,355,cs),
(262,407,o),
(280,453,o),
(309,485,cs),
(338,517,o),
(379,536,o),
(427,536,cs),
(499,536,o),
(544,508,o),
(584,471,c),
(712,607,l),
(681,639,o),
(641,667,o),
(594,688,cs),
(546,708,o),
(490,720,o),
(430,720,cs),
(313,720,o),
(215,682,o),
(147,617,cs),
(79,552,o),
(40,462,o),
(40,355,cs),
(40,250,o),
(73,158,o),
(137,93,cs),
(201,28,o),
(294,-10,o),
(414,-10,cs)
);
}
);
width = 793;
},
{
layerId = "CCC3D61B-F98C-4821-B26B-81827A7D0F36";
shapes = (
{
closed = 1;
nodes = (
(499,-10,o),
(577,22,o),
(633,76,cs),
(689,130,o),
(723,207,o),
(723,299,cs),
(723,308,o),
(723,318,o),
(722,328,cs),
(721,338,o),
(721,347,o),
(718,359,c),
(408,359,l),
(408,252,l),
(622,252,l),
(607,266,l),
(607,246,ls),
(607,205,o),
(585,166,o),
(550,139,cs),
(515,112,o),
(466,95,o),
(414,95,cs),
(345,95,o),
(280,123,o),
(234,170,cs),
(188,217,o),
(158,281,o),
(158,350,cs),
(158,422,o),
(186,484,o),
(231,529,cs),
(275,574,o),
(338,601,o),
(410,601,cs),
(478,601,o),
(542,571,o),
(602,514,c),
(672,587,l),
(647,623,o),
(608,652,o),
(562,673,cs),
(516,694,o),
(463,706,o),
(410,706,cs),
(309,706,o),
(217,667,o),
(153,603,cs),
(88,539,o),
(48,450,o),
(48,350,cs),
(48,249,o),
(88,158,o),
(153,94,cs),
(218,29,o),
(310,-10,o),
(411,-10,cs)
);
}
);
width = 766;
},
{
layerId = "A90C822B-E05B-4C1D-A0F8-AEE47565E770";
shapes = (
{
closed = 1;
nodes = (
(500,-10,o),
(580,20,o),
(636,79,cs),
(691,138,o),
(722,226,o),
(722,339,cs),
(722,342,o),
(722,342,o),
(722,346,cs),
(722,349,o),
(722,353,o),
(722,358,c),
(409,358,l),
(409,336,l),
(705,336,l),
(699,341,l),
(699,322,ls),
(699,230,o),
(673,153,o),
(622,98,cs),
(570,43,o),
(496,12,o),
(400,12,cs),
(308,12,o),
(227,47,o),
(170,106,cs),
(113,165,o),
(78,249,o),
(78,346,cs),
(78,445,o),
(112,530,o),
(169,591,cs),
(226,652,o),
(307,688,o),
(399,688,cs),
(504,688,o),
(594,640,o),
(651,564,c),
(668,580,l),
(636,620,o),
(597,652,o),
(552,675,cs),
(507,698,o),
(455,710,o),
(399,710,cs),
(299,710,o),
(212,672,o),
(152,608,cs),
(91,543,o),
(55,453,o),
(55,346,cs),
(55,242,o),
(91,153,o),
(152,90,cs),
(213,26,o),
(300,-10,o),
(400,-10,cs)
);
}
);
width = 767;
}
);
leftKerningGroup = C;
rightKerningGroup = G;
unicode = 71;
},
{
glyphname = H;
layers = (
{
layerId = "32C70213-2585-4D1B-95B0-B141A53AEEAA";
shapes = (
{
closed = 1;
nodes = (
(713,0,l),
(713,700,l),
(497,700,l),
(497,0,l)
);
},
{
closed = 1;
nodes = (
(296,0,l),
(296,700,l),
(80,700,l),
(80,0,l)
);
},
{
closed = 1;
nodes = (
(619,255,l),
(619,443,l),
(162,443,l),
(161,255,l)
);
}
);
width = 793;
},
{
layerId = "CCC3D61B-F98C-4821-B26B-81827A7D0F36";
shapes = (
{
closed = 1;
nodes = (
(663,0,l),
(663,700,l),
(555,700,l),
(555,0,l)
);
},
{
closed = 1;
nodes = (
(206,0,l),
(206,700,l),
(98,700,l),
(98,0,l)
);
},
{
closed = 1;
nodes = (
(603,297,l),
(603,401,l),
(145,401,l),
(145,297,l)
);
}
);
width = 761;
},
{
layerId = "A90C822B-E05B-4C1D-A0F8-AEE47565E770";
shapes = (
{
closed = 1;
nodes = (
(621,0,l),
(621,700,l),
(599,700,l),
(599,0,l)
);
},
{
closed = 1;
nodes = (
(132,0,l),
(132,700,l),
(110,700,l),
(110,0,l)
);
},
{
closed = 1;
nodes = (
(610,338,l),
(610,360,l),
(121,360,l),
(121,338,l)
);
}
);
width = 732;
}
);
leftKerningGroup = B;
unicode = 72;
},
{
glyphname = K;
layers = (
{
layerId = "32C70213-2585-4D1B-95B0-B141A53AEEAA";
shapes = (
{
closed = 1;
nodes = (
(735,700,l),
(490,700,l),
(157,359,l),
(230,199,l)
);
},
{
closed = 1;
nodes = (
(296,0,l),
(296,700,l),
(80,700,l),
(80,0,l)
);
},
{
closed = 1;
nodes = (
(764,0,l),
(405,452,l),
(265,331,l),
(519,0,l)
);
}
);
width = 744;
},
{
layerId = "CCC3D61B-F98C-4821-B26B-81827A7D0F36";
shapes = (
{
closed = 1;
nodes = (
(691,700,l),
(549,700,l),
(182,333,l),
(188,212,l)
);
},
{
closed = 1;
nodes = (
(206,0,l),
(206,700,l),
(98,700,l),
(98,0,l)
);
},
{
closed = 1;
nodes = (
(697,0,l),
(374,427,l),
(294,358,l),
(562,0,l)
);
}
);
width = 732;
},
{
layerId = "A90C822B-E05B-4C1D-A0F8-AEE47565E770";
shapes = (
{
closed = 1;
nodes = (
(598,700,l),
(566,700,l),
(120,265,l),
(120,234,l)
);
},
{
closed = 1;
nodes = (
(132,0,l),
(132,700,l),
(110,700,l),
(110,0,l)
);
},
{
closed = 1;
nodes = (
(616,0,l),
(299,420,l),
(282,404,l),
(587,0,l)
);
}
);
width = 636;
}
);
leftKerningGroup = B;
rightKerningGroup = K;
unicode = 75;
},
{
glyphname = L;
layers = (
{
layerId = "32C70213-2585-4D1B-95B0-B141A53AEEAA";
shapes = (
{
closed = 1;
nodes = (
(596,0,l),
(596,184,l),
(296,184,l),
(296,700,l),
(80,700,l),
(80,0,l)
);
}
);
width = 616;
},
{
layerId = "CCC3D61B-F98C-4821-B26B-81827A7D0F36";
shapes = (
{
closed = 1;
nodes = (
(534,0,l),
(534,104,l),
(206,104,l),
(206,700,l),
(98,700,l),
(98,0,l)
);
}
);
width = 599;
},
{
layerId = "A90C822B-E05B-4C1D-A0F8-AEE47565E770";
shapes = (
{
closed = 1;
nodes = (
(483,0,l),
(483,22,l),
(132,22,l),
(132,700,l),
(110,700,l),
(110,0,l)
);
}
);
width = 533;
}
);
leftKerningGroup = B;
rightKerningGroup = L;
unicode = 76;
},
{
glyphname = M;
layers = (
{
layerId = "32C70213-2585-4D1B-95B0-B141A53AEEAA";
shapes = (
{
closed = 1;
nodes = (
(288,0,l),
(288,167,ls),
(288,232,o),
(287,288,o),
(284,335,cs),
(281,382,o),
(275,427,o),
(268,472,c),
(243,409,l),
(409,147,l),
(475,147,l),
(644,409,l),
(620,472,l),
(605,376,o),
(600,288,o),
(600,167,cs),
(600,0,l),
(808,0,l),
(808,700,l),
(628,700,l),
(370,286,l),
(521,285,l),
(266,700,l),
(80,700,l),
(80,0,l)
);
}
);
width = 888;
},
{
layerId = "CCC3D61B-F98C-4821-B26B-81827A7D0F36";
shapes = (
{
closed = 1;
nodes = (
(206,0,l),
(206,287,ls),
(206,352,o),
(205,408,o),
(202,455,cs),
(199,502,o),
(193,547,o),
(186,592,c),
(175,551,l),
(397,201,l),
(463,201,l),
(692,555,l),
(678,592,l),
(663,496,o),
(658,408,o),
(658,287,cs),
(658,0,l),
(766,0,l),
(766,700,l),
(666,700,l),
(408,286,l),
(459,285,l),
(204,700,l),
(98,700,l),
(98,0,l)
);
}
);
width = 864;
},
{
layerId = "A90C822B-E05B-4C1D-A0F8-AEE47565E770";
shapes = (
{
closed = 1;
nodes = (
(132,0,l),
(132,545,ls),
(132,570,o),
(132,594,o),
(132,617,c),
(131,640,o),
(130,662,o),
(129,684,c),
(119,672,l),
(412,204,l),
(427,204,l),
(725,679,l),
(709,684,l),
(706,637,o),
(706,590,o),
(706,543,cs),
(706,0,l),
(728,0,l),
(728,700,l),
(711,700,l),
(418,232,l),
(421,232,l),
(127,700,l),
(110,700,l),
(110,0,l)
);
}
);
width = 839;
}
);
leftKerningGroup = B;
unicode = 77;
},
{
glyphname = N;
layers = (
{
layerId = "32C70213-2585-4D1B-95B0-B141A53AEEAA";
shapes = (
{
closed = 1;
nodes = (
(288,0,l),
(288,191,ls),
(288,252,o),
(287,291,o),
(284,329,cs),
(281,367,o),
(276,405,o),
(268,466,c),
(187,490,l),
(542,0,l),
(737,0,l),
(737,700,l),
(529,700,l),
(529,570,ls),
(529,503,o),
(529,462,o),
(533,420,cs),
(536,378,o),
(541,336,o),
(549,269,c),
(595,255,l),
(273,700,l),
(80,700,l),
(80,0,l)
);
}
);
width = 817;
},
{
layerId = "CCC3D61B-F98C-4821-B26B-81827A7D0F36";
shapes = (
{
closed = 1;
nodes = (
(206,0,l),
(206,291,ls),
(206,306,o),
(206,324,o),
(203,364,cs),
(200,404,o),
(195,465,o),
(186,566,c),
(175,552,l),
(596,0,l),
(695,0,l),
(695,700,l),
(587,700,l),
(587,470,ls),
(587,397,o),
(589,329,o),
(593,270,cs),
(596,211,o),
(600,159,o),
(607,118,c),
(623,127,l),
(195,700,l),
(98,700,l),
(98,0,l)
);
}
);
width = 793;
},
{
layerId = "A90C822B-E05B-4C1D-A0F8-AEE47565E770";
shapes = (
{
closed = 1;
nodes = (
(132,0,l),
(132,470,ls),
(132,506,o),
(132,552,o),
(132,593,c),
(131,634,o),
(130,670,o),
(130,686,c),
(115,686,l),
(600,0,l),
(620,0,l),
(620,700,l),
(598,700,l),
(598,241,ls),
(598,166,o),
(598,122,o),
(599,91,c),
(599,60,o),
(600,46,o),
(601,31,c),
(605,31,l),
(132,700,l),
(110,700,l),
(110,0,l)
);
}
);
width = 731;
}
);
leftKerningGroup = B;
unicode = 78;
},
{
glyphname = O;
layers = (
{
layerId = "32C70213-2585-4D1B-95B0-B141A53AEEAA";
shapes = (
{
closed = 1;
nodes = (
(528,-10,o),
(621,28,o),
(688,93,cs),
(755,158,o),
(794,250,o),
(794,355,cs),
(794,462,o),
(755,552,o),
(688,617,cs),
(621,682,o),
(528,720,o),
(417,720,cs),
(308,720,o),
(213,682,o),
(146,617,cs),
(79,552,o),
(40,462,o),
(40,355,cs),
(40,250,o),
(79,158,o),
(146,93,cs),
(213,28,o),
(308,-10,o),
(417,-10,cs)
);
},
{
closed = 1;
nodes = (
(372,190,o),
(332,208,o),
(304,237,cs),
(276,265,o),
(260,307,o),
(260,355,cs),
(260,403,o),
(276,445,o),
(304,474,cs),
(332,502,o),
(372,520,o),
(417,520,cs),
(462,520,o),
(502,502,o),
(530,474,cs),
(558,445,o),
(574,403,o),
(574,355,cs),
(574,307,o),
(558,265,o),
(530,237,cs),
(502,208,o),
(462,190,o),
(417,190,cs)
);
}
);
width = 834;
},
{
layerId = "CCC3D61B-F98C-4821-B26B-81827A7D0F36";
shapes = (
{
closed = 1;
nodes = (
(490,-10,o),
(576,29,o),
(637,93,cs),
(697,157,o),
(734,247,o),
(734,350,cs),
(734,453,o),
(697,543,o),
(637,607,cs),
(576,671,o),
(490,710,o),
(391,710,cs),
(292,710,o),
(206,672,o),
(146,608,cs),
(85,544,o),
(48,454,o),
(48,350,cs),
(48,246,o),
(85,156,o),
(146,92,cs),
(206,28,o),
(292,-10,o),
(391,-10,cs)
);
},
{
closed = 1;
nodes = (
(323,95,o),
(264,122,o),
(224,167,cs),
(183,212,o),
(158,277,o),
(158,350,cs),
(158,425,o),
(183,488,o),
(224,533,cs),
(264,578,o),
(323,605,o),
(391,605,cs),
(459,605,o),
(517,578,o),
(558,533,cs),
(599,488,o),
(624,423,o),
(624,350,cs),
(624,277,o),
(599,212,o),
(558,167,cs),
(517,122,o),
(459,95,o),
(391,95,cs)
);
}
);
width = 782;
},
{
layerId = "A90C822B-E05B-4C1D-A0F8-AEE47565E770";
shapes = (
{
closed = 1;
nodes = (
(499,-10,o),
(586,27,o),
(647,91,cs),
(707,154,o),
(743,243,o),
(743,350,cs),
(743,455,o),
(707,545,o),
(647,609,cs),
(586,673,o),
(499,710,o),
(399,710,cs),
(299,710,o),
(212,673,o),
(152,609,cs),
(91,545,o),
(55,454,o),
(55,349,cs),
(55,244,o),
(91,154,o),
(152,91,cs),
(212,27,o),
(299,-10,o),
(399,-10,cs)
);
},
{
closed = 1;
nodes = (
(307,12,o),
(226,47,o),
(169,107,cs),
(112,167,o),
(78,252,o),
(78,349,cs),
(78,448,o),
(112,532,o),
(169,592,cs),
(226,652,o),
(307,688,o),
(399,688,cs),
(492,688,o),
(573,652,o),
(630,592,cs),
(686,532,o),
(720,447,o),
(720,350,cs),
(720,251,o),
(686,167,o),
(630,107,cs),
(573,47,o),
(492,12,o),
(399,12,cs)
);
}
);
width = 798;
}
);
leftKerningGroup = C;
rightKerningGroup = D;
unicode = 79;
},
{
glyphname = P;
layers = (
{
layerId = "32C70213-2585-4D1B-95B0-B141A53AEEAA";
shapes = (
{
closed = 1;
nodes = (
(296,0,l),
(296,208,l),
(395,208,ls),
(467,208,o),
(529,234,o),
(573,279,cs),
(617,323,o),
(643,387,o),
(643,460,cs),
(643,531,o),
(617,591,o),
(573,633,cs),
(529,675,o),
(467,700,o),
(395,700,cs),
(80,700,l),
(80,0,l)
);
},
{
closed = 1;
nodes = (
(292,516,l),
(355,516,ls),
(375,516,o),
(391,512,o),
(403,502,cs),
(414,492,o),
(421,476,o),
(421,456,cs),
(421,436,o),
(414,420,o),
(403,409,cs),
(391,397,o),
(375,392,o),
(355,392,cs),
(292,392,l)
);
}
);
width = 683;
},
{
layerId = "CCC3D61B-F98C-4821-B26B-81827A7D0F36";
shapes = (
{
closed = 1;
nodes = (
(206,0,l),
(206,268,l),
(383,268,ls),
(439,268,o),
(491,292,o),
(528,332,cs),
(565,371,o),
(589,425,o),
(589,485,cs),
(589,545,o),
(565,598,o),
(528,638,cs),
(491,677,o),
(439,700,o),
(383,700,cs),
(98,700,l),
(98,0,l)
);
},
{
closed = 1;
nodes = (
(206,596,l),
(381,596,ls),
(408,596,o),
(432,583,o),
(450,563,cs),
(468,543,o),
(479,516,o),
(479,485,cs),
(479,454,o),
(468,426,o),
(450,406,cs),
(432,385,o),
(408,372,o),
(381,372,cs),
(206,372,l)
);
}
);
width = 634;
},
{
layerId = "A90C822B-E05B-4C1D-A0F8-AEE47565E770";
shapes = (
{
closed = 1;
nodes = (
(132,0,l),
(132,291,l),
(361,291,ls),
(417,291,o),
(463,314,o),
(495,352,cs),
(527,390,o),
(545,443,o),
(545,507,cs),
(545,564,o),
(527,613,o),
(495,647,cs),
(463,681,o),
(417,700,o),
(361,700,cs),
(110,700,l),
(110,0,l)
);
},
{
closed = 1;
nodes = (
(132,678,l),
(367,678,ls),
(414,678,o),
(452,661,o),
(480,630,cs),
(507,599,o),
(522,558,o),
(522,507,cs),
(522,450,o),
(507,401,o),
(480,367,cs),
(452,333,o),
(414,313,o),
(367,313,cs),
(132,313,l)
);
}
);
width = 600;
}
);
leftKerningGroup = B;
rightKerningGroup = P;
unicode = 80;
},
{
glyphname = Q;
layers = (
{
layerId = "32C70213-2585-4D1B-95B0-B141A53AEEAA";
shapes = (
{
closed = 1;
nodes = (
(631,-10,o),
(794,137,o),
(794,355,cs),
(794,573,o),
(631,720,o),
(417,720,cs),
(203,720,o),
(40,573,o),
(40,355,cs),
(40,137,o),
(203,-10,o),
(417,-10,cs)
);
},
{
closed = 1;
nodes = (
(322,190,o),
(260,263,o),
(260,355,cs),
(260,448,o),
(322,520,o),
(417,520,cs),
(512,520,o),
(574,448,o),
(574,355,cs),
(574,263,o),
(512,190,o),
(417,190,cs)
);
},
{
closed = 1;
nodes = (
(417,-10,l),
(448,-10,o),
(493,-9,o),
(537,-5,cs),
(583,-1,o),
(628,0,o),
(661,0,cs),
(843,0,l),
(843,175,l),
(810,175,ls),
(688,175,o),
(502,139,o),
(417,110,c)
);
}
);
width = 863;
},
{
layerId = "CCC3D61B-F98C-4821-B26B-81827A7D0F36";
shapes = (
{
closed = 1;
nodes = (
(617,-10,o),
(766,142,o),
(766,352,cs),
(766,562,o),
(617,714,o),
(407,714,cs),
(197,714,o),
(48,561,o),
(48,352,cs),
(48,143,o),
(196,-10,o),
(407,-10,cs)
);
},
{
closed = 1;
nodes = (
(258,91,o),
(159,207,o),
(159,352,cs),
(159,497,o),
(258,613,o),
(407,613,cs),
(557,613,o),
(655,497,o),
(655,352,cs),
(655,206,o),
(558,91,o),
(408,91,cs)
);
},
{
closed = 1;
nodes = (
(407,-10,l),
(445,-10,o),
(483,-9,o),
(521,-5,cs),
(558,-1,o),
(596,0,o),
(634,0,cs),
(809,0,l),
(809,107,l),
(730,107,ls),
(612,107,o),
(483,83,o),
(407,48,c)
);
}
);
width = 827;
},
{
layerId = "A90C822B-E05B-4C1D-A0F8-AEE47565E770";
shapes = (
{
closed = 1;
nodes = (
(607,-10,o),
(743,146,o),
(743,350,cs),
(743,553,o),
(609,710,o),
(400,710,cs),
(191,710,o),
(55,552,o),
(55,349,cs),
(55,146,o),
(191,-10,o),
(399,-10,cs)
);
},
{
closed = 1;
nodes = (
(206,12,o),
(78,161,o),
(78,349,cs),
(78,536,o),
(206,688,o),
(399,688,cs),
(593,688,o),
(720,537,o),
(720,349,cs),
(720,160,o),
(593,12,o),
(399,12,cs)
);
},
{
closed = 1;
nodes = (
(399,-10,l),
(427,-10,o),
(466,-9,o),
(505,-5,cs),
(545,-1,o),
(585,0,o),
(613,0,cs),
(782,0,l),
(782,22,l),
(613,22,ls),
(551,22,o),
(430,6,o),
(399,-2,c)
);
}
);
width = 798;
}
);
leftKerningGroup = C;
rightKerningGroup = D;
unicode = 81;
},
{
glyphname = R;
layers = (
{
layerId = "32C70213-2585-4D1B-95B0-B141A53AEEAA";
shapes = (
{
closed = 1;
nodes = (
(282,0,l),
(282,233,l),
(408,233,ls),
(481,233,o),
(544,257,o),
(589,301,cs),
(633,344,o),
(659,405,o),
(659,477,cs),
(659,541,o),
(633,597,o),
(589,637,cs),
(544,677,o),
(481,700,o),
(408,700,cs),
(80,700,l),
(80,0,l)
);
},
{
closed = 1;
nodes = (
(688,0,l),
(490,341,l),
(269,316,l),
(447,0,l)
);
},
{
closed = 1;
nodes = (
(282,530,l),
(370,530,ls),
(397,530,o),
(417,524,o),
(430,512,cs),
(442,500,o),
(449,483,o),
(449,460,cs),
(449,436,o),
(442,416,o),
(430,404,cs),
(417,391,o),
(398,383,o),
(374,383,cs),
(282,383,l)
);
}
);
width = 707;
},
{
layerId = "CCC3D61B-F98C-4821-B26B-81827A7D0F36";
shapes = (
{
closed = 1;
nodes = (
(206,0,l),
(206,263,l),
(396,263,ls),
(456,263,o),
(512,288,o),
(552,327,cs),
(592,366,o),
(617,420,o),
(617,477,cs),
(617,541,o),
(592,596,o),
(552,636,cs),
(511,676,o),
(456,700,o),
(396,700,cs),
(98,700,l),
(98,0,l)
);
},
{
closed = 1;
nodes = (
(645,-1,l),
(447,341,l),
(336,316,l),
(514,0,l)
);
},
{
closed = 1;
nodes = (
(206,596,l),
(378,596,ls),
(415,596,o),
(447,584,o),
(471,563,cs),
(494,542,o),
(507,513,o),
(507,478,cs),
(507,446,o),
(497,419,o),
(479,399,cs),
(461,379,o),
(435,367,o),
(406,367,cs),
(206,367,l)
);
}
);
width = 695;
},
{
layerId = "A90C822B-E05B-4C1D-A0F8-AEE47565E770";
shapes = (
{
closed = 1;
nodes = (
(132,0,l),
(132,291,l),
(361,291,ls),
(417,291,o),
(463,314,o),
(495,352,cs),
(527,390,o),
(545,443,o),
(545,507,cs),
(545,564,o),
(527,613,o),
(495,647,cs),
(463,681,o),
(417,700,o),
(361,700,cs),
(110,700,l),
(110,0,l)
);
},
{
closed = 1;
nodes = (
(569,0,l),
(391,305,l),
(368,298,l),
(543,0,l)
);
},
{
closed = 1;
nodes = (
(132,678,l),
(367,678,ls),
(414,678,o),
(452,661,o),
(480,630,cs),
(507,599,o),
(522,558,o),
(522,507,cs),
(522,450,o),
(507,401,o),
(480,367,cs),
(452,333,o),
(414,313,o),
(367,313,cs),
(132,313,l)
);
}
);
width = 609;
}
);
leftKerningGroup = B;
rightKerningGroup = R;
unicode = 82;
},
{
glyphname = S;
layers = (
{
layerId = "32C70213-2585-4D1B-95B0-B141A53AEEAA";
shapes = (
{
closed = 1;
nodes = (
(405,-10,o),
(477,10,o),
(529,50,cs),
(580,89,o),
(612,148,o),
(612,224,cs),
(612,296,o),
(585,347,o),
(541,383,cs),
(496,419,o),
(432,442,o),
(359,455,cs),
(343,458,o),
(317,462,o),
(295,470,cs),
(273,478,o),
(254,489,o),
(254,506,cs),
(254,518,o),
(261,528,o),
(274,533,cs),
(286,538,o),
(304,541,o),
(327,541,cs),
(378,541,o),
(429,523,o),
(473,480,c),
(599,601,l),
(574,637,o),
(541,667,o),
(497,688,c),
(452,708,o),
(395,720,o),
(316,720,cs),
(244,720,o),
(174,698,o),
(122,658,cs),
(69,618,o),
(35,561,o),
(35,493,cs),
(35,372,o),
(113,303,o),
(274,266,c),
(294,262,o),
(324,256,o),
(349,248,cs),
(374,239,o),
(395,225,o),
(395,204,cs),
(395,191,o),
(389,180,o),
(378,175,cs),
(366,170,o),
(350,167,o),
(330,167,cs),
(298,167,o),
(263,172,o),
(228,188,c),
(192,203,o),
(156,229,o),
(123,272,c),
(-2,132,l),
(34,88,o),
(76,53,o),
(129,29,cs),
(182,4,o),
(245,-10,o),
(325,-10,cs)
);
}
);
width = 641;
},
{
layerId = "CCC3D61B-F98C-4821-B26B-81827A7D0F36";
shapes = (
{
closed = 1;
nodes = (
(393,-10,o),
(456,12,o),
(500,50,cs),
(544,88,o),
(569,141,o),
(569,208,cs),
(569,256,o),
(548,298,o),
(508,331,cs),
(468,364,o),
(410,389,o),
(337,405,cs),
(285,416,o),
(249,430,o),
(226,448,cs),
(202,466,o),
(193,489,o),
(193,517,cs),
(193,545,o),
(206,570,o),
(229,587,cs),
(252,603,o),
(284,613,o),
(323,613,cs),
(391,613,o),
(447,577,o),
(487,512,c),
(563,587,l),
(539,627,o),
(507,658,o),
(467,679,cs),
(427,699,o),
(381,710,o),
(326,710,cs),
(258,710,o),
(198,690,o),
(155,655,cs),
(111,619,o),
(85,570,o),
(85,514,cs),
(85,399,o),
(155,329,o),
(299,301,cs),
(355,290,o),
(395,276,o),
(422,256,cs),
(449,236,o),
(461,211,o),
(461,180,cs),
(461,152,o),
(446,129,o),
(422,113,cs),
(397,97,o),
(364,87,o),
(325,87,cs),
(284,87,o),
(250,95,o),
(218,115,cs),
(186,134,o),
(156,164,o),
(124,211,c),
(50,126,l),
(82,81,o),
(119,47,o),
(163,24,cs),
(206,1,o),
(257,-10,o),
(314,-10,cs)
);
}
);
width = 624;
},
{
layerId = "A90C822B-E05B-4C1D-A0F8-AEE47565E770";
shapes = (
{
closed = 1;
nodes = (
(367,-10,o),
(423,10,o),
(463,42,cs),
(503,74,o),
(527,120,o),
(527,172,cs),
(527,224,o),
(503,263,o),
(459,292,cs),
(415,321,o),
(352,343,o),
(272,363,cs),
(216,378,o),
(170,396,o),
(138,422,cs),
(106,448,o),
(88,481,o),
(88,526,cs),
(88,574,o),
(110,614,o),
(147,643,cs),
(183,671,o),
(235,688,o),
(292,688,cs),
(392,688,o),
(450,656,o),
(494,596,c),
(511,611,l),
(488,643,o),
(461,667,o),
(425,684,cs),
(389,701,o),
(347,710,o),
(292,710,cs),
(228,710,o),
(171,690,o),
(131,658,cs),
(90,625,o),
(65,578,o),
(65,526,cs),
(65,426,o),
(139,377,o),
(264,342,cs),
(335,322,o),
(394,303,o),
(437,278,cs),
(480,253,o),
(504,220,o),
(504,172,cs),
(504,125,o),
(482,85,o),
(446,57,cs),
(409,29,o),
(359,12,o),
(303,12,cs),
(248,12,o),
(201,22,o),
(161,42,cs),
(120,62,o),
(86,91,o),
(61,131,c),
(43,115,l),
(70,75,o),
(105,43,o),
(149,23,c),
(192,2,o),
(243,-10,o),
(303,-10,cs)
);
}
);
width = 567;
}
);
leftKerningGroup = S2;
rightKerningGroup = S;
unicode = 83;
},
{
glyphname = T;
layers = (
{
layerId = "32C70213-2585-4D1B-95B0-B141A53AEEAA";
shapes = (
{
closed = 1;
nodes = (
(462,0,l),
(462,516,l),
(684,516,l),
(684,700,l),
(30,700,l),
(30,516,l),
(246,516,l),
(246,0,l)
);
}
);
width = 714;
},
{
layerId = "CCC3D61B-F98C-4821-B26B-81827A7D0F36";
shapes = (
{
closed = 1;
nodes = (
(339,0,l),
(339,596,l),
(541,596,l),
(541,700,l),
(35,700,l),
(35,596,l),
(231,596,l),
(231,0,l)
);
}
);
width = 576;
},
{
layerId = "A90C822B-E05B-4C1D-A0F8-AEE47565E770";
shapes = (
{
closed = 1;
nodes = (
(255,0,l),
(255,678,l),
(468,678,l),
(468,700,l),
(20,700,l),
(20,678,l),
(233,678,l),
(233,0,l)
);
}
);
width = 488;
}
);
leftKerningGroup = T2;
rightKerningGroup = T;
unicode = 84;
},
{
glyphname = U;
layers = (
{
layerId = "32C70213-2585-4D1B-95B0-B141A53AEEAA";
shapes = (
{
closed = 1;
nodes = (
(483,-6,o),
(560,23,o),
(616,72,cs),
(671,120,o),
(704,189,o),
(704,269,cs),
(704,700,l),
(491,700,l),
(491,278,ls),
(491,249,o),
(480,223,o),
(463,206,cs),
(446,189,o),
(420,178,o),
(392,178,cs),
(364,178,o),
(341,189,o),
(325,206,cs),
(308,223,o),
(298,249,o),
(298,278,cs),
(298,700,l),
(80,700,l),
(80,269,ls),
(80,189,o),
(113,120,o),
(169,72,cs),
(224,23,o),
(301,-6,o),
(392,-6,cs)
);
}
);
width = 784;
},
{
layerId = "CCC3D61B-F98C-4821-B26B-81827A7D0F36";
shapes = (
{
closed = 1;
nodes = (
(451,-6,o),
(523,23,o),
(573,72,cs),
(623,121,o),
(652,189,o),
(652,269,cs),
(652,701,l),
(549,701,l),
(549,278,ls),
(549,227,o),
(529,182,o),
(497,150,cs),
(465,118,o),
(421,98,o),
(370,98,cs),
(322,98,o),
(279,118,o),
(248,150,cs),
(216,182,o),
(196,227,o),
(196,278,cs),
(196,701,l),
(88,701,l),
(88,269,ls),
(88,189,o),
(118,121,o),
(168,72,cs),
(218,23,o),
(289,-6,o),
(370,-6,cs)
);
}
);
width = 740;
},
{
layerId = "A90C822B-E05B-4C1D-A0F8-AEE47565E770";
shapes = (
{
closed = 1;
nodes = (
(445,-6,o),
(512,23,o),
(559,72,cs),
(606,120,o),
(634,189,o),
(634,269,cs),
(634,700,l),
(612,700,l),
(612,278,ls),
(612,202,o),
(587,136,o),
(544,90,cs),
(501,44,o),
(440,16,o),
(368,16,cs),
(299,16,o),
(240,44,o),
(198,90,cs),
(156,136,o),
(132,202,o),
(132,278,cs),
(132,700,l),
(110,700,l),
(110,269,ls),
(110,189,o),
(137,120,o),
(183,72,cs),
(229,23,o),
(292,-6,o),
(368,-6,cs)
);
}
);
width = 744;
}
);
leftKerningGroup = U2;
rightKerningGroup = U;
unicode = 85;
},
{
glyphname = V;
layers = (
{
layerId = "32C70213-2585-4D1B-95B0-B141A53AEEAA";
shapes = (
{
closed = 1;
nodes = (
(439,0,l),
(720,700,l),
(511,700,l),
(399,394,l),
(383,353,o),
(374,326,o),
(366,299,cs),
(357,272,o),
(351,247,o),
(340,204,c),
(375,204,l),
(366,247,o),
(359,272,o),
(351,299,cs),
(343,326,o),
(334,353,o),
(318,394,c),
(206,700,l),
(-10,700,l),
(269,0,l)
);
}
);
width = 710;
},
{
layerId = "CCC3D61B-F98C-4821-B26B-81827A7D0F36";
shapes = (
{
closed = 1;
nodes = (
(409,0,l),
(691,700,l),
(565,700,l),
(410,275,ls),
(395,235,o),
(385,203,o),
(375,175,cs),
(365,147,o),
(358,122,o),
(351,98,c),
(377,99,l),
(369,123,o),
(362,146,o),
(352,174,cs),
(342,201,o),
(330,234,o),
(314,275,cs),
(147,700,l),
(24,700,l),
(304,0,l)
);
}
);
width = 715;
},
{
layerId = "A90C822B-E05B-4C1D-A0F8-AEE47565E770";
shapes = (
{
closed = 1;
nodes = (
(315,0,l),
(584,700,l),
(558,700,l),
(320,74,ls),
(313,55,o),
(307,41,o),
(303,30,cs),
(299,19,o),
(296,12,o),
(295,8,c),
(308,8,l),
(307,12,o),
(304,19,o),
(300,31,c),
(295,42,o),
(290,57,o),
(282,76,c),
(46,700,l),
(20,700,l),
(288,0,l)
);
}
);
width = 604;
}
);
unicode = 86;
},
{
glyphname = W;
layers = (
{
layerId = "32C70213-2585-4D1B-95B0-B141A53AEEAA";
shapes = (
{
closed = 1;
nodes = (
(384,0,l),
(519,446,l),
(462,446,l),
(614,0,l),
(799,0,l),
(1000,700,l),
(791,700,l),
(709,384,ls),
(692,322,o),
(690,258,o),
(690,194,c),
(705,194,l),
(705,264,o),
(686,318,o),
(668,384,cs),
(581,700,l),
(416,700,l),
(329,384,ls),
(308,307,o),
(300,274,o),
(300,194,c),
(316,194,l),
(316,257,o),
(304,323,o),
(288,384,cs),
(206,700,l),
(-10,700,l),
(189,0,l)
);
}
);
width = 990;
},
{
layerId = "CCC3D61B-F98C-4821-B26B-81827A7D0F36";
shapes = (
{
closed = 1;
nodes = (
(327,0,l),
(505,555,l),
(482,559,l),
(667,0,l),
(749,0,l),
(972,700,l),
(856,700,l),
(723,265,ls),
(708,213,o),
(697,165,o),
(688,112,c),
(714,119,l),
(702,164,o),
(693,219,o),
(680,263,cs),
(548,700,l),
(451,700,l),
(315,263,ls),
(299,213,o),
(294,161,o),
(279,110,c),
(308,109,l),
(295,159,o),
(293,213,o),
(274,262,c),
(139,700,l),
(24,700,l),
(247,0,l)
);
}
);
width = 996;
},
{
layerId = "A90C822B-E05B-4C1D-A0F8-AEE47565E770";
shapes = (
{
closed = 1;
nodes = (
(242,0,l),
(434,679,l),
(415,679,l),
(607,0,l),
(633,0,l),
(829,700,l),
(805,700,l),
(663,193,ls),
(647,133,o),
(629,74,o),
(612,15,c),
(625,15,l),
(606,76,o),
(588,140,o),
(571,202,cs),
(432,700,l),
(417,700,l),
(277,202,ls),
(260,140,o),
(243,77,o),
(224,15,c),
(236,15,l),
(218,74,o),
(202,134,o),
(186,193,cs),
(44,700,l),
(20,700,l),
(216,0,l)
);
}
);
width = 849;
}
);
leftKerningGroup = W2;
rightKerningGroup = W;
unicode = 87;
},
{
glyphname = X;
layers = (
{
layerId = "32C70213-2585-4D1B-95B0-B141A53AEEAA";
shapes = (
{
closed = 1;
nodes = (
(739,0,l),
(456,390,l),
(244,700,l),
(-15,700,l),
(263,314,l),
(480,0,l)
);
},
{
closed = 1;
nodes = (
(229,0,l),
(436,302,l),
(247,381,l),
(-20,0,l)
);
},
{
closed = 1;
nodes = (
(729,700,l),
(480,700,l),
(284,401,l),
(472,325,l)
);
}
);
width = 719;
},
{
layerId = "CCC3D61B-F98C-4821-B26B-81827A7D0F36";
shapes = (
{
closed = 1;
nodes = (
(661,0,l),
(378,390,l),
(166,700,l),
(29,700,l),
(307,314,l),
(524,0,l)
);
},
{
closed = 1;
nodes = (
(151,0,l),
(358,302,l),
(291,381,l),
(24,0,l)
);
},
{
closed = 1;
nodes = (
(651,700,l),
(524,700,l),
(328,401,l),
(394,325,l)
);
}
);
width = 685;
},
{
layerId = "A90C822B-E05B-4C1D-A0F8-AEE47565E770";
shapes = (
{
closed = 1;
nodes = (
(562,0,l),
(295,366,l),
(56,700,l),
(27,700,l),
(281,349,l),
(533,0,l)
);
},
{
closed = 1;
nodes = (
(50,0,l),
(297,350,l),
(281,363,l),
(22,0,l)
);
},
{
closed = 1;
nodes = (
(552,700,l),
(524,700,l),
(282,365,l),
(299,352,l)
);
}
);
width = 584;
}
);
unicode = 88;
},
{
glyphname = Y;
layers = (
{
layerId = "32C70213-2585-4D1B-95B0-B141A53AEEAA";
shapes = (
{
closed = 1;
nodes = (
(474,0,l),
(474,357,l),
(459,289,l),
(730,700,l),
(496,700,l),
(301,393,l),
(436,390,l),
(220,700,l),
(-20,700,l),
(263,300,l),
(256,349,l),
(256,0,l)
);
}
);
width = 710;
},
{
layerId = "CCC3D61B-F98C-4821-B26B-81827A7D0F36";
shapes = (
{
closed = 1;
nodes = (
(394,0,l),
(394,357,l),
(379,289,l),
(650,700,l),
(526,700,l),
(331,393,l),
(356,390,l),
(140,700,l),
(10,700,l),
(293,300,l),
(286,349,l),
(286,0,l)
);
}
);
width = 660;
},
{
layerId = "A90C822B-E05B-4C1D-A0F8-AEE47565E770";
shapes = (
{
closed = 1;
nodes = (
(311,0,l),
(311,339,l),
(302,300,l),
(572,700,l),
(546,700,l),
(294,327,l),
(305,327,l),
(46,700,l),
(20,700,l),
(297,300,l),
(289,339,l),
(289,0,l)
);
}
);
width = 592;
}
);
leftKerningGroup = Y2;
rightKerningGroup = Y;
unicode = 89;
},
{
glyphname = Z;
layers = (
{
layerId = "32C70213-2585-4D1B-95B0-B141A53AEEAA";
shapes = (
{
closed = 1;
nodes = (
(641,0,l),
(641,182,l),
(180,182,l),
(273,87,l),
(630,562,l),
(630,700,l),
(86,700,l),
(86,506,l),
(511,506,l),
(419,613,l),
(60,139,l),
(60,0,l)
);
}
);
width = 701;
},
{
layerId = "CCC3D61B-F98C-4821-B26B-81827A7D0F36";
shapes = (
{
closed = 1;
nodes = (
(604,0,l),
(604,104,l),
(180,104,l),
(196,87,l),
(593,622,l),
(593,700,l),
(86,700,l),
(86,596,l),
(474,596,l),
(459,613,l),
(60,79,l),
(60,0,l)
);
}
);
width = 659;
},
{
layerId = "A90C822B-E05B-4C1D-A0F8-AEE47565E770";
shapes = (
{
closed = 1;
nodes = (
(574,0,l),
(574,22,l),
(75,22,l),
(78,10,l),
(563,677,l),
(563,700,l),
(86,700,l),
(86,678,l),
(557,678,l),
(545,692,l),
(60,24,l),
(60,0,l)
);
}
);
width = 634;
}
);
leftKerningGroup = Z2;
rightKerningGroup = Z;
unicode = 90;
},
{
glyphname = bracketleft;
layers = (
{
layerId = "32C70213-2585-4D1B-95B0-B141A53AEEAA";
shapes = (
{
closed = 1;
nodes = (
(407,-190,l),
(407,-10,l),
(269,-10,l),
(279,-22,l),
(279,528,l),
(273,520,l),
(407,520,l),
(407,700,l),
(80,700,l),
(80,-190,l)
);
}
);
width = 432;
},
{
layerId = "CCC3D61B-F98C-4821-B26B-81827A7D0F36";
shapes = (
{
closed = 1;
nodes = (
(337,-190,l),
(337,-111,l),
(163,-111,l),
(173,-123,l),
(173,629,l),
(167,621,l),
(337,621,l),
(337,700,l),
(80,700,l),
(80,-190,l)
);
}
);
width = 403;
},
{
layerId = "A90C822B-E05B-4C1D-A0F8-AEE47565E770";
shapes = (
{
closed = 1;
nodes = (
(287,-190,l),
(287,-168,l),
(87,-168,l),
(98,-180,l),
(98,686,l),
(88,678,l),
(287,678,l),
(287,700,l),
(75,700,l),
(75,-190,l)
);
}
);
width = 319;
}
);
unicode = 91;
},
{
glyphname = backslash;
layers = (
{
layerId = "32C70213-2585-4D1B-95B0-B141A53AEEAA";
shapes = (
{
closed = 1;
nodes = (
(604,-107,l),
(204,700,l),
(0,700,l),
(398,-107,l)
);
}
);
width = 604;
},
{
layerId = "CCC3D61B-F98C-4821-B26B-81827A7D0F36";
shapes = (
{
closed = 1;
nodes = (
(547,-107,l),
(147,700,l),
(48,700,l),
(446,-107,l)
);
}
);
width = 557;
},
{
layerId = "A90C822B-E05B-4C1D-A0F8-AEE47565E770";
shapes = (
{
closed = 1;
nodes = (
(457,-95,l),
(63,700,l),
(37,700,l),
(431,-95,l)
);
}
);
width = 521;
}
);
unicode = 92;
},
{
glyphname = bracketright;
layers = (
{
layerId = "32C70213-2585-4D1B-95B0-B141A53AEEAA";
shapes = (
{
closed = 1;
nodes = (
(352,-190,l),
(352,700,l),
(25,700,l),
(25,520,l),
(163,520,l),
(153,532,l),
(153,-18,l),
(159,-10,l),
(25,-10,l),
(25,-190,l)
);
}
);
width = 432;
},
{
layerId = "CCC3D61B-F98C-4821-B26B-81827A7D0F36";
shapes = (
{
closed = 1;
nodes = (
(323,-190,l),
(323,700,l),
(66,700,l),
(66,621,l),
(240,621,l),
(230,633,l),
(230,-119,l),
(236,-111,l),
(66,-111,l),
(66,-190,l)
);
}
);
width = 403;
},
{
layerId = "A90C822B-E05B-4C1D-A0F8-AEE47565E770";
shapes = (
{
closed = 1;
nodes = (
(244,-190,l),
(244,700,l),
(32,700,l),
(32,678,l),
(232,678,l),
(221,690,l),
(221,-176,l),
(231,-168,l),
(32,-168,l),
(32,-190,l)
);
}
);
width = 319;
}
);
unicode = 93;
},
{
glyphname = asciicircum;
layers = (
{
layerId = "32C70213-2585-4D1B-95B0-B141A53AEEAA";
shapes = (
{
closed = 1;
nodes = (
(193,356,l),
(367,654,l),
(236,653,l),
(406,356,l),
(602,356,l),
(376,737,l),
(226,737,l),
(0,356,l)
);
}
);
width = 602;
},
{
layerId = "CCC3D61B-F98C-4821-B26B-81827A7D0F36";
shapes = (
{
closed = 1;
nodes = (
(142,368,l),
(301,636,l),
(281,633,l),
(436,368,l),
(551,368,l),
(340,727,l),
(240,727,l),
(29,368,l)
);
}
);
width = 579;
},
{
layerId = "A90C822B-E05B-4C1D-A0F8-AEE47565E770";
shapes = (
{
closed = 1;
nodes = (
(77,368,l),
(296,708,l),
(288,708,l),
(507,368,l),
(534,368,l),
(303,727,l),
(281,727,l),
(50,368,l)
);
}
);
width = 584;
}
);
unicode = 94;
},
{
glyphname = underscore;
layers = (
{
layerId = "32C70213-2585-4D1B-95B0-B141A53AEEAA";
shapes = (
{
closed = 1;
nodes = (
(654,-216,l),
(654,-46,l),
(30,-46,l),
(30,-216,l)
);
}
);
width = 684;
},
{
layerId = "CCC3D61B-F98C-4821-B26B-81827A7D0F36";
shapes = (
{
closed = 1;
nodes = (
(637,-160,l),
(637,-82,l),
(53,-82,l),
(53,-160,l)
);
}
);
width = 690;
},
{
layerId = "A90C822B-E05B-4C1D-A0F8-AEE47565E770";
shapes = (
{
closed = 1;
nodes = (
(640,-105,l),
(640,-82,l),
(56,-82,l),
(56,-105,l)
);
}
);
width = 696;
}
);
unicode = 95;
},
{
glyphname = b;
layers = (
{
layerId = "32C70213-2585-4D1B-95B0-B141A53AEEAA";
shapes = (
{
closed = 1;
nodes = (
(574,-11,o),
(649,130,o),
(649,267,cs),
(649,406,o),
(570,546,o),
(416,546,cs),
(337,546,o),
(247,501,o),
(229,418,c),
(274,404,l),
(274,740,l),
(70,740,l),
(70,0,l),
(253,0,l),
(269,118,l),
(228,109,l),
(245,25,o),
(346,-11,o),
(421,-11,cs)
);
},
{
closed = 1;
nodes = (
(293,154,o),
(269,208,o),
(269,267,cs),
(269,327,o),
(293,380,o),
(360,380,cs),
(428,380,o),
(450,327,o),
(450,267,cs),
(450,208,o),
(427,154,o),
(360,154,cs)
);
}
);
width = 679;
},
{
layerId = "CCC3D61B-F98C-4821-B26B-81827A7D0F36";
shapes = (
{
closed = 1;
nodes = (
(500,-10,o),
(590,122,o),
(590,264,cs),
(590,410,o),
(499,536,o),
(345,536,cs),
(276,536,o),
(176,487,o),
(159,414,c),
(175,405,l),
(175,740,l),
(72,740,l),
(72,3,l),
(175,3,l),
(175,131,l),
(149,117,l),
(168,42,o),
(276,-10,o),
(348,-10,cs)
);
},
{
closed = 1;
nodes = (
(230,84,o),
(170,169,o),
(170,264,cs),
(170,359,o),
(231,442,o),
(331,442,cs),
(432,442,o),
(491,359,o),
(491,264,cs),
(491,169,o),
(432,84,o),
(331,84,cs)
);
}
);
width = 630;
},
{
layerId = "A90C822B-E05B-4C1D-A0F8-AEE47565E770";
shapes = (
{
closed = 1;
nodes = (
(461,-10,o),
(562,120,o),
(562,262,cs),
(562,411,o),
(462,530,o),
(308,530,cs),
(199,530,o),
(108,449,o),
(83,345,c),
(92,348,l),
(92,740,l),
(70,740,l),
(70,0,l),
(90,0,l),
(92,167,l),
(86,170,l),
(104,65,o),
(208,-10,o),
(312,-10,cs)
);
},
{
closed = 1;
nodes = (
(173,12,o),
(92,131,o),
(92,260,cs),
(92,388,o),
(171,508,o),
(309,508,cs),
(450,508,o),
(540,398,o),
(540,262,cs),
(540,126,o),
(453,12,o),
(311,12,cs)
);
}
);
width = 602;
}
);
leftKerningGroup = b2;
rightKerningGroup = b;
unicode = 98;
},
{
glyphname = c;
layers = (
{
layerId = "32C70213-2585-4D1B-95B0-B141A53AEEAA";
shapes = (
{
closed = 1;
nodes = (
(359,-10,o),
(404,-3,o),
(444,12,cs),
(484,27,o),
(518,47,o),
(542,75,c),
(433,206,l),
(410,181,o),
(378,164,o),
(329,164,cs),
(297,164,o),
(273,175,o),
(256,194,cs),
(239,213,o),
(230,240,o),
(230,269,cs),
(230,300,o),
(240,325,o),
(257,344,cs),
(274,363,o),
(300,373,o),
(329,373,cs),
(353,373,o),
(374,368,o),
(391,361,cs),
(408,353,o),
(421,342,o),
(433,330,c),
(543,460,l),
(492,516,o),
(407,546,o),
(311,546,cs),
(230,546,o),
(160,516,o),
(110,467,cs),
(60,418,o),
(30,348,o),
(30,268,cs),
(30,188,o),
(60,118,o),
(110,69,cs),
(160,20,o),
(230,-10,o),
(311,-10,cs)
);
}
);
width = 553;
},
{
layerId = "CCC3D61B-F98C-4821-B26B-81827A7D0F36";
shapes = (
{
closed = 1;
nodes = (
(338,-10,o),
(381,0,o),
(419,19,cs),
(457,38,o),
(489,64,o),
(510,93,c),
(453,163,l),
(410,111,o),
(359,83,o),
(306,83,cs),
(261,83,o),
(218,103,o),
(188,135,cs),
(158,167,o),
(138,212,o),
(138,263,cs),
(138,315,o),
(156,360,o),
(186,392,cs),
(216,424,o),
(257,443,o),
(305,443,cs),
(332,443,o),
(361,434,o),
(387,419,cs),
(413,404,o),
(437,384,o),
(453,360,c),
(510,430,l),
(470,495,o),
(388,536,o),
(295,536,cs),
(223,536,o),
(158,506,o),
(113,458,cs),
(68,409,o),
(40,340,o),
(40,263,cs),
(40,186,o),
(68,117,o),
(113,69,cs),
(158,20,o),
(223,-10,o),
(295,-10,cs)
);
}
);
width = 535;
},
{
layerId = "A90C822B-E05B-4C1D-A0F8-AEE47565E770";
shapes = (
{
closed = 1;
nodes = (
(347,-10,o),
(385,-2,o),
(418,14,cs),
(451,29,o),
(480,50,o),
(504,77,c),
(488,93,l),
(444,42,o),
(381,12,o),
(306,12,cs),
(235,12,o),
(174,38,o),
(131,83,cs),
(88,127,o),
(62,190,o),
(62,263,cs),
(62,335,o),
(88,396,o),
(132,440,cs),
(175,483,o),
(235,508,o),
(306,508,cs),
(345,508,o),
(378,501,o),
(410,487,cs),
(441,473,o),
(467,451,o),
(490,426,c),
(506,443,l),
(459,498,o),
(390,530,o),
(306,530,cs),
(229,530,o),
(162,503,o),
(115,456,cs),
(67,408,o),
(40,342,o),
(40,263,cs),
(40,183,o),
(67,115,o),
(115,67,cs),
(162,19,o),
(229,-10,o),
(306,-10,cs)
);
}
);
width = 526;
}
);
leftKerningGroup = a2;
rightKerningGroup = c;
unicode = 99;
},
{
glyphname = d;
layers = (
{
layerId = "32C70213-2585-4D1B-95B0-B141A53AEEAA";
shapes = (
{
closed = 1;
nodes = (
(334,-11,o),
(434,24,o),
(451,109,c),
(410,118,l),
(426,0,l),
(609,0,l),
(609,740,l),
(405,740,l),
(405,404,l),
(450,418,l),
(432,501,o),
(342,546,o),
(263,546,cs),
(110,546,o),
(30,405,o),
(30,267,cs),
(30,131,o),
(106,-11,o),
(258,-11,cs)
);
},
{
closed = 1;
nodes = (
(253,154,o),
(229,209,o),
(229,267,cs),
(229,326,o),
(252,380,o),
(319,380,cs),
(387,380,o),
(410,328,o),
(410,267,cs),
(410,207,o),
(387,154,o),
(319,154,cs)
);
}
);
width = 669;
},
{
layerId = "CCC3D61B-F98C-4821-B26B-81827A7D0F36";
shapes = (
{
closed = 1;
nodes = (
(360,-10,o),
(481,43,o),
(481,125,c),
(461,125,l),
(461,0,l),
(564,0,l),
(564,740,l),
(461,740,l),
(461,389,l),
(491,391,l),
(491,481,o),
(363,536,o),
(288,536,cs),
(135,536,o),
(40,408,o),
(40,263,cs),
(40,117,o),
(138,-10,o),
(291,-10,cs)
);
},
{
closed = 1;
nodes = (
(202,79,o),
(145,168,o),
(145,263,cs),
(145,359,o),
(201,447,o),
(305,447,cs),
(409,447,o),
(465,359,o),
(465,263,cs),
(465,168,o),
(408,79,o),
(305,79,cs)
);
}
);
width = 634;
},
{
layerId = "A90C822B-E05B-4C1D-A0F8-AEE47565E770";
shapes = (
{
closed = 1;
nodes = (
(404,-10,o),
(493,70,o),
(519,175,c),
(510,172,l),
(510,0,l),
(532,0,l),
(532,740,l),
(510,740,l),
(510,353,l),
(516,350,l),
(498,455,o),
(394,530,o),
(290,530,cs),
(141,530,o),
(40,400,o),
(40,258,cs),
(40,110,o),
(141,-10,o),
(294,-10,cs)
);
},
{
closed = 1;
nodes = (
(153,12,o),
(62,122,o),
(62,258,cs),
(62,394,o),
(148,508,o),
(291,508,cs),
(430,508,o),
(510,389,o),
(510,260,cs),
(510,131,o),
(432,12,o),
(293,12,cs)
);
}
);
width = 604;
}
);
leftKerningGroup = a2;
rightKerningGroup = d;
unicode = 100;
},
{
glyphname = e;
layers = (
{
layerId = "32C70213-2585-4D1B-95B0-B141A53AEEAA";
shapes = (
{
closed = 1;
nodes = (
(365,-10,o),
(400,-5,o),
(434,6,cs),
(468,17,o),
(504,36,o),
(542,65,c),
(449,196,l),
(417,173,o),
(392,164,o),
(352,164,cs),
(307,164,o),
(273,176,o),
(250,197,cs),
(226,218,o),
(215,248,o),
(215,284,cs),
(215,315,o),
(223,340,o),
(238,357,cs),
(253,373,o),
(276,383,o),
(305,383,cs),
(329,383,o),
(348,377,o),
(361,366,c),
(373,354,o),
(381,339,o),
(381,319,cs),
(381,301,l),
(400,321,l),
(119,321,l),
(142,226,l),
(561,226,l),
(562,268,ls),
(565,348,o),
(538,418,o),
(492,467,cs),
(446,516,o),
(380,546,o),
(301,546,cs),
(222,546,o),
(155,516,o),
(107,467,cs),
(59,418,o),
(30,348,o),
(30,268,cs),
(30,188,o),
(58,118,o),
(110,69,cs),
(161,20,o),
(236,-10,o),
(329,-10,cs)
);
}
);
width = 586;
},
{
layerId = "CCC3D61B-F98C-4821-B26B-81827A7D0F36";
shapes = (
{
closed = 1;
nodes = (
(354,-10,o),
(392,-2,o),
(430,13,cs),
(468,28,o),
(499,48,o),
(524,71,c),
(472,144,l),
(420,99,o),
(379,84,o),
(327,84,cs),
(271,84,o),
(225,102,o),
(193,134,cs),
(161,165,o),
(142,209,o),
(142,264,cs),
(142,323,o),
(157,367,o),
(185,397,cs),
(213,427,o),
(255,442,o),
(308,442,cs),
(343,442,o),
(373,429,o),
(397,409,cs),
(421,388,o),
(437,359,o),
(441,327,c),
(441,303,l),
(456,320,l),
(93,320,l),
(116,238,l),
(545,238,l),
(546,282,ls),
(547,355,o),
(522,419,o),
(479,464,cs),
(436,509,o),
(376,537,o),
(308,537,cs),
(231,537,o),
(163,507,o),
(116,459,cs),
(68,410,o),
(40,340,o),
(40,257,cs),
(40,180,o),
(69,112,o),
(118,65,cs),
(166,18,o),
(236,-10,o),
(317,-10,cs)
);
}
);
width = 586;
},
{
layerId = "A90C822B-E05B-4C1D-A0F8-AEE47565E770";
shapes = (
{
closed = 1;
nodes = (
(335,-10,o),
(370,-3,o),
(401,11,cs),
(432,24,o),
(459,42,o),
(484,65,c),
(472,83,l),
(425,39,o),
(366,12,o),
(297,12,cs),
(229,12,o),
(171,38,o),
(129,83,cs),
(87,127,o),
(62,190,o),
(62,263,cs),
(62,335,o),
(85,396,o),
(125,440,cs),
(164,483,o),
(220,508,o),
(288,508,cs),
(344,508,o),
(394,486,o),
(430,449,cs),
(466,412,o),
(488,359,o),
(488,295,c),
(486,270,l),
(498,287,l),
(52,287,l),
(52,265,l),
(509,265,l),
(510,291,ls),
(513,364,o),
(490,425,o),
(450,466,cs),
(409,507,o),
(352,530,o),
(285,530,cs),
(213,530,o),
(152,503,o),
(109,456,cs),
(65,408,o),
(40,342,o),
(40,263,cs),
(40,183,o),
(67,115,o),
(112,67,cs),
(156,19,o),
(221,-10,o),
(297,-10,cs)
);
}
);
width = 545;
}
);
leftKerningGroup = a2;
rightKerningGroup = e;
unicode = 101;
},
{
glyphname = f;
layers = (
{
layerId = "32C70213-2585-4D1B-95B0-B141A53AEEAA";
shapes = (
{
closed = 1;
nodes = (
(86,0,l),
(188,0,l),
(289,0,l),
(289,513,ls),
(289,548,o),
(301,565,o),
(333,565,cs),
(342,565,o),
(356,563,o),
(373,559,c),
(426,704,l),
(385,729,o),
(340,745,o),
(284,745,cs),
(224,745,o),
(175,722,o),
(140,684,cs),
(105,646,o),
(86,593,o),
(86,537,cs)
);
},
{
closed = 1;
nodes = (
(387,356,l),
(387,516,l),
(13,516,l),
(13,356,l)
);
}
);
width = 393;
},
{
layerId = "CCC3D61B-F98C-4821-B26B-81827A7D0F36";
shapes = (
{
closed = 1;
nodes = (
(129,0,l),
(181,0,l),
(233,0,l),
(233,584,ls),
(233,623,o),
(254,643,o),
(297,643,cs),
(316,643,o),
(338,632,o),
(355,616,c),
(390,695,l),
(367,722,o),
(328,739,o),
(285,739,cs),
(240,739,o),
(200,723,o),
(173,696,cs),
(145,668,o),
(129,629,o),
(129,584,cs)
);
},
{
closed = 1;
nodes = (
(357,421,l),
(357,516,l),
(45,516,l),
(45,421,l)
);
}
);
width = 393;
},
{
layerId = "A90C822B-E05B-4C1D-A0F8-AEE47565E770";
shapes = (
{
closed = 1;
nodes = (
(140,0,l),
(154,0,l),
(162,0,l),
(162,625,ls),
(162,705,o),
(195,728,o),
(243,728,cs),
(278,728,o),
(303,720,o),
(326,693,c),
(340,708,l),
(321,733,o),
(293,750,o),
(245,750,cs),
(213,750,o),
(188,741,o),
(169,721,cs),
(150,701,o),
(140,670,o),
(140,626,cs)
);
},
{
closed = 1;
nodes = (
(314,503,l),
(314,525,l),
(30,525,l),
(30,503,l)
);
}
);
width = 340;
}
);
leftKerningGroup = f2;
rightKerningGroup = f;
unicode = 102;
},
{
glyphname = h;
layers = (
{
layerId = "32C70213-2585-4D1B-95B0-B141A53AEEAA";
shapes = (
{
closed = 1;
nodes = (
(70,0,l),
(172,0,l),
(273,0,l),
(273,318,ls),
(273,337,o),
(280,352,o),
(292,363,cs),
(304,374,o),
(321,381,o),
(341,381,cs),
(380,381,o),
(402,357,o),
(402,313,cs),
(402,0,l),
(605,0,l),
(605,330,ls),
(605,470,o),
(539,546,o),
(418,546,cs),
(373,546,o),
(330,532,o),
(296,509,cs),
(262,486,o),
(236,454,o),
(225,415,c),
(268,427,l),
(268,740,l),
(70,740,l)
);
}
);
width = 665;
},
{
layerId = "CCC3D61B-F98C-4821-B26B-81827A7D0F36";
shapes = (
{
closed = 1;
nodes = (
(72,0,l),
(124,0,l),
(175,0,l),
(175,318,ls),
(175,353,o),
(190,383,o),
(215,406,cs),
(239,429,o),
(273,442,o),
(313,442,c),
(389,446,o),
(424,405,o),
(424,313,cs),
(424,0,l),
(527,0,l),
(527,320,ls),
(527,465,o),
(468,536,o),
(347,536,cs),
(306,536,o),
(263,520,o),
(228,496,cs),
(193,472,o),
(168,440,o),
(157,405,c),
(175,417,l),
(175,740,l),
(72,740,l)
);
}
);
width = 595;
},
{
layerId = "A90C822B-E05B-4C1D-A0F8-AEE47565E770";
shapes = (
{
closed = 1;
nodes = (
(70,0,l),
(81,0,l),
(92,0,l),
(92,376,ls),
(92,396,o),
(113,429,o),
(147,457,cs),
(181,485,o),
(230,508,o),
(286,508,cs),
(391,508,o),
(451,456,o),
(451,328,cs),
(451,0,l),
(473,0,l),
(473,328,ls),
(473,469,o),
(405,530,o),
(288,530,cs),
(240,530,o),
(194,515,o),
(158,492,cs),
(122,468,o),
(95,437,o),
(83,402,c),
(92,404,l),
(92,740,l),
(70,740,l)
);
}
);
width = 541;
}
);
leftKerningGroup = b2;
rightKerningGroup = h;
unicode = 104;
},
{
glyphname = i;
layers = (
{
layerId = "32C70213-2585-4D1B-95B0-B141A53AEEAA";
shapes = (
{
closed = 1;
nodes = (
(280,0,l),
(280,535,l),
(77,535,l),
(77,0,l)
);
},
{
closed = 1;
nodes = (
(251,632,o),
(294,672,o),
(294,728,cs),
(294,789,o),
(251,824,o),
(179,824,cs),
(107,824,o),
(64,784,o),
(64,728,cs),
(64,667,o),
(107,632,o),
(179,632,cs)
);
}
);
width = 358;
},
{
layerId = "CCC3D61B-F98C-4821-B26B-81827A7D0F36";
shapes = (
{
closed = 1;
nodes = (
(194,0,l),
(194,525,l),
(91,525,l),
(91,0,l)
);
},
{
closed = 1;
nodes = (
(184,641,o),
(210,667,o),
(210,706,cs),
(210,747,o),
(185,771,o),
(141,771,cs),
(98,771,o),
(72,745,o),
(72,706,cs),
(72,665,o),
(97,641,o),
(141,641,cs)
);
}
);
width = 278;
},
{
layerId = "A90C822B-E05B-4C1D-A0F8-AEE47565E770";
shapes = (
{
closed = 1;
nodes = (
(92,0,l),
(92,525,l),
(70,525,l),
(70,0,l)
);
},
{
closed = 1;
nodes = (
(100,663,o),
(109,675,o),
(109,692,cs),
(109,709,o),
(98,721,o),
(81,721,cs),
(62,721,o),
(53,708,o),
(53,692,cs),
(53,675,o),
(62,663,o),
(81,663,cs)
);
}
);
width = 162;
}
);
rightKerningGroup = i;
unicode = 105;
},
{
glyphname = j;
layers = (
{
layerId = "32C70213-2585-4D1B-95B0-B141A53AEEAA";
shapes = (
{
closed = 1;
nodes = (
(34,-219,l),
(118,-219,o),
(180,-203,o),
(221,-165,cs),
(262,-127,o),
(283,-66,o),
(283,23,cs),
(283,535,l),
(80,535,l),
(80,71,ls),
(80,16,o),
(75,-17,o),
(57,-37,cs),
(39,-56,o),
(8,-62,o),
(-43,-62,c)
);
},
{
closed = 1;
nodes = (
(253,622,o),
(296,662,o),
(296,718,cs),
(296,779,o),
(253,814,o),
(181,814,cs),
(109,814,o),
(66,774,o),
(66,718,cs),
(66,657,o),
(109,622,o),
(181,622,cs)
);
}
);
width = 371;
},
{
layerId = "CCC3D61B-F98C-4821-B26B-81827A7D0F36";
shapes = (
{
closed = 1;
nodes = (
(9,-197,l),
(62,-197,o),
(107,-180,o),
(139,-149,cs),
(171,-118,o),
(189,-76,o),
(189,-24,cs),
(189,525,l),
(86,525,l),
(86,1,ls),
(86,-39,o),
(76,-68,o),
(57,-88,cs),
(37,-108,o),
(9,-118,o),
(-30,-118,c)
);
},
{
closed = 1;
nodes = (
(183,641,o),
(209,667,o),
(209,706,cs),
(209,747,o),
(184,771,o),
(140,771,cs),
(97,771,o),
(71,745,o),
(71,706,cs),
(71,665,o),
(96,641,o),
(140,641,cs)
);
}
);
width = 265;
},
{
layerId = "A90C822B-E05B-4C1D-A0F8-AEE47565E770";
shapes = (
{
closed = 1;
nodes = (
(-34,-194,l),
(6,-194,o),
(38,-183,o),
(59,-160,cs),
(80,-137,o),
(92,-104,o),
(92,-60,cs),
(92,525,l),
(70,525,l),
(70,-56,ls),
(70,-91,o),
(62,-120,o),
(45,-141,cs),
(28,-161,o),
(-1,-173,o),
(-42,-173,c)
);
},
{
closed = 1;
nodes = (
(98,663,o),
(107,675,o),
(107,692,cs),
(107,709,o),
(96,721,o),
(79,721,cs),
(60,721,o),
(51,708,o),
(51,692,cs),
(51,675,o),
(60,663,o),
(79,663,cs)
);
}
);
width = 150;
}
);
leftKerningGroup = j2;
rightKerningGroup = j;
unicode = 106;
},
{
glyphname = k;
layers = (
{
layerId = "32C70213-2585-4D1B-95B0-B141A53AEEAA";
shapes = (
{
closed = 1;
nodes = (
(680,535,l),
(416,535,l),
(169,276,l),
(269,150,l)
);
},
{
closed = 1;
nodes = (
(273,0,l),
(273,740,l),
(70,740,l),
(70,0,l)
);
},
{
closed = 1;
nodes = (
(666,0,l),
(398,353,l),
(256,251,l),
(434,0,l)
);
}
);
width = 669;
},
{
layerId = "CCC3D61B-F98C-4821-B26B-81827A7D0F36";
shapes = (
{
closed = 1;
nodes = (
(553,525,l),
(414,525,l),
(163,276,l),
(168,164,l)
);
},
{
closed = 1;
nodes = (
(177,0,l),
(177,740,l),
(74,740,l),
(74,0,l)
);
},
{
closed = 1;
nodes = (
(560,0,l),
(303,298,l),
(230,231,l),
(428,0,l)
);
}
);
width = 570;
},
{
layerId = "A90C822B-E05B-4C1D-A0F8-AEE47565E770";
shapes = (
{
closed = 1;
nodes = (
(435,525,l),
(403,525,l),
(86,211,l),
(86,179,l)
);
},
{
closed = 1;
nodes = (
(94,0,l),
(94,740,l),
(72,740,l),
(72,0,l)
);
},
{
closed = 1;
nodes = (
(469,0,l),
(202,307,l),
(185,291,l),
(438,0,l)
);
}
);
width = 478;
}
);
leftKerningGroup = b2;
rightKerningGroup = k;
unicode = 107;
},
{
glyphname = l;
layers = (
{
layerId = "32C70213-2585-4D1B-95B0-B141A53AEEAA";
shapes = (
{
closed = 1;
nodes = (
(273,0,l),
(273,740,l),
(70,740,l),
(70,0,l)
);
}
);
width = 343;
},
{
layerId = "CCC3D61B-F98C-4821-B26B-81827A7D0F36";
shapes = (
{
closed = 1;
nodes = (
(177,0,l),
(177,740,l),
(74,740,l),
(74,0,l)
);
}
);
width = 251;
},
{
layerId = "A90C822B-E05B-4C1D-A0F8-AEE47565E770";
shapes = (
{
closed = 1;
nodes = (
(94,0,l),
(94,740,l),
(72,740,l),
(72,0,l)
);
}
);
width = 166;
}
);
leftKerningGroup = b2;
rightKerningGroup = l;
unicode = 108;
},
{
glyphname = m;
layers = (
{
layerId = "32C70213-2585-4D1B-95B0-B141A53AEEAA";
shapes = (
{
closed = 1;
nodes = (
(273,0,l),
(273,318,ls),
(273,337,o),
(280,352,o),
(292,363,cs),
(303,374,o),
(320,381,o),
(340,381,cs),
(377,381,o),
(400,357,o),
(400,313,cs),
(400,0,l),
(603,0,l),
(603,318,ls),
(603,337,o),
(610,352,o),
(622,363,cs),
(633,374,o),
(650,381,o),
(670,381,cs),
(707,381,o),
(730,357,o),
(730,313,cs),
(730,0,l),
(933,0,l),
(933,330,ls),
(933,470,o),
(865,546,o),
(740,546,cs),
(704,546,o),
(671,541,o),
(640,526,cs),
(608,511,o),
(579,488,o),
(551,449,cs),
(541,435,l),
(572,434,l),
(548,478,o),
(525,507,o),
(499,524,cs),
(473,540,o),
(444,546,o),
(408,546,cs),
(380,546,o),
(354,541,o),
(328,528,cs),
(302,515,o),
(275,494,o),
(243,459,c),
(266,451,l),
(258,535,l),
(70,535,l),
(70,0,l)
);
}
);
width = 993;
},
{
layerId = "CCC3D61B-F98C-4821-B26B-81827A7D0F36";
shapes = (
{
closed = 1;
nodes = (
(174,0,l),
(174,316,ls),
(174,351,o),
(188,382,o),
(212,404,cs),
(236,426,o),
(269,439,o),
(306,439,cs),
(374,439,o),
(409,395,o),
(409,311,cs),
(409,0,l),
(513,0,l),
(513,314,ls),
(513,350,o),
(527,380,o),
(551,403,cs),
(575,426,o),
(609,439,o),
(646,439,cs),
(718,439,o),
(751,398,o),
(751,309,cs),
(751,0,l),
(855,0,l),
(855,315,ls),
(855,463,o),
(797,534,o),
(680,534,cs),
(644,534,o),
(605,521,o),
(572,500,cs),
(539,479,o),
(512,451,o),
(497,420,c),
(490,403,l),
(506,399,l),
(497,443,o),
(477,477,o),
(449,500,cs),
(421,523,o),
(384,534,o),
(339,534,cs),
(298,534,o),
(256,518,o),
(224,494,cs),
(191,469,o),
(166,436,o),
(155,401,c),
(174,413,l),
(174,525,l),
(70,525,l),
(70,0,l)
);
}
);
width = 921;
},
{
layerId = "A90C822B-E05B-4C1D-A0F8-AEE47565E770";
shapes = (
{
closed = 1;
nodes = (
(87,0,l),
(87,376,ls),
(87,396,o),
(107,429,o),
(140,457,cs),
(172,485,o),
(219,508,o),
(274,508,cs),
(375,508,o),
(432,456,o),
(432,328,cs),
(432,0,l),
(454,0,l),
(454,364,ls),
(454,396,o),
(473,432,o),
(505,460,cs),
(537,488,o),
(582,508,o),
(634,508,cs),
(735,508,o),
(792,456,o),
(792,328,cs),
(792,0,l),
(814,0,l),
(814,328,ls),
(814,469,o),
(749,530,o),
(636,530,cs),
(595,530,o),
(555,519,o),
(521,499,cs),
(487,478,o),
(458,446,o),
(441,406,c),
(435,389,l),
(447,395,l),
(436,446,o),
(416,479,o),
(386,500,cs),
(356,521,o),
(319,530,o),
(276,530,cs),
(235,530,o),
(196,520,o),
(162,499,cs),
(128,478,o),
(97,444,o),
(73,396,c),
(88,393,l),
(85,525,l),
(65,525,l),
(65,0,l)
);
}
);
width = 877;
}
);
leftKerningGroup = m;
rightKerningGroup = h;
unicode = 109;
},
{
glyphname = n;
layers = (
{
layerId = "32C70213-2585-4D1B-95B0-B141A53AEEAA";
shapes = (
{
closed = 1;
nodes = (
(70,0,l),
(172,0,l),
(273,0,l),
(273,318,ls),
(273,337,o),
(280,352,o),
(292,363,cs),
(304,374,o),
(321,381,o),
(341,381,cs),
(380,381,o),
(402,357,o),
(402,313,cs),
(402,0,l),
(605,0,l),
(605,330,ls),
(605,470,o),
(539,546,o),
(418,546,cs),
(373,546,o),
(330,532,o),
(296,509,cs),
(262,486,o),
(236,454,o),
(225,415,c),
(268,427,l),
(258,535,l),
(70,535,l)
);
}
);
width = 665;
},
{
layerId = "CCC3D61B-F98C-4821-B26B-81827A7D0F36";
shapes = (
{
closed = 1;
nodes = (
(72,0,l),
(124,0,l),
(175,0,l),
(175,318,ls),
(175,353,o),
(190,383,o),
(215,406,cs),
(239,429,o),
(273,442,o),
(313,442,c),
(389,446,o),
(424,405,o),
(424,313,cs),
(424,0,l),
(527,0,l),
(527,320,ls),
(527,465,o),
(468,536,o),
(347,536,cs),
(306,536,o),
(263,520,o),
(228,496,cs),
(193,472,o),
(168,440,o),
(157,405,c),
(175,417,l),
(175,525,l),
(72,525,l)
);
}
);
width = 595;
},
{
layerId = "A90C822B-E05B-4C1D-A0F8-AEE47565E770";
shapes = (
{
closed = 1;
nodes = (
(70,0,l),
(81,0,l),
(92,0,l),
(92,376,ls),
(92,396,o),
(113,429,o),
(147,457,cs),
(181,485,o),
(230,508,o),
(286,508,cs),
(391,508,o),
(451,456,o),
(451,328,cs),
(451,0,l),
(473,0,l),
(473,328,ls),
(473,469,o),
(405,530,o),
(288,530,cs),
(240,530,o),
(193,515,o),
(157,492,cs),
(121,468,o),
(94,436,o),
(83,401,c),
(92,404,l),
(90,525,l),
(70,525,l)
);
}
);
width = 541;
}
);
leftKerningGroup = m;
rightKerningGroup = h;
unicode = 110;
},
{
glyphname = o;
layers = (
{
layerId = "32C70213-2585-4D1B-95B0-B141A53AEEAA";
shapes = (
{
closed = 1;
nodes = (
(494,-10,o),
(630,98,o),
(630,268,cs),
(630,438,o),
(494,546,o),
(331,546,cs),
(168,546,o),
(30,438,o),
(30,268,cs),
(30,98,o),
(168,-10,o),
(331,-10,cs)
);
},
{
closed = 1;
nodes = (
(270,160,o),
(235,211,o),
(235,268,cs),
(235,326,o),
(269,377,o),
(331,377,cs),
(393,377,o),
(425,325,o),
(425,268,cs),
(425,212,o),
(392,160,o),
(331,160,cs)
);
}
);
width = 660;
},
{
layerId = "CCC3D61B-F98C-4821-B26B-81827A7D0F36";
shapes = (
{
closed = 1;
nodes = (
(464,-10,o),
(575,109,o),
(575,263,cs),
(575,417,o),
(464,536,o),
(308,536,cs),
(152,536,o),
(40,417,o),
(40,263,cs),
(40,110,o),
(153,-10,o),
(308,-10,cs)
);
},
{
closed = 1;
nodes = (
(207,84,o),
(145,167,o),
(145,263,cs),
(145,359,o),
(207,442,o),
(308,442,cs),
(411,442,o),
(470,360,o),
(470,263,cs),
(470,167,o),
(410,84,o),
(308,84,cs)
);
}
);
width = 615;
},
{
layerId = "A90C822B-E05B-4C1D-A0F8-AEE47565E770";
shapes = (
{
closed = 1;
nodes = (
(468,-10,o),
(575,105,o),
(575,263,cs),
(575,420,o),
(465,530,o),
(308,530,cs),
(152,530,o),
(40,419,o),
(40,263,cs),
(40,107,o),
(150,-10,o),
(308,-10,cs)
);
},
{
closed = 1;
nodes = (
(163,12,o),
(62,120,o),
(62,263,cs),
(62,405,o),
(166,508,o),
(308,508,cs),
(450,508,o),
(553,405,o),
(553,263,cs),
(553,120,o),
(453,12,o),
(308,12,cs)
);
}
);
width = 615;
}
);
leftKerningGroup = a2;
rightKerningGroup = b;
unicode = 111;
},
{
glyphname = p;
layers = (
{
layerId = "32C70213-2585-4D1B-95B0-B141A53AEEAA";
shapes = (
{
closed = 1;
nodes = (
(274,-220,l),
(274,131,l),
(229,117,l),
(237,81,o),
(262,49,o),
(295,27,cs),
(328,5,o),
(371,-9,o),
(416,-9,cs),
(484,-9,o),
(543,20,o),
(584,69,cs),
(624,118,o),
(649,188,o),
(649,268,cs),
(649,351,o),
(625,420,o),
(585,469,cs),
(544,517,o),
(488,546,o),
(421,546,cs),
(372,546,o),
(327,533,o),
(293,512,cs),
(259,491,o),
(235,461,o),
(228,426,c),
(269,417,l),
(258,535,l),
(70,535,l),
(70,-220,l)
);
},
{
closed = 1;
nodes = (
(331,156,o),
(308,166,o),
(293,185,cs),
(277,204,o),
(269,232,o),
(269,268,cs),
(269,304,o),
(277,332,o),
(293,352,cs),
(308,371,o),
(331,381,o),
(360,381,cs),
(388,381,o),
(411,371,o),
(427,352,c),
(442,332,o),
(450,304,o),
(450,268,cs),
(450,232,o),
(442,204,o),
(427,185,cs),
(411,166,o),
(388,156,o),
(360,156,cs)
);
}
);
width = 679;
},
{
layerId = "CCC3D61B-F98C-4821-B26B-81827A7D0F36";
shapes = (
{
closed = 1;
nodes = (
(176,-220,l),
(176,131,l),
(150,117,l),
(158,86,o),
(184,55,o),
(221,31,cs),
(257,7,o),
(304,-9,o),
(349,-9,cs),
(418,-9,o),
(479,20,o),
(522,69,cs),
(565,117,o),
(591,186,o),
(591,263,cs),
(591,342,o),
(565,409,o),
(522,457,cs),
(478,505,o),
(417,534,o),
(346,534,cs),
(303,534,o),
(260,519,o),
(226,497,cs),
(192,475,o),
(167,445,o),
(160,414,c),
(176,405,l),
(176,525,l),
(72,525,l),
(72,-220,l)
);
},
{
closed = 1;
nodes = (
(285,86,o),
(245,105,o),
(217,137,c),
(188,168,o),
(171,212,o),
(171,263,cs),
(171,315,o),
(188,358,o),
(217,390,cs),
(245,421,o),
(285,439,o),
(332,439,cs),
(379,439,o),
(419,420,o),
(447,389,cs),
(475,357,o),
(492,314,o),
(492,263,cs),
(492,212,o),
(475,168,o),
(447,137,cs),
(418,105,o),
(379,86,o),
(332,86,cs)
);
}
);
width = 631;
},
{
layerId = "A90C822B-E05B-4C1D-A0F8-AEE47565E770";
shapes = (
{
closed = 1;
nodes = (
(92,-230,l),
(92,167,l),
(86,170,l),
(95,118,o),
(125,73,o),
(166,41,cs),
(207,9,o),
(259,-10,o),
(312,-10,cs),
(380,-10,o),
(443,19,o),
(488,67,cs),
(533,115,o),
(562,183,o),
(562,262,cs),
(562,341,o),
(535,407,o),
(490,455,cs),
(445,502,o),
(381,530,o),
(308,530,cs),
(255,530,o),
(205,511,o),
(166,478,cs),
(126,445,o),
(96,400,o),
(83,345,c),
(92,348,l),
(90,525,l),
(70,525,l),
(70,-230,l)
);
},
{
closed = 1;
nodes = (
(248,12,o),
(194,38,o),
(155,82,cs),
(115,126,o),
(92,188,o),
(92,260,cs),
(92,333,o),
(115,395,o),
(155,439,cs),
(194,483,o),
(248,508,o),
(309,508,cs),
(377,508,o),
(435,482,o),
(476,438,cs),
(516,394,o),
(540,333,o),
(540,262,cs),
(540,190,o),
(516,127,o),
(476,83,cs),
(436,38,o),
(379,12,o),
(311,12,cs)
);
}
);
width = 602;
}
);
rightKerningGroup = b;
unicode = 112;
},
{
glyphname = q;
layers = (
{
layerId = "32C70213-2585-4D1B-95B0-B141A53AEEAA";
shapes = (
{
closed = 1;
nodes = (
(609,-220,l),
(609,535,l),
(421,535,l),
(410,417,l),
(451,426,l),
(444,461,o),
(421,491,o),
(387,512,cs),
(353,533,o),
(307,546,o),
(258,546,cs),
(193,546,o),
(135,517,o),
(95,469,cs),
(54,420,o),
(30,351,o),
(30,268,cs),
(30,188,o),
(55,118,o),
(96,69,cs),
(136,20,o),
(195,-9,o),
(263,-9,cs),
(308,-9,o),
(351,5,o),
(384,27,cs),
(417,49,o),
(442,81,o),
(450,117,c),
(405,131,l),
(405,-220,l)
);
},
{
closed = 1;
nodes = (
(291,156,o),
(268,166,o),
(253,185,cs),
(237,204,o),
(229,232,o),
(229,268,cs),
(229,304,o),
(237,332,o),
(253,352,cs),
(268,371,o),
(291,381,o),
(319,381,cs),
(348,381,o),
(371,371,o),
(387,352,c),
(402,332,o),
(410,304,o),
(410,268,cs),
(410,232,o),
(402,204,o),
(387,185,cs),
(371,166,o),
(348,156,o),
(319,156,cs)
);
}
);
width = 679;
},
{
layerId = "CCC3D61B-F98C-4821-B26B-81827A7D0F36";
shapes = (
{
closed = 1;
nodes = (
(558,-220,l),
(558,526,l),
(455,526,l),
(455,389,l),
(485,391,l),
(485,426,o),
(460,461,o),
(424,489,cs),
(387,517,o),
(337,536,o),
(285,536,cs),
(216,536,o),
(154,507,o),
(110,459,cs),
(66,410,o),
(40,342,o),
(40,263,cs),
(40,184,o),
(67,116,o),
(111,68,cs),
(155,19,o),
(217,-10,o),
(288,-10,cs),
(335,-10,o),
(381,8,o),
(416,34,cs),
(451,60,o),
(475,93,o),
(475,125,c),
(455,125,l),
(455,-220,l)
);
},
{
closed = 1;
nodes = (
(252,85,o),
(212,104,o),
(184,136,cs),
(156,167,o),
(139,211,o),
(139,263,cs),
(139,315,o),
(156,359,o),
(184,391,cs),
(212,423,o),
(252,442,o),
(299,442,cs),
(346,442,o),
(386,423,o),
(414,392,cs),
(442,360,o),
(459,315,o),
(459,263,cs),
(459,211,o),
(442,167,o),
(414,135,cs),
(386,103,o),
(346,85,o),
(299,85,cs)
);
}
);
width = 630;
},
{
layerId = "A90C822B-E05B-4C1D-A0F8-AEE47565E770";
shapes = (
{
closed = 1;
nodes = (
(532,-230,l),
(532,525,l),
(512,525,l),
(510,353,l),
(516,350,l),
(507,402,o),
(477,447,o),
(436,479,cs),
(395,511,o),
(343,530,o),
(290,530,cs),
(222,530,o),
(159,501,o),
(114,453,cs),
(69,405,o),
(40,337,o),
(40,258,cs),
(40,181,o),
(67,113,o),
(112,66,cs),
(157,18,o),
(221,-10,o),
(294,-10,cs),
(349,-10,o),
(397,9,o),
(437,42,cs),
(476,75,o),
(506,122,o),
(519,175,c),
(510,172,l),
(510,-230,l)
);
},
{
closed = 1;
nodes = (
(225,12,o),
(167,38,o),
(127,82,cs),
(86,126,o),
(62,187,o),
(62,258,cs),
(62,330,o),
(86,393,o),
(126,438,cs),
(166,482,o),
(223,508,o),
(291,508,cs),
(354,508,o),
(408,482,o),
(448,438,cs),
(487,394,o),
(510,332,o),
(510,260,cs),
(510,187,o),
(487,125,o),
(448,81,cs),
(408,37,o),
(354,12,o),
(293,12,cs)
);
}
);
width = 611;
}
);
leftKerningGroup = a2;
unicode = 113;
},
{
glyphname = r;
layers = (
{
layerId = "32C70213-2585-4D1B-95B0-B141A53AEEAA";
shapes = (
{
closed = 1;
nodes = (
(273,0,l),
(273,248,ls),
(273,275,o),
(280,294,o),
(293,309,cs),
(305,324,o),
(325,331,o),
(349,331,cs),
(382,331,o),
(414,321,o),
(427,312,c),
(483,537,l),
(463,542,o),
(442,546,o),
(418,546,cs),
(373,546,o),
(331,529,o),
(297,500,cs),
(263,471,o),
(237,432,o),
(225,385,c),
(270,357,l),
(258,535,l),
(70,535,l),
(70,0,l)
);
}
);
width = 493;
},
{
layerId = "CCC3D61B-F98C-4821-B26B-81827A7D0F36";
shapes = (
{
closed = 1;
nodes = (
(176,0,l),
(176,290,ls),
(176,329,o),
(192,362,o),
(217,387,cs),
(241,411,o),
(275,426,o),
(311,426,cs),
(330,426,o),
(350,421,o),
(366,414,c),
(393,526,l),
(381,531,o),
(359,536,o),
(336,536,cs),
(300,536,o),
(263,521,o),
(232,497,cs),
(201,472,o),
(178,439,o),
(166,400,c),
(176,360,l),
(176,525,l),
(72,525,l),
(72,0,l)
);
}
);
width = 403;
},
{
layerId = "A90C822B-E05B-4C1D-A0F8-AEE47565E770";
shapes = (
{
closed = 1;
nodes = (
(92,0,l),
(92,338,ls),
(92,374,o),
(105,417,o),
(132,450,cs),
(159,483,o),
(200,508,o),
(253,508,cs),
(268,508,o),
(288,506,o),
(309,499,c),
(316,522,l),
(300,527,o),
(281,530,o),
(258,530,cs),
(209,530,o),
(168,512,o),
(139,487,cs),
(110,462,o),
(92,428,o),
(85,396,c),
(91,398,l),
(90,525,l),
(70,525,l),
(70,0,l)
);
}
);
width = 311;
}
);
leftKerningGroup = m;
rightKerningGroup = r;
unicode = 114;
},
{
glyphname = s;
layers = (
{
layerId = "32C70213-2585-4D1B-95B0-B141A53AEEAA";
shapes = (
{
closed = 1;
nodes = (
(325,-10,o),
(385,10,o),
(429,44,cs),
(472,78,o),
(497,124,o),
(497,179,cs),
(497,210,o),
(486,235,o),
(467,258,c),
(439,289,o),
(392,311,o),
(332,328,cs),
(276,344,o),
(250,353,o),
(238,358,cs),
(223,365,o),
(217,374,o),
(217,385,cs),
(217,400,o),
(228,410,o),
(251,410,cs),
(300,410,o),
(357,381,o),
(390,353,c),
(493,468,l),
(429,516,o),
(350,546,o),
(253,546,cs),
(196,546,o),
(138,530,o),
(95,500,cs),
(52,470,o),
(24,427,o),
(24,372,cs),
(24,325,o),
(43,288,o),
(75,259,cs),
(106,232,o),
(150,212,o),
(202,199,cs),
(246,188,o),
(274,180,o),
(285,175,cs),
(296,170,o),
(301,164,o),
(301,153,cs),
(301,145,o),
(298,139,o),
(292,135,cs),
(286,131,o),
(275,129,o),
(262,129,cs),
(243,129,o),
(219,134,o),
(193,143,cs),
(167,151,o),
(140,165,o),
(119,184,c),
(1,83,l),
(49,28,o),
(137,-10,o),
(253,-10,cs)
);
}
);
width = 507;
},
{
layerId = "CCC3D61B-F98C-4821-B26B-81827A7D0F36";
shapes = (
{
closed = 1;
nodes = (
(299,-10,o),
(348,6,o),
(382,34,cs),
(416,62,o),
(437,101,o),
(437,146,cs),
(437,187,o),
(428,219,o),
(401,246,cs),
(374,273,o),
(334,293,o),
(267,310,cs),
(222,321,o),
(193,333,o),
(178,344,cs),
(163,355,o),
(157,369,o),
(156,388,c),
(156,429,o),
(189,451,o),
(246,451,cs),
(285,451,o),
(336,426,o),
(375,387,c),
(434,452,l),
(391,504,o),
(317,536,o),
(241,536,cs),
(189,536,o),
(142,521,o),
(108,494,cs),
(74,466,o),
(53,429,o),
(53,385,cs),
(53,349,o),
(62,319,o),
(82,294,cs),
(109,262,o),
(157,237,o),
(234,217,cs),
(279,205,o),
(308,195,o),
(321,184,cs),
(334,173,o),
(340,159,o),
(340,142,cs),
(340,122,o),
(332,105,o),
(317,93,cs),
(301,81,o),
(280,75,o),
(256,75,cs),
(227,75,o),
(200,79,o),
(176,90,cs),
(152,101,o),
(130,117,o),
(110,141,c),
(40,81,l),
(87,21,o),
(159,-10,o),
(247,-10,cs)
);
}
);
width = 479;
},
{
layerId = "A90C822B-E05B-4C1D-A0F8-AEE47565E770";
shapes = (
{
closed = 1;
nodes = (
(304,-10,o),
(347,4,o),
(378,29,cs),
(409,54,o),
(425,89,o),
(425,133,cs),
(425,174,o),
(410,204,o),
(379,227,cs),
(348,250,o),
(305,264,o),
(245,279,c),
(186,292,o),
(144,309,o),
(117,332,cs),
(96,349,o),
(87,371,o),
(87,394,cs),
(87,461,o),
(143,508,o),
(240,508,cs),
(308,508,o),
(362,478,o),
(406,427,c),
(422,445,l),
(375,501,o),
(312,530,o),
(240,530,cs),
(187,530,o),
(143,517,o),
(113,493,cs),
(83,469,o),
(65,434,o),
(65,393,cs),
(65,361,o),
(78,336,o),
(105,313,cs),
(134,289,o),
(181,271,o),
(241,256,c),
(294,244,o),
(334,230,o),
(361,210,c),
(389,191,o),
(403,166,o),
(403,133,cs),
(403,101,o),
(392,72,o),
(367,49,cs),
(342,26,o),
(305,12,o),
(250,12,cs),
(207,12,o),
(170,20,o),
(138,36,cs),
(106,51,o),
(81,72,o),
(62,96,c),
(45,81,l),
(84,25,o),
(160,-10,o),
(248,-10,cs)
);
}
);
width = 479;
}
);
leftKerningGroup = s2;
rightKerningGroup = s;
unicode = 115;
},
{
color = 6;
glyphname = t;
layers = (
{
anchors = (
{
name = bottom;
position = "{205, 0}";
},
{
name = center;
position = "{205, 268}";
},
{
name = top;
position = "{201, 612}";
},
{
name = topright;
position = "{305, 860}";
}
);
layerId = "32C70213-2585-4D1B-95B0-B141A53AEEAA";
shapes = (
{
closed = 1;
nodes = (
(389,365,l),
(389,535,l),
(15,535,l),
(15,365,l)
);
},
{
closed = 1;
nodes = (
(424,157,l),
(373,157,o),
(343,163,o),
(324,182,c),
(306,202,o),
(301,235,o),
(301,290,cs),
(301,670,l),
(98,670,l),
(98,242,ls),
(98,153,o),
(119,92,o),
(160,54,cs),
(201,16,o),
(263,0,o),
(347,0,c)
);
}
);
width = 409;
},
{
anchors = (
{
name = bottom;
position = "{192, 0}";
},
{
name = center;
position = "{192, 263}";
},
{
name = top;
position = "{192, 612}";
},
{
name = topright;
position = "{269, 787}";
}
);
layerId = "CCC3D61B-F98C-4821-B26B-81827A7D0F36";
shapes = (
{
closed = 1;
nodes = (
(362,425,l),
(362,525,l),
(28,525,l),
(28,425,l)
);
},
{
closed = 1;
nodes = (
(356,79,l),
(317,79,o),
(289,89,o),
(269,109,cs),
(250,129,o),
(240,158,o),
(240,198,cs),
(240,659,l),
(137,659,l),
(137,173,ls),
(137,121,o),
(155,79,o),
(187,48,cs),
(219,17,o),
(264,0,o),
(317,0,c)
);
}
);
width = 384;
},
{
anchors = (
{
name = bottom;
position = "{175, 0}";
},
{
name = center;
position = "{175, 263}";
},
{
name = top;
position = "{175, 612}";
},
{
name = topright;
position = "{222, 740}";
}
);
layerId = "A90C822B-E05B-4C1D-A0F8-AEE47565E770";
shapes = (
{
closed = 1;
nodes = (
(335,503,l),
(335,525,l),
(20,525,l),
(20,503,l)
);
},
{
closed = 1;
nodes = (
(297,21,l),
(256,21,o),
(227,33,o),
(210,53,cs),
(193,74,o),
(185,103,o),
(185,138,cs),
(185,659,l),
(163,659,l),
(163,134,ls),
(163,90,o),
(175,57,o),
(196,34,cs),
(217,11,o),
(249,0,o),
(289,0,c)
);
}
);
width = 350;
}
);
leftKerningGroup = t2;
rightKerningGroup = t;
unicode = 116;
},
{
glyphname = u;
layers = (
{
layerId = "32C70213-2585-4D1B-95B0-B141A53AEEAA";
shapes = (
{
closed = 1;
nodes = (
(293,-11,o),
(335,3,o),
(368,26,cs),
(401,49,o),
(426,83,o),
(437,120,c),
(399,108,l),
(411,0,l),
(597,0,l),
(597,535,l),
(394,535,l),
(394,217,ls),
(394,200,o),
(387,183,o),
(375,172,cs),
(363,161,o),
(346,154,o),
(326,154,cs),
(286,154,o),
(263,178,o),
(263,222,cs),
(263,535,l),
(60,535,l),
(60,205,ls),
(60,65,o),
(128,-11,o),
(249,-11,cs)
);
}
);
width = 669;
},
{
layerId = "CCC3D61B-F98C-4821-B26B-81827A7D0F36";
shapes = (
{
closed = 1;
nodes = (
(300,-10,o),
(343,4,o),
(377,28,cs),
(411,52,o),
(436,85,o),
(448,122,c),
(430,110,l),
(430,0,l),
(533,0,l),
(533,525,l),
(430,525,l),
(430,209,ls),
(430,172,o),
(416,139,o),
(393,116,cs),
(369,93,o),
(337,80,o),
(298,80,cs),
(221,80,o),
(175,137,o),
(175,229,cs),
(175,525,l),
(72,525,l),
(72,201,ls),
(72,72,o),
(143,-10,o),
(256,-10,cs)
);
}
);
width = 605;
},
{
layerId = "A90C822B-E05B-4C1D-A0F8-AEE47565E770";
shapes = (
{
closed = 1;
nodes = (
(307,-10,o),
(350,6,o),
(383,30,cs),
(416,54,o),
(441,87,o),
(453,123,c),
(444,121,l),
(446,0,l),
(466,0,l),
(466,525,l),
(444,525,l),
(444,149,ls),
(444,128,o),
(423,93,o),
(391,65,cs),
(358,36,o),
(313,12,o),
(265,12,cs),
(156,12,o),
(95,66,o),
(95,197,cs),
(95,525,l),
(73,525,l),
(73,197,ls),
(73,52,o),
(142,-10,o),
(263,-10,cs)
);
}
);
width = 538;
}
);
leftKerningGroup = u2;
rightKerningGroup = u;
unicode = 117;
},
{
glyphname = v;
layers = (
{
layerId = "32C70213-2585-4D1B-95B0-B141A53AEEAA";
shapes = (
{
closed = 1;
nodes = (
(391,0,l),
(624,535,l),
(398,535,l),
(288,136,l),
(342,136,l),
(231,535,l),
(5,535,l),
(227,0,l)
);
}
);
width = 629;
},
{
layerId = "CCC3D61B-F98C-4821-B26B-81827A7D0F36";
shapes = (
{
closed = 1;
nodes = (
(318,0,l),
(551,525,l),
(445,525,l),
(274,123,l),
(293,132,l),
(133,525,l),
(22,525,l),
(244,0,l)
);
}
);
width = 573;
},
{
layerId = "A90C822B-E05B-4C1D-A0F8-AEE47565E770";
shapes = (
{
closed = 1;
nodes = (
(241,0,l),
(452,525,l),
(427,525,l),
(227,24,l),
(240,24,l),
(40,525,l),
(15,525,l),
(226,0,l)
);
}
);
width = 467;
}
);
unicode = 118;
},
{
glyphname = w;
layers = (
{
layerId = "32C70213-2585-4D1B-95B0-B141A53AEEAA";
shapes = (
{
closed = 1;
nodes = (
(341,0,l),
(439,313,l),
(415,313,l),
(507,0,l),
(671,0,l),
(854,535,l),
(638,535,l),
(562,227,l),
(582,230,l),
(484,535,l),
(366,535,l),
(278,230,l),
(298,226,l),
(221,535,l),
(5,535,l),
(177,0,l)
);
}
);
width = 859;
},
{
layerId = "CCC3D61B-F98C-4821-B26B-81827A7D0F36";
shapes = (
{
closed = 1;
nodes = (
(279,0,l),
(415,414,l),
(378,417,l),
(524,0,l),
(601,0,l),
(778,525,l),
(674,525,l),
(545,132,l),
(572,134,l),
(432,525,l),
(370,525,l),
(231,135,l),
(254,133,l),
(126,525,l),
(22,525,l),
(201,0,l)
);
}
);
width = 800;
},
{
layerId = "A90C822B-E05B-4C1D-A0F8-AEE47565E770";
shapes = (
{
closed = 1;
nodes = (
(214,0,l),
(379,503,l),
(364,503,l),
(529,0,l),
(543,0,l),
(728,525,l),
(704,525,l),
(528,24,l),
(543,24,l),
(379,525,l),
(364,525,l),
(200,24,l),
(215,24,l),
(39,525,l),
(15,525,l),
(200,0,l)
);
}
);
width = 743;
}
);
leftKerningGroup = w2;
rightKerningGroup = w;
unicode = 119;
},
{
glyphname = x;
layers = (
{
layerId = "32C70213-2585-4D1B-95B0-B141A53AEEAA";
shapes = (
{
closed = 1;
nodes = (
(619,0,l),
(419,294,l),
(333,413,l),
(267,535,l),
(29,535,l),
(230,247,l),
(310,134,l),
(381,0,l)
);
},
{
closed = 1;
nodes = (
(258,0,l),
(344,194,l),
(239,319,l),
(20,0,l)
);
},
{
closed = 1;
nodes = (
(614,535,l),
(376,535,l),
(289,339,l),
(394,214,l)
);
}
);
width = 639;
},
{
layerId = "CCC3D61B-F98C-4821-B26B-81827A7D0F36";
shapes = (
{
closed = 1;
nodes = (
(547,0,l),
(329,285,l),
(312,307,l),
(145,525,l),
(15,525,l),
(236,240,l),
(251,221,l),
(421,0,l)
);
},
{
closed = 1;
nodes = (
(138,0,l),
(284,197,l),
(223,270,l),
(16,0,l)
);
},
{
closed = 1;
nodes = (
(529,525,l),
(407,525,l),
(278,326,l),
(335,254,l)
);
}
);
width = 562;
},
{
layerId = "A90C822B-E05B-4C1D-A0F8-AEE47565E770";
shapes = (
{
closed = 1;
nodes = (
(465,0,l),
(246,273,l),
(239,281,l),
(52,525,l),
(22,525,l),
(227,260,l),
(230,255,l),
(435,0,l)
);
},
{
closed = 1;
nodes = (
(40,0,l),
(244,257,l),
(228,272,l),
(10,0,l)
);
},
{
closed = 1;
nodes = (
(452,525,l),
(422,525,l),
(235,281,l),
(247,261,l)
);
}
);
width = 475;
}
);
unicode = 120;
},
{
glyphname = y;
layers = (
{
layerId = "32C70213-2585-4D1B-95B0-B141A53AEEAA";
shapes = (
{
closed = 1;
nodes = (
(125,-230,l),
(289,-230,o),
(341,-160,o),
(411,0,cs),
(644,535,l),
(418,535,l),
(348,328,l),
(333,287,o),
(323,254,o),
(318,239,c),
(338,257,l),
(331,286,o),
(321,318,o),
(305,357,cs),
(231,535,l),
(5,535,l),
(256,2,l),
(254,84,l),
(228,24,ls),
(193,-56,o),
(111,-73,o),
(48,-73,c)
);
}
);
width = 649;
},
{
layerId = "CCC3D61B-F98C-4821-B26B-81827A7D0F36";
shapes = (
{
closed = 1;
nodes = (
(128,-230,l),
(232,-230,o),
(298,-160,o),
(338,-57,cs),
(576,525,l),
(454,525,l),
(317,146,l),
(306,118,o),
(298,90,o),
(287,62,c),
(313,68,l),
(306,95,o),
(296,126,o),
(289,139,c),
(125,525,l),
(5,525,l),
(267,-67,l),
(266,15,l),
(246,-32,ls),
(215,-105,o),
(158,-151,o),
(89,-151,c)
);
}
);
width = 581;
},
{
layerId = "A90C822B-E05B-4C1D-A0F8-AEE47565E770";
shapes = (
{
closed = 1;
nodes = (
(78,-230,l),
(163,-230,o),
(199,-176,o),
(232,-96,cs),
(486,525,l),
(461,525,l),
(275,62,l),
(268,47,o),
(263,35,o),
(258,20,c),
(267,25,l),
(264,32,o),
(263,34,o),
(252,57,cs),
(40,525,l),
(15,525,l),
(257,-7,l),
(252,9,l),
(210,-92,ls),
(179,-166,o),
(148,-209,o),
(70,-209,c)
);
}
);
width = 501;
}
);
leftKerningGroup = y2;
rightKerningGroup = y;
unicode = 121;
},
{
glyphname = z;
layers = (
{
layerId = "32C70213-2585-4D1B-95B0-B141A53AEEAA";
shapes = (
{
closed = 1;
nodes = (
(543,0,l),
(543,160,l),
(262,160,l),
(266,84,l),
(533,431,l),
(533,535,l),
(50,535,l),
(50,375,l),
(341,375,l),
(341,458,l),
(50,96,l),
(50,0,l)
);
}
);
width = 599;
},
{
layerId = "CCC3D61B-F98C-4821-B26B-81827A7D0F36";
shapes = (
{
closed = 1;
nodes = (
(439,0,l),
(439,89,l),
(162,89,l),
(166,84,l),
(433,441,l),
(433,525,l),
(50,525,l),
(50,436,l),
(321,436,l),
(321,448,l),
(50,86,l),
(50,0,l)
);
}
);
width = 484;
},
{
layerId = "A90C822B-E05B-4C1D-A0F8-AEE47565E770";
shapes = (
{
closed = 1;
nodes = (
(394,0,l),
(394,22,l),
(47,22,l),
(51,10,l),
(373,497,l),
(373,525,l),
(35,525,l),
(35,503,l),
(359,503,l),
(361,521,l),
(35,26,l),
(35,0,l)
);
}
);
width = 429;
}
);
leftKerningGroup = z2;
rightKerningGroup = z;
unicode = 122;
},
{
glyphname = braceleft;
layers = (
{
layerId = "32C70213-2585-4D1B-95B0-B141A53AEEAA";
shapes = (
{
closed = 1;
nodes = (
(408,-51,l),
(379,-42,o),
(359,-35,o),
(347,-25,cs),
(335,-15,o),
(331,0,o),
(331,27,c),
(333,102,l),
(333,178,o),
(282,231,o),
(154,262,c),
(154,239,l),
(282,267,o),
(333,321,o),
(333,398,c),
(331,473,l),
(331,504,o),
(335,520,o),
(347,532,cs),
(359,544,o),
(379,552,o),
(408,561,c),
(360,710,l),
(217,679,o),
(147,616,o),
(147,507,cs),
(148,412,ls),
(148,352,o),
(124,333,o),
(75,332,c),
(35,332,l),
(35,168,l),
(73,168,l),
(122,167,o),
(148,148,o),
(148,88,cs),
(147,-7,ls),
(147,-120,o),
(219,-182,o),
(360,-210,c)
);
}
);
width = 438;
},
{
layerId = "CCC3D61B-F98C-4821-B26B-81827A7D0F36";
shapes = (
{
closed = 1;
nodes = (
(387,-131,l),
(343,-116,o),
(315,-102,o),
(299,-82,cs),
(282,-61,o),
(275,-33,o),
(275,7,c),
(277,102,l),
(277,178,o),
(241,229,o),
(173,252,c),
(174,249,l),
(242,269,o),
(277,321,o),
(277,398,c),
(275,493,l),
(275,534,o),
(282,562,o),
(299,583,cs),
(316,603,o),
(344,618,o),
(387,631,c),
(369,700,l),
(237,672,o),
(184,616,o),
(184,507,cs),
(185,412,ls),
(185,332,o),
(153,289,o),
(89,288,c),
(44,288,l),
(44,212,l),
(87,212,l),
(151,211,o),
(185,165,o),
(185,88,cs),
(184,-7,ls),
(184,-120,o),
(238,-173,o),
(369,-200,c)
);
}
);
width = 411;
},
{
layerId = "A90C822B-E05B-4C1D-A0F8-AEE47565E770";
shapes = (
{
closed = 1;
nodes = (
(349,-167,l),
(304,-155,o),
(272,-138,o),
(252,-110,cs),
(232,-82,o),
(223,-45,o),
(223,7,c),
(225,102,l),
(225,178,o),
(196,229,o),
(135,252,c),
(135,249,l),
(195,268,o),
(225,321,o),
(225,398,c),
(223,493,l),
(223,545,o),
(232,582,o),
(252,610,cs),
(272,638,o),
(304,655,o),
(349,667,c),
(343,686,l),
(255,666,o),
(201,610,o),
(201,507,c),
(203,412,l),
(203,316,o),
(163,264,o),
(83,263,c),
(63,263,l),
(63,237,l),
(83,237,l),
(160,236,o),
(203,181,o),
(203,88,c),
(201,-7,l),
(201,-110,o),
(255,-166,o),
(343,-186,c)
);
}
);
width = 402;
}
);
unicode = 123;
},
{
glyphname = bar;
layers = (
{
layerId = "32C70213-2585-4D1B-95B0-B141A53AEEAA";
shapes = (
{
closed = 1;
nodes = (
(288,-193,l),
(288,740,l),
(95,740,l),
(95,-193,l)
);
}
);
width = 383;
},
{
layerId = "CCC3D61B-F98C-4821-B26B-81827A7D0F36";
shapes = (
{
closed = 1;
nodes = (
(164,-193,l),
(164,740,l),
(67,740,l),
(67,-193,l)
);
}
);
width = 231;
},
{
layerId = "A90C822B-E05B-4C1D-A0F8-AEE47565E770";
shapes = (
{
closed = 1;
nodes = (
(123,-193,l),
(123,740,l),
(100,740,l),
(100,-193,l)
);
}
);
width = 223;
}
);
unicode = 124;
},
{
glyphname = braceright;
layers = (
{
layerId = "32C70213-2585-4D1B-95B0-B141A53AEEAA";
shapes = (
{
closed = 1;
nodes = (
(78,-210,l),
(221,-179,o),
(291,-116,o),
(291,-7,cs),
(290,88,ls),
(290,148,o),
(314,167,o),
(363,168,c),
(403,168,l),
(403,332,l),
(365,332,l),
(316,333,o),
(290,352,o),
(290,412,cs),
(291,507,ls),
(291,620,o),
(221,682,o),
(78,710,c),
(30,551,l),
(61,542,o),
(79,535,o),
(91,525,cs),
(103,515,o),
(107,500,o),
(107,473,c),
(105,398,l),
(105,322,o),
(156,269,o),
(284,238,c),
(284,261,l),
(156,233,o),
(105,179,o),
(105,102,c),
(107,27,l),
(107,-4,o),
(103,-20,o),
(91,-32,cs),
(79,-44,o),
(61,-52,o),
(30,-61,c)
);
}
);
width = 438;
},
{
layerId = "CCC3D61B-F98C-4821-B26B-81827A7D0F36";
shapes = (
{
closed = 1;
nodes = (
(42,-200,l),
(174,-172,o),
(227,-116,o),
(227,-7,cs),
(226,88,ls),
(226,168,o),
(258,211,o),
(322,212,c),
(367,212,l),
(367,288,l),
(324,288,l),
(260,289,o),
(226,335,o),
(226,412,cs),
(227,507,ls),
(227,620,o),
(173,673,o),
(42,700,c),
(24,631,l),
(68,616,o),
(96,602,o),
(113,582,c),
(129,561,o),
(136,533,o),
(136,493,c),
(134,398,l),
(134,322,o),
(170,271,o),
(238,248,c),
(237,251,l),
(169,231,o),
(134,179,o),
(134,102,c),
(136,7,l),
(136,-34,o),
(129,-62,o),
(112,-83,cs),
(95,-103,o),
(67,-118,o),
(24,-131,c)
);
}
);
width = 411;
},
{
layerId = "A90C822B-E05B-4C1D-A0F8-AEE47565E770";
shapes = (
{
closed = 1;
nodes = (
(59,-186,l),
(147,-166,o),
(201,-110,o),
(201,-7,c),
(199,88,l),
(199,184,o),
(239,236,o),
(319,237,c),
(339,237,l),
(339,263,l),
(319,263,l),
(242,264,o),
(199,319,o),
(199,412,c),
(201,507,l),
(201,610,o),
(147,666,o),
(59,686,c),
(53,667,l),
(100,655,o),
(131,638,o),
(151,610,cs),
(171,582,o),
(179,545,o),
(179,493,c),
(177,398,l),
(177,322,o),
(206,271,o),
(267,248,c),
(267,251,l),
(207,232,o),
(177,179,o),
(177,102,c),
(179,7,l),
(179,-45,o),
(171,-82,o),
(151,-110,cs),
(131,-138,o),
(100,-155,o),
(53,-167,c)
);
}
);
width = 402;
}
);
unicode = 125;
},
{
glyphname = asciitilde;
layers = (
{
layerId = "32C70213-2585-4D1B-95B0-B141A53AEEAA";
shapes = (
{
closed = 1;
nodes = (
(511,185,o),
(564,267,o),
(564,424,c),
(419,424,l),
(422,387,o),
(404,357,o),
(381,357,cs),
(357,357,o),
(329,371,o),
(306,382,cs),
(291,389,o),
(273,397,o),
(255,403,cs),
(237,409,o),
(217,413,o),
(200,413,cs),
(79,413,o),
(26,329,o),
(26,173,c),
(171,173,l),
(171,217,o),
(185,240,o),
(212,240,cs),
(223,240,o),
(235,237,o),
(250,232,cs),
(265,227,o),
(280,220,o),
(296,213,cs),
(315,205,o),
(333,197,o),
(350,193,cs),
(367,188,o),
(386,185,o),
(403,185,cs)
);
}
);
width = 594;
},
{
layerId = "CCC3D61B-F98C-4821-B26B-81827A7D0F36";
shapes = (
{
closed = 1;
nodes = (
(432,225,o),
(470,270,o),
(470,354,c),
(396,357,l),
(399,329,o),
(384,309,o),
(361,309,cs),
(344,309,o),
(305,324,o),
(277,335,c),
(262,342,o),
(241,349,o),
(221,357,c),
(200,364,o),
(178,369,o),
(162,369,cs),
(82,369,o),
(40,319,o),
(40,227,c),
(114,227,l),
(114,264,o),
(127,285,o),
(151,285,cs),
(159,285,o),
(174,281,o),
(190,276,cs),
(206,271,o),
(224,263,o),
(239,258,cs),
(254,253,o),
(275,245,o),
(297,238,cs),
(319,230,o),
(340,225,o),
(356,225,cs)
);
}
);
width = 510;
},
{
layerId = "A90C822B-E05B-4C1D-A0F8-AEE47565E770";
shapes = (
{
closed = 1;
nodes = (
(398,251,o),
(432,281,o),
(432,333,c),
(410,333,l),
(410,289,o),
(385,273,o),
(358,273,cs),
(327,273,o),
(292,291,o),
(273,299,cs),
(254,307,o),
(233,317,o),
(212,325,cs),
(191,333,o),
(169,339,o),
(149,339,cs),
(110,339,o),
(76,308,o),
(76,257,c),
(98,257,l),
(98,298,o),
(122,317,o),
(150,317,cs),
(166,317,o),
(183,312,o),
(199,307,cs),
(215,302,o),
(231,295,o),
(243,288,c),
(255,283,o),
(273,273,o),
(294,265,cs),
(314,257,o),
(338,251,o),
(359,251,cs)
);
}
);
width = 510;
}
);
unicode = 126;
},
{
glyphname = exclamdown;
layers = (
{
layerId = "32C70213-2585-4D1B-95B0-B141A53AEEAA";
shapes = (
{
closed = 1;
nodes = (
(117,264,l),
(108,205,o),
(97,143,o),
(89,80,cs),
(81,16,o),
(75,-46,o),
(75,-105,cs),
(75,-190,l),
(289,-190,l),
(289,-105,ls),
(289,-45,o),
(284,17,o),
(275,80,cs),
(266,143,o),
(256,204,o),
(247,264,c)
);
},
{
closed = 1;
nodes = (
(121,541,o),
(82,501,o),
(82,441,cs),
(82,377,o),
(117,341,o),
(181,341,cs),
(241,341,o),
(280,381,o),
(280,441,cs),
(280,505,o),
(245,541,o),
(181,541,cs)
);
}
);
width = 364;
},
{
layerId = "CCC3D61B-F98C-4821-B26B-81827A7D0F36";
shapes = (
{
closed = 1;
nodes = (
(81,289,l),
(73,232,o),
(67,165,o),
(63,98,cs),
(59,30,o),
(57,-39,o),
(57,-100,cs),
(57,-170,l),
(165,-170,l),
(165,-100,ls),
(165,-41,o),
(163,23,o),
(159,92,cs),
(154,161,o),
(148,226,o),
(141,289,c)
);
},
{
closed = 1;
nodes = (
(73,541,o),
(45,510,o),
(45,466,cs),
(45,418,o),
(70,391,o),
(114,391,cs),
(155,391,o),
(183,422,o),
(183,466,cs),
(183,514,o),
(158,541,o),
(114,541,cs)
);
}
);
width = 236;
},
{
layerId = "A90C822B-E05B-4C1D-A0F8-AEE47565E770";
shapes = (
{
closed = 1;
nodes = (
(118,289,l),
(117,257,o),
(115,225,o),
(115,193,c),
(114,161,o),
(114,127,o),
(114,94,cs),
(115,-170,l),
(137,-170,l),
(137,94,l),
(138,128,o),
(138,161,o),
(137,193,cs),
(136,225,o),
(135,257,o),
(134,289,c)
);
},
{
closed = 1;
nodes = (
(109,538,o),
(98,522,o),
(98,502,cs),
(98,479,o),
(108,466,o),
(129,466,cs),
(148,466,o),
(160,481,o),
(160,502,cs),
(160,525,o),
(149,538,o),
(129,538,cs)
);
}
);
width = 254;
}
);
unicode = 161;
},
{
glyphname = cent;
layers = (
{
layerId = "32C70213-2585-4D1B-95B0-B141A53AEEAA";
shapes = (
{
closed = 1;
nodes = (
(389,78,o),
(434,85,o),
(474,100,cs),
(514,115,o),
(548,135,o),
(572,163,c),
(463,294,l),
(440,269,o),
(408,252,o),
(359,252,cs),
(324,252,o),
(298,263,o),
(279,282,cs),
(260,301,o),
(250,328,o),
(250,357,cs),
(250,388,o),
(260,413,o),
(280,432,cs),
(299,451,o),
(326,461,o),
(359,461,cs),
(383,461,o),
(404,456,o),
(421,449,cs),
(438,441,o),
(451,430,o),
(463,418,c),
(573,548,l),
(522,604,o),
(437,634,o),
(341,634,cs),
(257,634,o),
(184,604,o),
(133,555,cs),
(81,506,o),
(50,436,o),
(50,356,cs),
(50,276,o),
(81,206,o),
(133,157,cs),
(184,108,o),
(257,78,o),
(341,78,cs)
);
},
{
closed = 1;
nodes = (
(421,0,l),
(421,107,l),
(388,145,l),
(388,550,l),
(421,605,l),
(421,710,l),
(284,710,l),
(284,606,l),
(324,550,l),
(324,146,l),
(284,108,l),
(284,0,l)
);
}
);
width = 583;
},
{
layerId = "CCC3D61B-F98C-4821-B26B-81827A7D0F36";
shapes = (
{
closed = 1;
nodes = (
(338,78,o),
(381,88,o),
(419,107,cs),
(457,126,o),
(489,152,o),
(510,181,c),
(453,251,l),
(410,199,o),
(359,171,o),
(306,171,cs),
(261,171,o),
(218,191,o),
(188,223,cs),
(158,255,o),
(138,300,o),
(138,351,cs),
(138,403,o),
(156,448,o),
(186,480,cs),
(216,512,o),
(257,531,o),
(305,531,cs),
(332,531,o),
(361,522,o),
(387,507,cs),
(413,492,o),
(437,472,o),
(453,448,c),
(510,518,l),
(470,583,o),
(388,624,o),
(295,624,cs),
(223,624,o),
(158,594,o),
(113,546,cs),
(68,497,o),
(40,428,o),
(40,351,cs),
(40,274,o),
(68,205,o),
(113,157,cs),
(158,108,o),
(223,78,o),
(295,78,cs)
);
},
{
closed = 1;
nodes = (
(336,0,l),
(336,107,l),
(329,141,l),
(329,572,l),
(336,605,l),
(336,700,l),
(239,700,l),
(239,606,l),
(246,563,l),
(246,145,l),
(239,108,l),
(239,0,l)
);
}
);
width = 535;
},
{
layerId = "A90C822B-E05B-4C1D-A0F8-AEE47565E770";
shapes = (
{
closed = 1;
nodes = (
(352,78,o),
(390,87,o),
(423,103,cs),
(455,118,o),
(484,139,o),
(508,166,c),
(492,181,l),
(448,130,o),
(385,100,o),
(312,100,cs),
(240,100,o),
(179,126,o),
(136,171,cs),
(92,215,o),
(66,278,o),
(66,351,cs),
(66,423,o),
(92,483,o),
(136,527,cs),
(179,570,o),
(240,595,o),
(312,595,cs),
(349,595,o),
(384,588,o),
(415,574,cs),
(446,560,o),
(473,539,o),
(494,514,c),
(510,531,l),
(463,584,o),
(396,617,o),
(312,617,cs),
(233,617,o),
(167,590,o),
(120,543,cs),
(72,495,o),
(44,430,o),
(44,351,cs),
(44,271,o),
(72,203,o),
(120,155,cs),
(167,107,o),
(233,78,o),
(312,78,cs)
);
},
{
closed = 1;
nodes = (
(305,0,l),
(305,85,l),
(305,95,l),
(305,600,l),
(305,612,l),
(305,700,l),
(283,700,l),
(283,612,l),
(283,601,l),
(283,95,l),
(283,85,l),
(283,0,l)
);
}
);
width = 530;
}
);
unicode = 162;
},
{
glyphname = sterling;
layers = (
{
layerId = "32C70213-2585-4D1B-95B0-B141A53AEEAA";
shapes = (
{
closed = 1;
nodes = (
(177,53,l),
(236,88,o),
(275,116,o),
(299,145,cs),
(323,173,o),
(333,200,o),
(333,232,cs),
(333,259,o),
(323,302,o),
(307,353,cs),
(295,392,o),
(284,425,o),
(284,466,cs),
(284,486,o),
(292,504,o),
(306,517,cs),
(320,529,o),
(339,537,o),
(360,537,cs),
(388,537,o),
(409,527,o),
(424,502,c),
(579,625,l),
(544,685,o),
(470,720,o),
(370,720,cs),
(290,720,o),
(223,697,o),
(177,657,cs),
(131,616,o),
(104,558,o),
(104,487,cs),
(104,471,o),
(105,456,o),
(110,436,c),
(114,415,o),
(121,389,o),
(133,352,cs),
(140,333,o),
(150,303,o),
(159,272,cs),
(167,241,o),
(175,211,o),
(175,192,cs),
(175,173,o),
(167,150,o),
(155,128,cs),
(142,106,o),
(123,86,o),
(102,74,c)
);
},
{
closed = 1;
nodes = (
(491,-21,o),
(523,-15,o),
(555,-4,cs),
(587,8,o),
(619,24,o),
(644,47,c),
(556,182,l),
(516,158,o),
(478,147,o),
(454,147,cs),
(410,147,o),
(376,158,o),
(348,169,cs),
(320,180,o),
(299,185,o),
(280,189,cs),
(261,193,o),
(245,194,o),
(224,194,cs),
(149,194,o),
(78,169,o),
(14,130,c),
(84,-16,l),
(133,9,o),
(175,26,o),
(220,26,cs),
(243,26,o),
(263,22,o),
(281,18,cs),
(299,14,o),
(314,8,o),
(327,4,cs),
(342,0,o),
(362,-7,o),
(386,-12,cs),
(410,-17,o),
(437,-21,o),
(466,-21,cs)
);
},
{
closed = 1;
nodes = (
(482,289,l),
(482,389,l),
(44,389,l),
(44,289,l)
);
}
);
width = 659;
},
{
layerId = "CCC3D61B-F98C-4821-B26B-81827A7D0F36";
shapes = (
{
closed = 1;
nodes = (
(197,53,l),
(224,81,o),
(243,109,o),
(256,137,cs),
(269,165,o),
(275,195,o),
(275,224,cs),
(275,264,o),
(258,313,o),
(245,353,cs),
(232,392,o),
(214,445,o),
(214,486,cs),
(214,525,o),
(227,557,o),
(249,580,cs),
(271,603,o),
(303,617,o),
(340,617,cs),
(387,617,o),
(424,601,o),
(455,569,c),
(529,625,l),
(498,678,o),
(429,710,o),
(340,710,cs),
(272,710,o),
(215,688,o),
(176,649,cs),
(136,610,o),
(114,555,o),
(114,487,cs),
(114,471,o),
(115,456,o),
(120,436,c),
(124,415,o),
(131,389,o),
(143,352,cs),
(156,312,o),
(165,284,o),
(170,261,c),
(174,237,o),
(175,220,o),
(175,201,cs),
(175,173,o),
(170,145,o),
(160,122,cs),
(150,99,o),
(137,82,o),
(122,74,c)
);
},
{
closed = 1;
nodes = (
(457,-21,o),
(488,-16,o),
(516,-6,cs),
(544,5,o),
(570,18,o),
(590,37,c),
(538,102,l),
(499,78,o),
(462,67,o),
(425,67,cs),
(396,67,o),
(362,78,o),
(334,89,cs),
(306,100,o),
(285,105,o),
(267,109,cs),
(249,113,o),
(233,114,o),
(214,114,cs),
(147,114,o),
(82,97,o),
(30,65,c),
(70,-6,l),
(119,14,o),
(171,26,o),
(214,26,cs),
(227,26,o),
(246,22,o),
(264,18,cs),
(282,14,o),
(300,8,o),
(313,4,cs),
(328,0,o),
(348,-7,o),
(369,-12,cs),
(389,-17,o),
(409,-21,o),
(425,-21,cs)
);
},
{
closed = 1;
nodes = (
(452,323,l),
(452,408,l),
(44,408,l),
(44,323,l)
);
}
);
width = 610;
},
{
layerId = "A90C822B-E05B-4C1D-A0F8-AEE47565E770";
shapes = (
{
closed = 1;
nodes = (
(168,47,l),
(192,74,o),
(208,99,o),
(217,124,cs),
(226,149,o),
(230,174,o),
(230,202,cs),
(230,257,o),
(219,297,o),
(200,353,cs),
(185,398,o),
(167,454,o),
(167,501,cs),
(167,552,o),
(185,595,o),
(216,625,cs),
(247,655,o),
(289,673,o),
(340,673,cs),
(399,673,o),
(442,658,o),
(491,597,c),
(509,611,l),
(470,667,o),
(420,695,o),
(340,695,cs),
(280,695,o),
(232,676,o),
(198,642,cs),
(164,608,o),
(144,559,o),
(144,502,cs),
(144,485,o),
(145,468,o),
(149,445,cs),
(153,422,o),
(160,393,o),
(173,352,cs),
(186,312,o),
(195,283,o),
(200,260,cs),
(205,237,o),
(207,220,o),
(207,201,cs),
(207,169,o),
(201,138,o),
(190,114,cs),
(178,89,o),
(164,70,o),
(148,62,c)
);
},
{
closed = 1;
nodes = (
(467,-5,o),
(487,-2,o),
(507,5,cs),
(526,12,o),
(545,20,o),
(562,31,c),
(548,49,l),
(513,28,o),
(480,17,o),
(447,17,cs),
(408,17,o),
(373,27,o),
(334,39,cs),
(298,50,o),
(273,58,o),
(252,63,cs),
(231,67,o),
(215,69,o),
(199,69,cs),
(146,69,o),
(103,51,o),
(62,32,c),
(73,13,l),
(117,33,o),
(162,47,o),
(199,47,cs),
(204,47,o),
(223,43,o),
(247,38,cs),
(270,33,o),
(296,26,o),
(313,21,cs),
(336,14,o),
(358,7,o),
(381,3,cs),
(404,-2,o),
(426,-5,o),
(447,-5,cs)
);
},
{
closed = 1;
nodes = (
(437,353,l),
(437,375,l),
(59,375,l),
(59,353,l)
);
}
);
width = 610;
}
);
unicode = 163;
},
{
glyphname = currency;
layers = (
{
layerId = "32C70213-2585-4D1B-95B0-B141A53AEEAA";
shapes = (
{
closed = 1;
nodes = (
(351,100,o),
(408,122,o),
(449,159,cs),
(489,195,o),
(513,248,o),
(513,308,cs),
(513,368,o),
(489,421,o),
(449,458,cs),
(408,494,o),
(351,516,o),
(284,516,cs),
(216,516,o),
(159,494,o),
(118,458,cs),
(77,421,o),
(53,368,o),
(53,308,cs),
(53,248,o),
(77,195,o),
(118,159,cs),
(159,122,o),
(216,100,o),
(284,100,cs)
);
},
{
closed = 1;
nodes = (
(212,124,l),
(95,248,l),
(12,165,l),
(132,44,l)
);
},
{
closed = 1;
nodes = (
(210,495,l),
(132,573,l),
(12,453,l),
(86,379,l)
);
},
{
closed = 1;
nodes = (
(265,240,o),
(249,247,o),
(237,259,cs),
(225,271,o),
(218,288,o),
(218,308,cs),
(218,328,o),
(225,346,o),
(237,358,cs),
(249,370,o),
(265,377,o),
(284,377,cs),
(303,377,o),
(318,370,o),
(330,358,cs),
(341,346,o),
(348,328,o),
(348,308,cs),
(348,288,o),
(341,271,o),
(330,259,cs),
(318,247,o),
(303,240,o),
(284,240,cs)
);
},
{
closed = 1;
nodes = (
(560,165,l),
(477,247,l),
(360,124,l),
(440,44,l)
);
},
{
closed = 1;
nodes = (
(560,453,l),
(440,573,l),
(349,481,l),
(469,362,l)
);
}
);
width = 568;
},
{
layerId = "CCC3D61B-F98C-4821-B26B-81827A7D0F36";
shapes = (
{
closed = 1;
nodes = (
(328,122,o),
(373,142,o),
(405,175,cs),
(437,207,o),
(457,253,o),
(457,302,cs),
(457,351,o),
(437,397,o),
(405,430,c),
(372,462,o),
(327,482,o),
(279,482,cs),
(230,482,o),
(185,462,o),
(153,430,cs),
(121,397,o),
(101,353,o),
(101,302,cs),
(101,253,o),
(121,207,o),
(153,175,cs),
(185,142,o),
(230,122,o),
(279,122,cs)
);
},
{
closed = 1;
nodes = (
(221,179,l),
(150,250,l),
(58,152,l),
(129,82,l)
);
},
{
closed = 1;
nodes = (
(218,429,l),
(120,521,l),
(50,451,l),
(148,359,l)
);
},
{
closed = 1;
nodes = (
(255,210,o),
(235,220,o),
(220,236,cs),
(205,252,o),
(197,275,o),
(197,302,cs),
(197,329,o),
(205,352,o),
(220,369,cs),
(235,385,o),
(255,395,o),
(279,395,cs),
(303,395,o),
(324,385,o),
(339,369,cs),
(354,352,o),
(362,329,o),
(362,302,cs),
(362,275,o),
(354,252,o),
(339,236,cs),
(324,220,o),
(303,210,o),
(279,210,cs)
);
},
{
closed = 1;
nodes = (
(498,160,l),
(400,252,l),
(330,182,l),
(428,90,l)
);
},
{
closed = 1;
nodes = (
(500,460,l),
(429,530,l),
(337,432,l),
(407,362,l)
);
}
);
width = 550;
},
{
layerId = "A90C822B-E05B-4C1D-A0F8-AEE47565E770";
shapes = (
{
closed = 1;
nodes = (
(328,122,o),
(373,142,o),
(405,174,cs),
(437,206,o),
(457,251,o),
(457,302,cs),
(457,353,o),
(437,397,o),
(405,430,c),
(372,462,o),
(327,482,o),
(279,482,cs),
(230,482,o),
(185,462,o),
(153,430,cs),
(121,398,o),
(101,353,o),
(101,302,cs),
(101,251,o),
(121,206,o),
(153,174,cs),
(185,142,o),
(230,122,o),
(279,122,cs)
);
},
{
closed = 1;
nodes = (
(167,178,l),
(151,193,l),
(80,127,l),
(95,110,l)
);
},
{
closed = 1;
nodes = (
(167,428,l),
(95,496,l),
(80,479,l),
(151,413,l)
);
},
{
closed = 1;
nodes = (
(234,144,o),
(195,161,o),
(167,189,cs),
(139,217,o),
(123,257,o),
(123,302,cs),
(123,347,o),
(139,387,o),
(167,415,cs),
(195,443,o),
(234,460,o),
(279,460,cs),
(326,460,o),
(364,443,o),
(392,415,cs),
(419,387,o),
(435,347,o),
(435,302,cs),
(435,257,o),
(419,217,o),
(392,189,cs),
(364,161,o),
(326,144,o),
(279,144,cs)
);
},
{
closed = 1;
nodes = (
(478,127,l),
(407,193,l),
(391,178,l),
(463,110,l)
);
},
{
closed = 1;
nodes = (
(478,479,l),
(463,496,l),
(391,428,l),
(407,413,l)
);
}
);
width = 563;
}
);
unicode = 164;
},
{
glyphname = yen;
layers = (
{
layerId = "32C70213-2585-4D1B-95B0-B141A53AEEAA";
shapes = (
{
closed = 1;
nodes = (
(474,0,l),
(474,357,l),
(459,289,l),
(730,700,l),
(496,700,l),
(301,393,l),
(436,390,l),
(220,700,l),
(-20,700,l),
(263,300,l),
(256,349,l),
(256,0,l)
);
},
{
closed = 1;
nodes = (
(591,148,l),
(591,208,l),
(139,208,l),
(139,148,l)
);
},
{
closed = 1;
nodes = (
(591,258,l),
(591,318,l),
(139,318,l),
(139,258,l)
);
}
);
width = 710;
},
{
layerId = "CCC3D61B-F98C-4821-B26B-81827A7D0F36";
shapes = (
{
closed = 1;
nodes = (
(394,0,l),
(394,357,l),
(379,289,l),
(650,700,l),
(526,700,l),
(331,393,l),
(356,390,l),
(140,700,l),
(10,700,l),
(293,300,l),
(286,349,l),
(286,0,l)
);
},
{
closed = 1;
nodes = (
(558,88,l),
(558,174,l),
(146,176,l),
(146,90,l)
);
},
{
closed = 1;
nodes = (
(558,228,l),
(558,314,l),
(146,316,l),
(146,230,l)
);
}
);
width = 660;
},
{
layerId = "A90C822B-E05B-4C1D-A0F8-AEE47565E770";
shapes = (
{
closed = 1;
nodes = (
(311,0,l),
(311,339,l),
(302,300,l),
(572,700,l),
(545,700,l),
(294,327,l),
(305,327,l),
(47,700,l),
(20,700,l),
(297,300,l),
(289,339,l),
(289,0,l)
);
},
{
closed = 1;
nodes = (
(469,149,l),
(469,171,l),
(131,171,l),
(131,149,l)
);
},
{
closed = 1;
nodes = (
(469,299,l),
(469,321,l),
(131,321,l),
(131,299,l)
);
}
);
width = 592;
}
);
unicode = 165;
},
{
glyphname = brokenbar;
layers = (
{
layerId = "32C70213-2585-4D1B-95B0-B141A53AEEAA";
shapes = (
{
closed = 1;
nodes = (
(292,-202,l),
(292,188,l),
(95,188,l),
(95,-202,l)
);
},
{
closed = 1;
nodes = (
(292,351,l),
(292,740,l),
(95,740,l),
(95,351,l)
);
}
);
width = 387;
},
{
layerId = "CCC3D61B-F98C-4821-B26B-81827A7D0F36";
shapes = (
{
closed = 1;
nodes = (
(168,-202,l),
(168,198,l),
(71,198,l),
(71,-202,l)
);
},
{
closed = 1;
nodes = (
(168,341,l),
(168,740,l),
(71,740,l),
(71,341,l)
);
}
);
width = 239;
},
{
layerId = "A90C822B-E05B-4C1D-A0F8-AEE47565E770";
shapes = (
{
closed = 1;
nodes = (
(123,-202,l),
(123,198,l),
(101,198,l),
(101,-202,l)
);
},
{
closed = 1;
nodes = (
(123,341,l),
(123,740,l),
(101,740,l),
(101,341,l)
);
}
);
width = 224;
}
);
unicode = 166;
},
{
glyphname = section;
layers = (
{
layerId = "32C70213-2585-4D1B-95B0-B141A53AEEAA";
shapes = (
{
closed = 1;
nodes = (
(367,135,l),
(428,140,o),
(476,157,o),
(510,186,cs),
(544,214,o),
(561,248,o),
(561,288,cs),
(561,361,o),
(514,414,o),
(421,455,cs),
(342,490,l),
(322,498,o),
(303,506,o),
(288,515,cs),
(273,523,o),
(264,534,o),
(264,549,cs),
(264,568,o),
(280,581,o),
(319,581,cs),
(352,581,o),
(400,570,o),
(464,519,c),
(566,627,l),
(518,680,o),
(431,720,o),
(318,720,cs),
(229,720,o),
(167,700,o),
(127,669,cs),
(87,638,o),
(70,598,o),
(70,555,cs),
(70,506,o),
(88,467,o),
(121,434,cs),
(154,401,o),
(203,374,o),
(267,346,cs),
(319,323,ls),
(354,307,o),
(370,296,o),
(370,276,cs),
(370,264,o),
(365,253,o),
(355,245,cs),
(345,237,o),
(329,232,o),
(306,229,c)
);
},
{
closed = 1;
nodes = (
(357,-148,o),
(419,-128,o),
(459,-96,cs),
(499,-64,o),
(516,-20,o),
(516,28,cs),
(516,79,o),
(498,114,o),
(465,144,cs),
(432,174,o),
(383,198,o),
(319,226,cs),
(267,249,ls),
(232,265,o),
(216,276,o),
(216,296,cs),
(216,308,o),
(222,319,o),
(232,327,cs),
(242,335,o),
(259,342,o),
(280,343,c),
(219,437,l),
(158,432,o),
(109,414,o),
(76,387,cs),
(43,359,o),
(25,324,o),
(25,284,cs),
(25,211,o),
(72,158,o),
(165,117,cs),
(227,90,ls),
(251,79,o),
(275,71,o),
(293,61,cs),
(311,51,o),
(322,39,o),
(322,26,cs),
(322,3,o),
(306,-9,o),
(267,-9,cs),
(234,-9,o),
(186,2,o),
(122,53,c),
(20,-55,l),
(44,-82,o),
(79,-105,o),
(121,-122,cs),
(163,-138,o),
(212,-148,o),
(268,-148,cs)
);
}
);
width = 594;
},
{
layerId = "CCC3D61B-F98C-4821-B26B-81827A7D0F36";
shapes = (
{
closed = 1;
nodes = (
(323,128,l),
(378,130,o),
(423,143,o),
(458,168,cs),
(492,192,o),
(510,229,o),
(513,278,cs),
(517,354,o),
(469,406,o),
(366,435,cs),
(273,462,ls),
(245,470,o),
(224,482,o),
(212,495,cs),
(199,508,o),
(192,524,o),
(192,541,cs),
(192,586,o),
(234,617,o),
(290,617,cs),
(341,617,o),
(384,598,o),
(419,562,c),
(476,628,l),
(431,684,o),
(371,711,o),
(295,711,cs),
(230,711,o),
(180,693,o),
(146,662,cs),
(112,630,o),
(94,587,o),
(94,536,cs),
(94,476,o),
(120,436,o),
(148,410,cs),
(176,384,o),
(208,371,o),
(220,367,cs),
(349,329,l),
(396,314,o),
(415,297,o),
(415,266,cs),
(415,247,o),
(407,230,o),
(390,217,cs),
(373,204,o),
(347,194,o),
(311,190,c)
);
},
{
closed = 1;
nodes = (
(342,-134,o),
(393,-116,o),
(427,-85,cs),
(461,-54,o),
(478,-10,o),
(478,41,cs),
(478,86,o),
(460,121,o),
(432,147,cs),
(404,173,o),
(367,189,o),
(330,200,cs),
(235,227,ls),
(178,243,o),
(154,268,o),
(154,300,cs),
(154,320,o),
(162,336,o),
(175,349,cs),
(188,362,o),
(207,370,o),
(231,374,c),
(221,444,l),
(166,444,o),
(123,427,o),
(93,399,cs),
(63,371,o),
(47,333,o),
(47,290,cs),
(47,214,o),
(92,163,o),
(185,135,cs),
(303,99,ls),
(326,92,o),
(345,83,o),
(359,72,cs),
(373,60,o),
(380,46,o),
(380,29,cs),
(380,-18,o),
(341,-43,o),
(273,-43,cs),
(217,-43,o),
(153,-12,o),
(105,35,c),
(55,-44,l),
(82,-71,o),
(118,-93,o),
(156,-109,cs),
(194,-125,o),
(235,-134,o),
(274,-134,cs)
);
}
);
width = 549;
},
{
layerId = "A90C822B-E05B-4C1D-A0F8-AEE47565E770";
shapes = (
{
closed = 1;
nodes = (
(354,168,l),
(381,178,o),
(406,194,o),
(427,217,cs),
(448,239,o),
(459,267,o),
(459,302,cs),
(459,347,o),
(439,390,o),
(363,418,cs),
(220,471,ls),
(191,482,o),
(168,497,o),
(154,515,cs),
(140,533,o),
(132,554,o),
(132,575,cs),
(132,643,o),
(190,681,o),
(266,681,cs),
(335,681,o),
(395,653,o),
(440,601,c),
(456,619,l),
(408,675,o),
(339,703,o),
(266,703,cs),
(221,703,o),
(181,692,o),
(153,670,cs),
(125,648,o),
(108,616,o),
(108,576,cs),
(108,544,o),
(118,518,o),
(136,498,cs),
(154,478,o),
(179,463,o),
(208,451,c),
(355,396,ls),
(400,379,o),
(435,356,o),
(435,304,cs),
(435,269,o),
(421,243,o),
(401,223,cs),
(381,203,o),
(357,190,o),
(334,183,c)
);
},
{
closed = 1;
nodes = (
(333,-61,o),
(374,-50,o),
(403,-28,cs),
(432,-6,o),
(449,26,o),
(449,66,cs),
(449,98,o),
(438,124,o),
(419,144,cs),
(399,164,o),
(371,179,o),
(339,191,cs),
(192,246,ls),
(147,263,o),
(112,287,o),
(112,339,cs),
(112,374,o),
(126,399,o),
(146,419,cs),
(166,439,o),
(192,452,o),
(213,459,c),
(192,474,l),
(164,463,o),
(138,446,o),
(119,423,cs),
(100,400,o),
(88,372,o),
(88,340,cs),
(88,295,o),
(108,252,o),
(184,224,cs),
(327,171,ls),
(360,159,o),
(385,145,o),
(401,127,cs),
(417,109,o),
(425,90,o),
(425,67,cs),
(425,-1,o),
(366,-39,o),
(286,-39,cs),
(209,-39,o),
(143,-14,o),
(92,26,c),
(76,8,l),
(103,-15,o),
(135,-31,o),
(171,-43,cs),
(206,-55,o),
(246,-61,o),
(286,-61,cs)
);
}
);
width = 539;
}
);
unicode = 167;
},
{
glyphname = copyright;
layers = (
{
layerId = "32C70213-2585-4D1B-95B0-B141A53AEEAA";
shapes = (
{
closed = 1;
nodes = (
(500,-27,o),
(595,14,o),
(663,82,cs),
(731,150,o),
(773,245,o),
(773,350,cs),
(773,455,o),
(731,550,o),
(663,618,cs),
(595,686,o),
(500,727,o),
(396,727,cs),
(291,727,o),
(196,686,o),
(128,618,cs),
(60,550,o),
(19,455,o),
(19,350,cs),
(19,245,o),
(60,150,o),
(128,82,cs),
(196,14,o),
(291,-27,o),
(396,-27,cs)
);
},
{
closed = 1;
nodes = (
(461,144,o),
(510,158,o),
(554,189,c),
(494,318,l),
(471,301,o),
(448,296,o),
(431,296,cs),
(415,296,o),
(401,302,o),
(391,311,cs),
(381,320,o),
(374,333,o),
(374,349,cs),
(374,364,o),
(381,377,o),
(391,386,cs),
(401,395,o),
(415,401,o),
(431,401,cs),
(448,401,o),
(469,395,o),
(492,379,c),
(550,506,l),
(505,539,o),
(459,557,o),
(410,557,cs),
(351,557,o),
(299,533,o),
(261,496,cs),
(223,459,o),
(199,406,o),
(199,349,cs),
(199,290,o),
(223,239,o),
(261,203,cs),
(299,166,o),
(351,144,o),
(410,144,cs)
);
},
{
closed = 1;
nodes = (
(312,47,o),
(236,80,o),
(181,136,cs),
(126,191,o),
(93,266,o),
(93,350,cs),
(93,434,o),
(126,510,o),
(182,565,cs),
(237,620,o),
(312,653,o),
(396,653,cs),
(480,653,o),
(555,620,o),
(611,565,cs),
(666,510,o),
(699,434,o),
(699,350,cs),
(699,266,o),
(666,191,o),
(611,136,cs),
(555,80,o),
(480,47,o),
(396,47,cs)
);
}
);
width = 794;
},
{
layerId = "CCC3D61B-F98C-4821-B26B-81827A7D0F36";
shapes = (
{
closed = 1;
nodes = (
(492,-7,o),
(581,33,o),
(646,97,cs),
(710,161,o),
(750,250,o),
(750,350,cs),
(750,450,o),
(710,539,o),
(646,603,cs),
(581,667,o),
(492,707,o),
(393,707,cs),
(293,707,o),
(204,667,o),
(140,603,cs),
(76,539,o),
(36,450,o),
(36,350,cs),
(36,250,o),
(76,161,o),
(140,97,cs),
(204,33,o),
(293,-7,o),
(393,-7,cs)
);
},
{
closed = 1;
nodes = (
(458,142,o),
(504,157,o),
(544,185,c),
(507,261,l),
(474,236,o),
(442,223,o),
(411,223,cs),
(375,223,o),
(343,237,o),
(320,259,cs),
(296,281,o),
(283,313,o),
(283,350,cs),
(283,386,o),
(296,417,o),
(320,440,cs),
(343,463,o),
(375,476,o),
(411,476,cs),
(438,476,o),
(464,465,o),
(503,437,c),
(540,512,l),
(501,541,o),
(456,557,o),
(411,557,cs),
(351,557,o),
(298,534,o),
(259,497,cs),
(220,460,o),
(197,407,o),
(197,350,cs),
(197,290,o),
(220,238,o),
(259,201,cs),
(298,164,o),
(351,142,o),
(411,142,cs)
);
},
{
closed = 1;
nodes = (
(314,67,o),
(244,98,o),
(193,150,cs),
(141,201,o),
(110,271,o),
(110,350,cs),
(110,430,o),
(141,500,o),
(193,551,cs),
(244,602,o),
(314,633,o),
(393,633,cs),
(472,633,o),
(542,602,o),
(594,551,cs),
(645,500,o),
(676,430,o),
(676,350,cs),
(676,271,o),
(645,201,o),
(594,150,cs),
(542,98,o),
(472,67,o),
(393,67,cs)
);
}
);
width = 786;
},
{
layerId = "A90C822B-E05B-4C1D-A0F8-AEE47565E770";
shapes = (
{
closed = 1;
nodes = (
(492,-8,o),
(582,31,o),
(646,96,cs),
(710,160,o),
(750,249,o),
(750,349,cs),
(750,449,o),
(710,539,o),
(646,603,cs),
(582,667,o),
(492,707,o),
(392,707,cs),
(292,707,o),
(203,667,o),
(139,603,cs),
(74,539,o),
(35,449,o),
(35,349,cs),
(35,249,o),
(74,160,o),
(139,96,cs),
(203,31,o),
(292,-8,o),
(392,-8,cs)
);
},
{
closed = 1;
nodes = (
(445,142,o),
(491,157,o),
(531,185,c),
(519,201,l),
(483,177,o),
(449,164,o),
(398,164,cs),
(347,164,o),
(302,185,o),
(269,219,cs),
(236,253,o),
(216,298,o),
(216,350,cs),
(216,398,o),
(237,445,o),
(270,479,cs),
(302,513,o),
(349,535,o),
(398,535,cs),
(454,535,o),
(494,510,o),
(514,494,c),
(527,512,l),
(488,541,o),
(443,557,o),
(398,557,cs),
(341,557,o),
(289,534,o),
(253,497,cs),
(216,460,o),
(194,407,o),
(194,350,cs),
(194,290,o),
(216,238,o),
(253,201,cs),
(289,164,o),
(341,142,o),
(398,142,cs)
);
},
{
closed = 1;
nodes = (
(300,14,o),
(215,51,o),
(155,112,cs),
(95,172,o),
(58,257,o),
(58,350,cs),
(58,443,o),
(95,527,o),
(155,588,cs),
(215,648,o),
(300,685,o),
(393,685,cs),
(486,685,o),
(570,648,o),
(630,588,cs),
(690,527,o),
(727,443,o),
(727,350,cs),
(727,257,o),
(690,172,o),
(630,112,cs),
(570,51,o),
(486,14,o),
(393,14,cs)
);
}
);
width = 786;
}
);
unicode = 169;
},
{
glyphname = ordfeminine;
layers = (
{
layerId = "32C70213-2585-4D1B-95B0-B141A53AEEAA";
shapes = (
{
closed = 1;
nodes = (
(180,390,o),
(211,404,o),
(232,425,cs),
(252,445,o),
(262,474,o),
(262,502,c),
(237,474,l),
(237,401,l),
(370,401,l),
(370,715,l),
(237,715,l),
(237,648,l),
(262,602,l),
(262,679,o),
(229,722,o),
(149,722,cs),
(112,722,o),
(79,705,o),
(56,677,cs),
(33,648,o),
(20,609,o),
(20,562,cs),
(20,510,o),
(31,468,o),
(52,438,cs),
(72,408,o),
(101,390,o),
(137,390,cs)
);
},
{
closed = 1;
nodes = (
(181,498,o),
(170,504,o),
(163,515,cs),
(155,526,o),
(151,540,o),
(151,559,cs),
(151,575,o),
(156,589,o),
(164,599,cs),
(172,609,o),
(183,614,o),
(195,614,cs),
(210,614,o),
(221,608,o),
(229,599,cs),
(237,590,o),
(241,575,o),
(241,558,cs),
(241,541,o),
(237,525,o),
(229,515,cs),
(221,505,o),
(209,498,o),
(196,498,cs)
);
}
);
width = 410;
},
{
layerId = "CCC3D61B-F98C-4821-B26B-81827A7D0F36";
shapes = (
{
closed = 1;
nodes = (
(174,391,o),
(202,406,o),
(223,429,cs),
(244,452,o),
(257,483,o),
(257,512,c),
(242,474,l),
(242,401,l),
(335,401,l),
(335,715,l),
(242,715,l),
(242,648,l),
(257,592,l),
(257,676,o),
(220,721,o),
(155,721,cs),
(114,721,o),
(78,704,o),
(54,676,cs),
(29,648,o),
(15,609,o),
(15,562,cs),
(15,510,o),
(28,468,o),
(50,438,cs),
(72,408,o),
(103,391,o),
(143,391,cs)
);
},
{
closed = 1;
nodes = (
(152,458,o),
(136,469,o),
(125,487,cs),
(114,505,o),
(108,530,o),
(108,562,cs),
(108,587,o),
(115,611,o),
(127,628,cs),
(138,644,o),
(154,654,o),
(171,654,cs),
(195,654,o),
(213,644,o),
(226,628,cs),
(239,611,o),
(246,586,o),
(246,555,cs),
(246,526,o),
(238,501,o),
(226,485,cs),
(213,468,o),
(195,458,o),
(172,458,cs)
);
}
);
width = 365;
},
{
layerId = "A90C822B-E05B-4C1D-A0F8-AEE47565E770";
shapes = (
{
closed = 1;
nodes = (
(204,402,o),
(232,411,o),
(253,425,cs),
(274,439,o),
(291,459,o),
(299,484,c),
(290,478,l),
(290,403,l),
(310,403,l),
(310,716,l),
(291,716,l),
(290,644,l),
(299,641,l),
(283,690,o),
(233,721,o),
(176,721,cs),
(135,721,o),
(98,703,o),
(72,675,cs),
(46,646,o),
(30,606,o),
(30,561,cs),
(30,516,o),
(46,476,o),
(72,448,cs),
(98,419,o),
(135,402,o),
(176,402,cs)
);
},
{
closed = 1;
nodes = (
(139,422,o),
(108,438,o),
(86,463,cs),
(64,487,o),
(50,522,o),
(50,561,cs),
(50,601,o),
(64,636,o),
(86,661,cs),
(108,686,o),
(139,701,o),
(175,701,cs),
(208,701,o),
(238,693,o),
(259,671,cs),
(279,649,o),
(292,613,o),
(292,561,cs),
(292,509,o),
(279,475,o),
(259,453,cs),
(238,431,o),
(208,422,o),
(175,422,cs)
);
}
);
width = 365;
}
);
unicode = 170;
},
{
glyphname = logicalnot;
layers = (
{
layerId = "32C70213-2585-4D1B-95B0-B141A53AEEAA";
shapes = (
{
closed = 1;
nodes = (
(635,97,l),
(635,424,l),
(35,424,l),
(35,254,l),
(549,254,l),
(450,319,l),
(450,97,l)
);
}
);
width = 670;
},
{
layerId = "CCC3D61B-F98C-4821-B26B-81827A7D0F36";
shapes = (
{
closed = 1;
nodes = (
(620,117,l),
(620,404,l),
(50,404,l),
(50,307,l),
(534,307,l),
(515,319,l),
(515,117,l)
);
}
);
width = 670;
},
{
layerId = "A90C822B-E05B-4C1D-A0F8-AEE47565E770";
shapes = (
{
closed = 1;
nodes = (
(605,117,l),
(605,389,l),
(65,389,l),
(65,367,l),
(594,367,l),
(583,379,l),
(583,117,l)
);
}
);
width = 670;
}
);
unicode = 172;
},
{
glyphname = registered;
layers = (
{
layerId = "32C70213-2585-4D1B-95B0-B141A53AEEAA";
shapes = (
{
closed = 1;
nodes = (
(332,219,o),
(396,248,o),
(443,296,cs),
(490,344,o),
(519,411,o),
(519,484,cs),
(519,557,o),
(490,624,o),
(443,672,cs),
(395,720,o),
(331,749,o),
(260,749,cs),
(185,749,o),
(118,720,o),
(69,672,cs),
(20,624,o),
(-10,559,o),
(-10,484,cs),
(-10,411,o),
(20,344,o),
(69,296,cs),
(117,248,o),
(184,219,o),
(260,219,cs)
);
},
{
closed = 1;
nodes = (
(203,283,o),
(151,305,o),
(114,341,cs),
(77,377,o),
(54,428,o),
(54,484,cs),
(54,540,o),
(78,590,o),
(115,627,cs),
(152,663,o),
(204,685,o),
(260,685,cs),
(313,685,o),
(362,663,o),
(398,627,c),
(433,590,o),
(455,540,o),
(455,484,cs),
(455,428,o),
(433,378,o),
(398,342,cs),
(362,305,o),
(313,283,o),
(260,283,cs)
);
},
{
closed = 1;
nodes = (
(399,367,l),
(336,466,l),
(257,447,l),
(294,367,l)
);
},
{
closed = 1;
nodes = (
(246,367,l),
(246,460,l),
(235,446,l),
(279,446,ls),
(331,446,o),
(373,479,o),
(373,527,cs),
(373,574,o),
(335,606,o),
(279,606,cs),
(149,606,l),
(149,367,l)
);
},
{
closed = 1;
nodes = (
(246,544,l),
(235,536,l),
(261,536,ls),
(272,536,o),
(278,530,o),
(278,519,cs),
(278,508,o),
(270,502,o),
(259,502,cs),
(235,502,l),
(246,495,l)
);
}
);
width = 507;
},
{
layerId = "CCC3D61B-F98C-4821-B26B-81827A7D0F36";
shapes = (
{
closed = 1;
nodes = (
(323,259,o),
(380,284,o),
(421,325,cs),
(462,365,o),
(488,421,o),
(488,484,cs),
(488,547,o),
(463,602,o),
(421,643,cs),
(379,684,o),
(322,709,o),
(259,709,cs),
(195,709,o),
(139,684,o),
(97,644,cs),
(55,603,o),
(29,547,o),
(29,484,cs),
(29,421,o),
(55,365,o),
(96,325,cs),
(137,284,o),
(195,259,o),
(259,259,cs)
);
},
{
closed = 1;
nodes = (
(212,322,o),
(171,340,o),
(140,369,cs),
(109,398,o),
(91,439,o),
(91,484,cs),
(91,529,o),
(109,571,o),
(140,600,cs),
(171,629,o),
(212,647,o),
(259,647,cs),
(306,647,o),
(347,629,o),
(377,600,cs),
(407,571,o),
(425,529,o),
(425,484,cs),
(425,439,o),
(407,398,o),
(377,369,cs),
(347,340,o),
(306,322,o),
(259,322,cs)
);
},
{
closed = 1;
nodes = (
(352,367,l),
(308,481,l),
(255,467,l),
(292,367,l)
);
},
{
closed = 1;
nodes = (
(229,367,l),
(229,470,l),
(211,461,l),
(282,461,ls),
(323,461,o),
(356,491,o),
(356,534,cs),
(356,577,o),
(326,606,o),
(282,606,cs),
(172,606,l),
(172,367,l)
);
},
{
closed = 1;
nodes = (
(229,564,l),
(210,556,l),
(264,556,ls),
(288,556,o),
(301,546,o),
(301,529,cs),
(301,513,o),
(285,502,o),
(262,502,cs),
(213,502,l),
(229,495,l)
);
}
);
width = 507;
},
{
layerId = "A90C822B-E05B-4C1D-A0F8-AEE47565E770";
shapes = (
{
closed = 1;
nodes = (
(323,257,o),
(381,282,o),
(423,323,cs),
(465,364,o),
(490,420,o),
(490,483,cs),
(490,546,o),
(465,602,o),
(423,643,cs),
(381,684,o),
(323,709,o),
(259,709,cs),
(196,709,o),
(139,684,o),
(97,643,cs),
(55,602,o),
(28,546,o),
(28,483,cs),
(28,420,o),
(54,364,o),
(96,323,cs),
(138,282,o),
(195,257,o),
(259,257,cs)
);
},
{
closed = 1;
nodes = (
(202,277,o),
(149,300,o),
(111,337,cs),
(73,374,o),
(48,426,o),
(48,483,cs),
(48,542,o),
(73,593,o),
(111,630,cs),
(149,666,o),
(202,689,o),
(259,689,cs),
(318,689,o),
(371,666,o),
(409,630,cs),
(447,593,o),
(470,542,o),
(470,483,cs),
(470,426,o),
(447,374,o),
(409,337,cs),
(371,300,o),
(318,277,o),
(259,277,cs)
);
},
{
closed = 1;
nodes = (
(337,367,l),
(292,479,l),
(273,471,l),
(314,367,l)
);
},
{
closed = 1;
nodes = (
(211,367,l),
(211,469,l),
(204,464,l),
(268,464,ls),
(312,464,o),
(345,492,o),
(345,532,cs),
(345,576,o),
(315,606,o),
(268,606,cs),
(191,606,l),
(191,367,l)
);
},
{
closed = 1;
nodes = (
(211,594,l),
(200,586,l),
(265,586,ls),
(305,586,o),
(324,566,o),
(324,533,cs),
(324,505,o),
(299,484,o),
(263,484,cs),
(204,484,l),
(211,478,l)
);
}
);
width = 525;
}
);
unicode = 174;
},
{
glyphname = degree;
layers = (
{
layerId = "32C70213-2585-4D1B-95B0-B141A53AEEAA";
shapes = (
{
closed = 1;
nodes = (
(315,389,o),
(359,408,o),
(391,437,cs),
(423,466,o),
(442,508,o),
(442,555,cs),
(442,600,o),
(423,642,o),
(392,671,cs),
(360,700,o),
(317,719,o),
(266,719,cs),
(215,719,o),
(172,702,o),
(141,672,cs),
(109,642,o),
(90,600,o),
(90,553,cs),
(90,508,o),
(109,466,o),
(141,437,cs),
(173,408,o),
(217,389,o),
(266,389,cs)
);
},
{
closed = 1;
nodes = (
(254,506,o),
(242,511,o),
(234,520,cs),
(226,528,o),
(221,540,o),
(221,553,cs),
(221,566,o),
(225,579,o),
(233,588,cs),
(241,596,o),
(253,601,o),
(266,601,cs),
(278,601,o),
(290,596,o),
(298,588,cs),
(306,579,o),
(311,567,o),
(311,554,cs),
(311,541,o),
(306,528,o),
(298,520,cs),
(290,511,o),
(279,506,o),
(266,506,cs)
);
}
);
width = 532;
},
{
layerId = "CCC3D61B-F98C-4821-B26B-81827A7D0F36";
shapes = (
{
closed = 1;
nodes = (
(310,399,o),
(349,416,o),
(377,444,cs),
(405,472,o),
(422,510,o),
(422,554,cs),
(422,598,o),
(405,636,o),
(377,664,cs),
(349,692,o),
(310,709,o),
(266,709,cs),
(222,709,o),
(183,692,o),
(155,664,cs),
(127,636,o),
(110,597,o),
(110,553,cs),
(110,510,o),
(127,472,o),
(155,444,cs),
(183,416,o),
(222,399,o),
(266,399,cs)
);
},
{
closed = 1;
nodes = (
(243,466,o),
(224,476,o),
(209,492,cs),
(194,507,o),
(185,529,o),
(185,553,cs),
(185,577,o),
(193,599,o),
(208,615,cs),
(223,631,o),
(242,641,o),
(266,641,cs),
(289,641,o),
(308,631,o),
(323,616,cs),
(338,600,o),
(347,578,o),
(347,554,cs),
(347,530,o),
(338,508,o),
(323,492,cs),
(308,476,o),
(289,466,o),
(266,466,cs)
);
}
);
width = 532;
},
{
layerId = "A90C822B-E05B-4C1D-A0F8-AEE47565E770";
shapes = (
{
closed = 1;
nodes = (
(310,399,o),
(349,416,o),
(377,444,cs),
(405,472,o),
(422,510,o),
(422,554,cs),
(422,598,o),
(405,636,o),
(377,664,cs),
(349,692,o),
(310,709,o),
(266,709,cs),
(222,709,o),
(183,692,o),
(155,664,cs),
(127,636,o),
(110,597,o),
(110,553,cs),
(110,510,o),
(127,472,o),
(155,444,cs),
(183,416,o),
(222,399,o),
(266,399,cs)
);
},
{
closed = 1;
nodes = (
(230,421,o),
(196,436,o),
(172,460,cs),
(147,484,o),
(132,517,o),
(132,553,cs),
(132,589,o),
(147,623,o),
(172,648,cs),
(196,672,o),
(230,687,o),
(266,687,cs),
(302,687,o),
(336,672,o),
(360,648,cs),
(384,623,o),
(400,590,o),
(400,554,cs),
(400,518,o),
(385,485,o),
(361,461,cs),
(336,436,o),
(302,421,o),
(266,421,cs)
);
}
);
width = 532;
}
);
unicode = 176;
},
{
glyphname = plusminus;
layers = (
{
layerId = "32C70213-2585-4D1B-95B0-B141A53AEEAA";
shapes = (
{
closed = 1;
nodes = (
(601,333,l),
(601,493,l),
(80,493,l),
(80,333,l)
);
},
{
closed = 1;
nodes = (
(604,-10,l),
(604,150,l),
(83,150,l),
(83,-10,l)
);
},
{
closed = 1;
nodes = (
(433,214,l),
(433,607,l),
(248,607,l),
(248,214,l)
);
}
);
width = 684;
},
{
layerId = "CCC3D61B-F98C-4821-B26B-81827A7D0F36";
shapes = (
{
closed = 1;
nodes = (
(532,285,l),
(532,375,l),
(50,375,l),
(50,285,l)
);
},
{
closed = 1;
nodes = (
(532,-1,l),
(532,91,l),
(50,91,l),
(50,-1,l)
);
},
{
closed = 1;
nodes = (
(344,143,l),
(344,534,l),
(240,534,l),
(240,143,l)
);
}
);
width = 582;
},
{
layerId = "A90C822B-E05B-4C1D-A0F8-AEE47565E770";
shapes = (
{
closed = 1;
nodes = (
(541,346,l),
(541,368,l),
(65,368,l),
(65,346,l)
);
},
{
closed = 1;
nodes = (
(541,68,l),
(541,90,l),
(65,90,l),
(65,68,l)
);
},
{
closed = 1;
nodes = (
(314,183,l),
(314,525,l),
(291,525,l),
(291,183,l)
);
}
);
width = 606;
}
);
unicode = 177;
},
{
glyphname = micro;
layers = (
{
layerId = "32C70213-2585-4D1B-95B0-B141A53AEEAA";
shapes = (
{
closed = 1;
nodes = (
(273,-165,l),
(263,69,l),
(243,-13,l),
(244,-13,o),
(246,-13,o),
(249,-13,cs),
(252,-13,o),
(256,-12,o),
(261,-12,c),
(302,-8,o),
(333,-2,o),
(359,13,cs),
(385,27,o),
(407,48,o),
(432,83,c),
(410,89,l),
(421,0,l),
(607,0,l),
(607,535,l),
(404,535,l),
(404,217,ls),
(404,200,o),
(397,183,o),
(385,172,cs),
(373,161,o),
(356,154,o),
(336,154,cs),
(296,154,o),
(273,178,o),
(273,222,cs),
(273,535,l),
(70,535,l),
(70,-165,l)
);
}
);
width = 679;
},
{
layerId = "CCC3D61B-F98C-4821-B26B-81827A7D0F36";
shapes = (
{
closed = 1;
nodes = (
(177,-157,l),
(177,62,l),
(170,49,l),
(177,32,o),
(191,17,o),
(209,7,cs),
(227,-4,o),
(249,-10,o),
(269,-10,cs),
(304,-10,o),
(336,-1,o),
(364,18,cs),
(392,36,o),
(414,64,o),
(426,100,c),
(419,114,l),
(419,0,l),
(516,0,l),
(516,525,l),
(419,525,l),
(419,222,ls),
(419,182,o),
(404,148,o),
(380,122,cs),
(356,96,o),
(323,80,o),
(284,80,cs),
(212,80,o),
(177,126,o),
(177,222,cs),
(177,525,l),
(80,525,l),
(80,-157,l)
);
}
);
width = 586;
},
{
layerId = "A90C822B-E05B-4C1D-A0F8-AEE47565E770";
shapes = (
{
closed = 1;
nodes = (
(95,-157,l),
(95,103,l),
(78,149,l),
(86,88,o),
(108,47,o),
(141,23,cs),
(173,-1,o),
(215,-10,o),
(263,-10,cs),
(304,-10,o),
(344,0,o),
(379,24,cs),
(414,47,o),
(443,84,o),
(463,140,c),
(443,140,l),
(449,0,l),
(469,0,l),
(469,525,l),
(447,525,l),
(447,192,ls),
(447,145,o),
(427,100,o),
(395,67,cs),
(362,34,o),
(315,12,o),
(263,12,cs),
(147,12,o),
(95,74,o),
(95,174,cs),
(95,525,l),
(73,525,l),
(73,-157,l)
);
}
);
width = 549;
}
);
unicode = 181;
},
{
glyphname = paragraph;
layers = (
{
layerId = "32C70213-2585-4D1B-95B0-B141A53AEEAA";
shapes = (
{
closed = 1;
nodes = (
(456,0,l),
(456,652,l),
(352,596,l),
(589,596,l),
(513,660,l),
(513,0,l),
(721,0,l),
(721,700,l),
(265,700,ls),
(197,700,o),
(141,679,o),
(102,640,cs),
(62,601,o),
(40,548,o),
(40,481,cs),
(40,420,o),
(60,366,o),
(94,329,cs),
(128,292,o),
(175,269,o),
(228,269,cs),
(312,269,l),
(248,314,l),
(248,0,l)
);
}
);
width = 801;
},
{
layerId = "CCC3D61B-F98C-4821-B26B-81827A7D0F36";
shapes = (
{
closed = 1;
nodes = (
(354,0,l),
(354,652,l),
(310,596,l),
(522,596,l),
(506,660,l),
(506,0,l),
(614,0,l),
(614,700,l),
(273,700,ls),
(205,700,o),
(149,678,o),
(110,641,cs),
(70,604,o),
(48,550,o),
(48,486,cs),
(48,426,o),
(68,374,o),
(102,338,cs),
(136,301,o),
(183,279,o),
(236,279,cs),
(270,279,l),
(246,314,l),
(246,0,l)
);
}
);
width = 712;
},
{
layerId = "A90C822B-E05B-4C1D-A0F8-AEE47565E770";
shapes = (
{
closed = 1;
nodes = (
(319,0,l),
(319,690,l),
(308,678,l),
(448,678,l),
(437,690,l),
(437,0,l),
(459,0,l),
(459,700,l),
(280,700,ls),
(212,700,o),
(156,678,o),
(117,641,cs),
(77,604,o),
(55,550,o),
(55,486,cs),
(55,426,o),
(75,374,o),
(109,338,cs),
(143,301,o),
(190,279,o),
(243,279,cs),
(308,279,l),
(297,291,l),
(297,0,l)
);
}
);
width = 570;
}
);
unicode = 182;
},
{
glyphname = ordmasculine;
layers = (
{
layerId = "32C70213-2585-4D1B-95B0-B141A53AEEAA";
shapes = (
{
closed = 1;
nodes = (
(268,393,o),
(312,411,o),
(344,440,cs),
(375,468,o),
(394,509,o),
(394,556,cs),
(394,603,o),
(375,644,o),
(343,673,cs),
(311,702,o),
(267,721,o),
(216,721,cs),
(165,721,o),
(122,704,o),
(91,674,cs),
(59,644,o),
(40,603,o),
(40,556,cs),
(40,508,o),
(59,468,o),
(91,439,cs),
(122,410,o),
(165,393,o),
(216,393,cs)
);
},
{
closed = 1;
nodes = (
(201,488,o),
(190,495,o),
(182,507,cs),
(174,519,o),
(170,538,o),
(170,559,cs),
(170,578,o),
(175,593,o),
(183,605,cs),
(191,617,o),
(203,624,o),
(215,624,cs),
(230,624,o),
(241,618,o),
(249,607,cs),
(256,596,o),
(260,579,o),
(260,559,cs),
(260,539,o),
(256,521,o),
(248,509,cs),
(240,496,o),
(229,488,o),
(216,488,cs)
);
}
);
width = 434;
},
{
layerId = "CCC3D61B-F98C-4821-B26B-81827A7D0F36";
shapes = (
{
closed = 1;
nodes = (
(221,392,o),
(261,409,o),
(289,437,cs),
(317,465,o),
(334,505,o),
(334,549,cs),
(334,594,o),
(317,635,o),
(289,664,c),
(260,692,o),
(220,710,o),
(176,710,cs),
(132,710,o),
(93,693,o),
(65,664,cs),
(37,635,o),
(20,596,o),
(20,549,cs),
(20,504,o),
(37,464,o),
(65,436,cs),
(93,408,o),
(132,392,o),
(176,392,cs)
);
},
{
closed = 1;
nodes = (
(156,463,o),
(139,472,o),
(127,487,cs),
(115,502,o),
(108,524,o),
(108,549,cs),
(108,576,o),
(115,598,o),
(127,614,cs),
(139,630,o),
(156,639,o),
(176,639,cs),
(196,639,o),
(214,630,o),
(226,614,cs),
(238,598,o),
(245,576,o),
(245,549,cs),
(245,524,o),
(238,502,o),
(226,487,cs),
(214,472,o),
(196,463,o),
(176,463,cs)
);
}
);
width = 354;
},
{
layerId = "A90C822B-E05B-4C1D-A0F8-AEE47565E770";
shapes = (
{
closed = 1;
nodes = (
(220,392,o),
(255,411,o),
(280,441,cs),
(305,471,o),
(320,513,o),
(320,561,cs),
(320,609,o),
(305,651,o),
(280,682,cs),
(255,713,o),
(220,731,o),
(180,731,cs),
(140,731,o),
(105,713,o),
(81,682,cs),
(56,651,o),
(40,609,o),
(40,561,cs),
(40,513,o),
(56,471,o),
(81,441,cs),
(105,411,o),
(140,392,o),
(180,392,cs)
);
},
{
closed = 1;
nodes = (
(146,412,o),
(115,428,o),
(94,455,cs),
(73,482,o),
(60,520,o),
(60,561,cs),
(60,604,o),
(73,641,o),
(94,668,cs),
(115,695,o),
(146,711,o),
(179,711,cs),
(214,711,o),
(244,695,o),
(265,668,cs),
(286,641,o),
(300,604,o),
(300,561,cs),
(300,520,o),
(288,482,o),
(266,455,cs),
(244,428,o),
(214,412,o),
(179,412,cs)
);
}
);
width = 360;
}
);
unicode = 186;
},
{
glyphname = questiondown;
layers = (
{
layerId = "32C70213-2585-4D1B-95B0-B141A53AEEAA";
shapes = (
{
closed = 1;
nodes = (
(394,510,o),
(359,546,o),
(299,546,cs),
(235,546,o),
(196,506,o),
(196,442,cs),
(196,382,o),
(231,346,o),
(291,346,cs),
(355,346,o),
(394,386,o),
(394,450,cs)
);
},
{
closed = 1;
nodes = (
(241,317,l),
(172,244,l),
(216,227,ls),
(240,218,o),
(250,206,o),
(250,198,cs),
(250,189,o),
(239,179,o),
(212,167,cs),
(183,154,ls),
(106,119,o),
(69,77,o),
(69,0,cs),
(69,-121,o),
(160,-185,o),
(282,-185,cs),
(406,-185,o),
(487,-119,o),
(520,-61,c),
(416,30,l),
(397,-10,o),
(349,-28,o),
(315,-28,cs),
(274,-28,o),
(273,-1,o),
(273,7,cs),
(273,46,o),
(295,66,o),
(321,78,cs),
(347,90,ls),
(401,115,o),
(435,148,o),
(435,194,cs),
(435,245,o),
(393,280,o),
(303,302,cs)
);
}
);
width = 554;
},
{
layerId = "CCC3D61B-F98C-4821-B26B-81827A7D0F36";
shapes = (
{
closed = 1;
nodes = (
(333,521,o),
(311,546,o),
(271,546,cs),
(228,546,o),
(203,518,o),
(203,475,cs),
(203,435,o),
(225,411,o),
(265,411,cs),
(308,411,o),
(333,438,o),
(333,481,cs)
);
},
{
closed = 1;
nodes = (
(232,342,l),
(189,295,l),
(237,272,ls),
(261,260,o),
(272,238,o),
(272,222,cs),
(272,202,o),
(256,187,o),
(219,166,cs),
(182,145,ls),
(108,103,o),
(73,60,o),
(73,-13,cs),
(73,-122,o),
(151,-180,o),
(259,-180,cs),
(359,-180,o),
(429,-130,o),
(463,-81,c),
(400,-26,l),
(372,-62,o),
(326,-87,o),
(279,-87,cs),
(224,-87,o),
(193,-53,o),
(193,-6,cs),
(193,36,o),
(217,62,o),
(269,90,cs),
(288,100,ls),
(352,134,o),
(382,170,o),
(382,215,cs),
(382,258,o),
(354,297,o),
(292,320,cs)
);
}
);
width = 500;
},
{
layerId = "A90C822B-E05B-4C1D-A0F8-AEE47565E770";
shapes = (
{
closed = 1;
nodes = (
(264,534,o),
(255,545,o),
(239,545,cs),
(221,545,o),
(212,531,o),
(212,512,cs),
(212,496,o),
(219,485,o),
(236,485,cs),
(254,485,o),
(264,498,o),
(264,516,cs)
);
},
{
closed = 1;
nodes = (
(222,371,l),
(210,354,l),
(262,314,ls),
(285,296,o),
(298,275,o),
(298,245,cs),
(298,207,o),
(276,184,o),
(228,154,cs),
(182,124,ls),
(108,76,o),
(77,40,o),
(77,-27,cs),
(77,-123,o),
(141,-175,o),
(233,-175,cs),
(306,-175,o),
(362,-142,o),
(397,-105,c),
(381,-90,l),
(344,-122,o),
(300,-154,o),
(237,-154,cs),
(166,-154,o),
(101,-113,o),
(101,-30,cs),
(101,25,o),
(130,64,o),
(209,115,cs),
(220,122,ls),
(293,169,o),
(322,196,o),
(322,245,cs),
(322,273,o),
(312,306,o),
(279,330,cs)
);
}
);
width = 438;
}
);
unicode = 191;
},
{
glyphname = AE;
layers = (
{
layerId = "32C70213-2585-4D1B-95B0-B141A53AEEAA";
shapes = (
{
closed = 1;
nodes = (
(221,0,l),
(597,550,l),
(572,558,l),
(572,299,l),
(409,299,l),
(297,135,l),
(572,135,l),
(572,0,l),
(1107,0,l),
(1107,175,l),
(779,175,l),
(779,272,l),
(1062,272,l),
(1062,436,l),
(779,436,l),
(779,525,l),
(1107,525,l),
(1107,700,l),
(468,700,l),
(-20,0,l)
);
}
);
width = 1154;
},
{
layerId = "CCC3D61B-F98C-4821-B26B-81827A7D0F36";
shapes = (
{
closed = 1;
nodes = (
(114,0,l),
(490,550,l),
(465,558,l),
(465,245,l),
(266,245,l),
(203,153,l),
(465,153,l),
(465,0,l),
(894,0,l),
(894,93,l),
(566,93,l),
(566,308,l),
(849,308,l),
(849,402,l),
(566,402,l),
(566,607,l),
(894,607,l),
(894,700,l),
(493,700,l),
(5,0,l)
);
}
);
width = 969;
},
{
layerId = "A90C822B-E05B-4C1D-A0F8-AEE47565E770";
shapes = (
{
closed = 1;
nodes = (
(28,0,l),
(492,687,l),
(486,691,l),
(486,238,l),
(182,238,l),
(167,216,l),
(486,216,l),
(486,0,l),
(861,0,l),
(861,22,l),
(508,22,l),
(508,350,l),
(804,350,l),
(804,372,l),
(508,372,l),
(508,678,l),
(861,678,l),
(861,700,l),
(476,700,l),
(0,0,l)
);
}
);
width = 926;
}
);
leftKerningGroup = AE;
rightKerningGroup = E;
unicode = 198;
},
{
glyphname = Eth;
layers = (
{
layerId = "32C70213-2585-4D1B-95B0-B141A53AEEAA";
shapes = (
{
closed = 1;
nodes = (
(393,280,l),
(393,420,l),
(25,420,l),
(25,280,l)
);
},
{
closed = 1;
nodes = (
(388,0,ls),
(493,0,o),
(584,37,o),
(648,99,cs),
(712,161,o),
(750,249,o),
(750,350,cs),
(750,453,o),
(712,540,o),
(648,602,cs),
(584,664,o),
(493,700,o),
(388,700,cs),
(80,700,l),
(80,0,l)
);
},
{
closed = 1;
nodes = (
(296,565,l),
(256,516,l),
(383,516,ls),
(427,516,o),
(463,498,o),
(490,469,cs),
(517,440,o),
(532,398,o),
(532,350,cs),
(532,302,o),
(517,260,o),
(490,231,cs),
(463,202,o),
(427,184,o),
(383,184,cs),
(259,184,l),
(296,133,l)
);
}
);
width = 790;
},
{
layerId = "CCC3D61B-F98C-4821-B26B-81827A7D0F36";
shapes = (
{
closed = 1;
nodes = (
(317,305,l),
(317,395,l),
(49,395,l),
(49,305,l)
);
},
{
closed = 1;
nodes = (
(372,0,ls),
(472,0,o),
(555,36,o),
(612,97,cs),
(668,158,o),
(700,246,o),
(700,350,cs),
(700,454,o),
(668,542,o),
(611,603,cs),
(554,664,o),
(472,700,o),
(372,700,cs),
(98,700,l),
(98,0,l)
);
},
{
closed = 1;
nodes = (
(206,605,l),
(200,596,l),
(367,596,ls),
(438,596,o),
(492,573,o),
(531,530,cs),
(570,487,o),
(590,426,o),
(590,350,cs),
(590,274,o),
(570,212,o),
(532,170,cs),
(494,128,o),
(438,104,o),
(367,104,cs),
(203,104,l),
(206,93,l)
);
}
);
width = 748;
},
{
layerId = "A90C822B-E05B-4C1D-A0F8-AEE47565E770";
shapes = (
{
closed = 1;
nodes = (
(292,339,l),
(292,360,l),
(24,360,l),
(24,339,l)
);
},
{
closed = 1;
nodes = (
(357,0,ls),
(442,0,o),
(524,38,o),
(584,100,cs),
(644,162,o),
(682,250,o),
(682,350,cs),
(682,451,o),
(644,540,o),
(584,602,cs),
(524,664,o),
(442,700,o),
(357,700,cs),
(110,700,l),
(110,0,l)
);
},
{
closed = 1;
nodes = (
(132,689,l),
(121,678,l),
(352,678,ls),
(432,678,o),
(509,643,o),
(566,584,cs),
(622,525,o),
(659,443,o),
(659,350,cs),
(659,258,o),
(622,176,o),
(566,117,cs),
(509,57,o),
(432,22,o),
(352,22,cs),
(122,22,l),
(132,13,l)
);
}
);
width = 737;
}
);
leftKerningGroup = B;
rightKerningGroup = D;
unicode = 208;
},
{
glyphname = multiply;
layers = (
{
layerId = "32C70213-2585-4D1B-95B0-B141A53AEEAA";
shapes = (
{
closed = 1;
nodes = (
(528,155,l),
(160,523,l),
(40,403,l),
(408,34,l)
);
},
{
closed = 1;
nodes = (
(528,403,l),
(408,523,l),
(40,155,l),
(160,34,l)
);
}
);
width = 568;
},
{
layerId = "CCC3D61B-F98C-4821-B26B-81827A7D0F36";
shapes = (
{
closed = 1;
nodes = (
(449,137,l),
(99,486,l),
(35,426,l),
(385,78,l)
);
},
{
closed = 1;
nodes = (
(447,422,l),
(387,486,l),
(39,136,l),
(98,71,l)
);
}
);
width = 484;
},
{
layerId = "A90C822B-E05B-4C1D-A0F8-AEE47565E770";
shapes = (
{
closed = 1;
nodes = (
(404,123,l),
(66,460,l),
(49,445,l),
(387,108,l)
);
},
{
closed = 1;
nodes = (
(395,445,l),
(378,460,l),
(40,123,l),
(57,108,l)
);
}
);
width = 444;
}
);
unicode = 215;
},
{
glyphname = Oslash;
layers = (
{
layerId = "32C70213-2585-4D1B-95B0-B141A53AEEAA";
shapes = (
{
closed = 1;
nodes = (
(745,694,l),
(677,741,l),
(88,20,l),
(151,-33,l)
);
},
{
closed = 1;
nodes = (
(528,-10,o),
(621,28,o),
(688,93,cs),
(755,158,o),
(794,250,o),
(794,355,cs),
(794,462,o),
(755,552,o),
(688,617,cs),
(621,682,o),
(528,720,o),
(417,720,cs),
(308,720,o),
(213,682,o),
(146,617,cs),
(79,552,o),
(40,462,o),
(40,355,cs),
(40,250,o),
(79,158,o),
(146,93,cs),
(213,28,o),
(308,-10,o),
(417,-10,cs)
);
},
{
closed = 1;
nodes = (
(372,190,o),
(332,208,o),
(304,237,cs),
(276,265,o),
(260,307,o),
(260,355,cs),
(260,403,o),
(276,445,o),
(304,474,cs),
(332,502,o),
(372,520,o),
(417,520,cs),
(462,520,o),
(502,502,o),
(530,474,cs),
(558,445,o),
(574,403,o),
(574,355,cs),
(574,307,o),
(558,265,o),
(530,237,cs),
(502,208,o),
(462,190,o),
(417,190,cs)
);
}
);
width = 834;
},
{
layerId = "CCC3D61B-F98C-4821-B26B-81827A7D0F36";
shapes = (
{
closed = 1;
nodes = (
(717,694,l),
(649,741,l),
(60,20,l),
(123,-33,l)
);
},
{
closed = 1;
nodes = (
(489,-10,o),
(575,29,o),
(636,93,cs),
(696,157,o),
(733,247,o),
(733,350,cs),
(733,453,o),
(696,543,o),
(636,607,cs),
(575,671,o),
(489,710,o),
(390,710,cs),
(291,710,o),
(205,672,o),
(145,608,cs),
(84,544,o),
(47,454,o),
(47,350,cs),
(47,246,o),
(84,156,o),
(145,92,cs),
(205,28,o),
(291,-10,o),
(390,-10,cs)
);
},
{
closed = 1;
nodes = (
(322,95,o),
(263,122,o),
(223,167,cs),
(182,212,o),
(157,277,o),
(157,350,cs),
(157,425,o),
(182,488,o),
(223,533,cs),
(263,578,o),
(322,605,o),
(390,605,cs),
(458,605,o),
(516,578,o),
(557,533,cs),
(598,488,o),
(623,423,o),
(623,350,cs),
(623,277,o),
(598,212,o),
(557,167,cs),
(516,122,o),
(458,95,o),
(390,95,cs)
);
}
);
width = 770;
},
{
layerId = "A90C822B-E05B-4C1D-A0F8-AEE47565E770";
shapes = (
{
closed = 1;
nodes = (
(703,704,l),
(684,718,l),
(95,-4,l),
(114,-18,l)
);
},
{
closed = 1;
nodes = (
(498,-10,o),
(585,27,o),
(646,91,cs),
(706,154,o),
(742,243,o),
(742,350,cs),
(742,455,o),
(706,545,o),
(646,609,cs),
(585,673,o),
(498,710,o),
(398,710,cs),
(298,710,o),
(211,673,o),
(151,609,cs),
(90,545,o),
(54,454,o),
(54,349,cs),
(54,244,o),
(90,154,o),
(151,91,cs),
(211,27,o),
(298,-10,o),
(398,-10,cs)
);
},
{
closed = 1;
nodes = (
(306,12,o),
(225,47,o),
(168,107,cs),
(111,167,o),
(77,252,o),
(77,349,cs),
(77,448,o),
(111,532,o),
(168,592,cs),
(225,652,o),
(306,688,o),
(398,688,cs),
(491,688,o),
(572,652,o),
(629,592,cs),
(685,532,o),
(719,447,o),
(719,350,cs),
(719,251,o),
(685,167,o),
(629,107,cs),
(572,47,o),
(491,12,o),
(398,12,cs)
);
}
);
width = 798;
}
);
leftKerningGroup = C;
rightKerningGroup = D;
unicode = 216;
},
{
glyphname = Thorn;
layers = (
{
layerId = "32C70213-2585-4D1B-95B0-B141A53AEEAA";
shapes = (
{
closed = 1;
nodes = (
(296,0,l),
(296,108,l),
(395,108,ls),
(467,108,o),
(529,134,o),
(573,179,cs),
(617,223,o),
(643,287,o),
(643,360,cs),
(643,431,o),
(617,491,o),
(573,533,cs),
(529,575,o),
(467,600,o),
(395,600,cs),
(296,600,l),
(296,700,l),
(80,700,l),
(80,0,l)
);
},
{
closed = 1;
nodes = (
(296,416,l),
(355,416,ls),
(375,416,o),
(391,412,o),
(403,402,cs),
(414,392,o),
(421,376,o),
(421,356,cs),
(421,336,o),
(414,320,o),
(403,309,cs),
(391,297,o),
(375,292,o),
(355,292,cs),
(296,292,l)
);
}
);
width = 683;
},
{
layerId = "CCC3D61B-F98C-4821-B26B-81827A7D0F36";
shapes = (
{
closed = 1;
nodes = (
(206,0,l),
(206,141,l),
(383,141,ls),
(439,141,o),
(491,165,o),
(528,205,cs),
(565,244,o),
(589,298,o),
(589,358,cs),
(589,418,o),
(565,471,o),
(528,511,cs),
(491,550,o),
(439,573,o),
(383,573,cs),
(206,573,l),
(206,700,l),
(98,700,l),
(98,0,l)
);
},
{
closed = 1;
nodes = (
(206,469,l),
(381,469,ls),
(408,469,o),
(432,456,o),
(450,436,cs),
(468,416,o),
(479,389,o),
(479,358,cs),
(479,327,o),
(468,299,o),
(450,279,cs),
(432,258,o),
(408,245,o),
(381,245,cs),
(206,245,l)
);
}
);
width = 634;
},
{
layerId = "A90C822B-E05B-4C1D-A0F8-AEE47565E770";
shapes = (
{
closed = 1;
nodes = (
(132,0,l),
(132,171,l),
(328,171,ls),
(381,171,o),
(427,192,o),
(460,226,cs),
(492,260,o),
(511,306,o),
(511,358,cs),
(511,414,o),
(492,460,o),
(460,493,cs),
(428,525,o),
(382,543,o),
(329,543,cs),
(132,543,l),
(132,700,l),
(110,700,l),
(110,0,l)
);
},
{
closed = 1;
nodes = (
(132,521,l),
(327,521,ls),
(380,521,o),
(421,504,o),
(448,476,cs),
(475,447,o),
(489,406,o),
(489,358,cs),
(489,315,o),
(474,275,o),
(447,244,cs),
(419,213,o),
(379,193,o),
(327,193,cs),
(132,193,l)
);
}
);
width = 566;
}
);
leftKerningGroup = B;
rightKerningGroup = P;
unicode = 222;
},
{
glyphname = germandbls;
layers = (
{
layerId = "32C70213-2585-4D1B-95B0-B141A53AEEAA";
shapes = (
{
closed = 1;
nodes = (
(497,-10,o),
(554,14,o),
(595,52,cs),
(636,90,o),
(660,143,o),
(660,203,cs),
(660,263,o),
(641,311,o),
(606,349,cs),
(571,387,o),
(524,415,o),
(465,432,c),
(467,373,l),
(504,389,o),
(534,418,o),
(554,451,cs),
(574,484,o),
(585,523,o),
(585,559,cs),
(585,616,o),
(558,661,o),
(515,690,cs),
(471,719,o),
(411,734,o),
(346,734,cs),
(262,734,o),
(197,710,o),
(153,669,cs),
(109,628,o),
(86,570,o),
(86,499,cs),
(86,0,l),
(289,0,l),
(289,495,ls),
(289,528,o),
(302,549,o),
(338,549,cs),
(355,549,o),
(370,544,o),
(380,536,cs),
(390,527,o),
(395,514,o),
(395,495,cs),
(395,459,o),
(383,441,o),
(342,422,c),
(342,322,l),
(366,309,o),
(396,294,o),
(421,277,cs),
(445,260,o),
(463,238,o),
(463,211,cs),
(463,195,o),
(459,185,o),
(452,178,cs),
(444,170,o),
(433,167,o),
(420,167,cs),
(407,167,o),
(397,169,o),
(381,180,c),
(310,29,l),
(341,4,o),
(381,-10,o),
(430,-10,cs)
);
},
{
closed = 1;
nodes = (
(176,335,l),
(176,505,l),
(13,505,l),
(13,335,l)
);
}
);
width = 670;
},
{
layerId = "CCC3D61B-F98C-4821-B26B-81827A7D0F36";
shapes = (
{
closed = 1;
nodes = (
(481,-10,o),
(530,14,o),
(566,52,cs),
(601,90,o),
(622,143,o),
(622,203,cs),
(622,260,o),
(605,313,o),
(574,354,cs),
(542,395,o),
(499,427,o),
(447,443,c),
(449,439,l),
(481,454,o),
(507,473,o),
(525,497,cs),
(543,520,o),
(553,546,o),
(553,574,cs),
(553,622,o),
(534,662,o),
(499,690,cs),
(464,718,o),
(414,734,o),
(354,734,cs),
(286,734,o),
(229,710,o),
(190,669,cs),
(151,628,o),
(129,570,o),
(129,499,cs),
(129,0,l),
(226,0,l),
(226,502,ls),
(226,587,o),
(274,644,o),
(350,644,cs),
(383,644,o),
(411,636,o),
(429,623,cs),
(447,610,o),
(457,589,o),
(457,565,cs),
(457,521,o),
(420,483,o),
(344,450,c),
(344,385,l),
(407,369,o),
(452,346,o),
(482,314,cs),
(512,282,o),
(525,241,o),
(525,189,cs),
(525,153,o),
(516,123,o),
(498,102,cs),
(480,81,o),
(455,68,o),
(424,68,cs),
(392,68,o),
(363,80,o),
(327,112,c),
(275,57,l),
(311,12,o),
(358,-10,o),
(422,-10,cs)
);
},
{
closed = 1;
nodes = (
(180,404,l),
(180,497,l),
(45,497,l),
(45,404,l)
);
}
);
width = 664;
},
{
layerId = "A90C822B-E05B-4C1D-A0F8-AEE47565E770";
shapes = (
{
closed = 1;
nodes = (
(419,-10,o),
(469,7,o),
(502,40,cs),
(535,73,o),
(552,122,o),
(552,186,cs),
(552,234,o),
(538,281,o),
(500,323,cs),
(462,365,o),
(400,403,o),
(308,432,c),
(308,420,l),
(355,420,o),
(397,436,o),
(429,464,cs),
(460,492,o),
(479,532,o),
(479,577,cs),
(479,620,o),
(463,657,o),
(434,684,cs),
(405,711,o),
(362,728,o),
(306,728,cs),
(247,728,o),
(200,709,o),
(167,670,cs),
(134,630,o),
(116,573,o),
(116,494,cs),
(116,0,l),
(138,0,l),
(138,493,ls),
(138,638,o),
(199,706,o),
(311,706,cs),
(355,706,o),
(392,692,o),
(417,669,c),
(441,645,o),
(456,613,o),
(456,577,cs),
(456,500,o),
(396,442,o),
(300,437,c),
(300,414,l),
(375,393,o),
(431,361,o),
(470,323,cs),
(509,285,o),
(529,239,o),
(529,188,cs),
(529,124,o),
(512,80,o),
(482,52,cs),
(452,24,o),
(407,12,o),
(354,12,cs),
(290,12,o),
(243,32,o),
(204,100,c),
(184,88,l),
(221,23,o),
(273,-9,o),
(354,-10,cs)
);
},
{
closed = 1;
nodes = (
(128,416,l),
(128,438,l),
(30,438,l),
(30,416,l)
);
}
);
width = 606;
}
);
leftKerningGroup = f2;
rightKerningGroup = b;
unicode = 223;
},
{
glyphname = ae;
layers = (
{
layerId = "32C70213-2585-4D1B-95B0-B141A53AEEAA";
shapes = (
{
closed = 1;
nodes = (
(256,-10,o),
(299,-1,o),
(337,15,cs),
(375,31,o),
(406,55,o),
(426,87,c),
(367,180,l),
(348,145,o),
(316,128,o),
(277,128,cs),
(264,128,o),
(252,132,o),
(244,140,cs),
(236,147,o),
(232,157,o),
(232,169,cs),
(232,198,o),
(252,217,o),
(288,217,cs),
(876,217,l),
(877,268,ls),
(878,348,o),
(853,418,o),
(809,467,cs),
(764,516,o),
(698,546,o),
(621,546,cs),
(542,546,o),
(475,516,o),
(427,467,cs),
(379,418,o),
(350,348,o),
(350,268,cs),
(350,188,o),
(378,118,o),
(430,69,cs),
(481,20,o),
(556,-10,o),
(649,-10,cs),
(685,-10,o),
(719,-6,o),
(755,6,cs),
(790,18,o),
(825,37,o),
(862,65,c),
(779,196,l),
(744,172,o),
(716,164,o),
(672,164,cs),
(624,164,o),
(587,176,o),
(563,197,cs),
(538,218,o),
(525,248,o),
(525,284,cs),
(525,315,o),
(534,340,o),
(551,357,cs),
(567,373,o),
(593,383,o),
(625,383,cs),
(648,383,o),
(665,377,o),
(677,366,cs),
(689,354,o),
(696,339,o),
(696,319,cs),
(696,301,l),
(701,309,l),
(271,309,ls),
(111,309,o),
(30,254,o),
(30,149,cs),
(30,101,o),
(50,61,o),
(83,34,c),
(115,6,o),
(161,-10,o),
(213,-10,cs)
);
},
{
closed = 1;
nodes = (
(521,242,l),
(521,352,ls),
(521,488,o),
(438,546,o),
(307,546,cs),
(191,546,o),
(98,500,o),
(53,440,c),
(168,327,l),
(195,368,o),
(221,382,o),
(269,382,cs),
(297,382,o),
(316,379,o),
(328,369,cs),
(340,359,o),
(345,342,o),
(345,315,cs),
(345,242,l)
);
}
);
width = 901;
},
{
layerId = "CCC3D61B-F98C-4821-B26B-81827A7D0F36";
shapes = (
{
closed = 1;
nodes = (
(259,-10,o),
(301,2,o),
(338,23,cs),
(374,43,o),
(406,72,o),
(430,107,c),
(386,174,l),
(358,118,o),
(292,78,o),
(220,78,cs),
(196,78,o),
(174,85,o),
(159,98,cs),
(144,111,o),
(135,130,o),
(135,151,cs),
(135,207,o),
(180,237,o),
(261,237,cs),
(858,237,l),
(859,281,l),
(859,354,o),
(834,418,o),
(791,463,cs),
(748,508,o),
(689,536,o),
(621,536,cs),
(552,536,o),
(489,507,o),
(445,458,cs),
(400,409,o),
(373,338,o),
(373,257,cs),
(373,177,o),
(400,111,o),
(448,64,cs),
(496,17,o),
(564,-10,o),
(644,-10,cs),
(680,-10,o),
(720,-3,o),
(756,12,cs),
(792,26,o),
(825,45,o),
(849,69,c),
(799,144,l),
(747,99,o),
(706,84,o),
(654,84,cs),
(601,84,o),
(553,103,o),
(520,135,cs),
(487,167,o),
(466,212,o),
(466,264,cs),
(466,323,o),
(479,367,o),
(506,396,cs),
(533,425,o),
(572,441,o),
(621,441,cs),
(656,441,o),
(686,428,o),
(710,408,cs),
(734,387,o),
(750,358,o),
(754,326,c),
(754,302,l),
(769,319,l),
(274,319,l),
(118,320,o),
(38,262,o),
(38,149,cs),
(38,101,o),
(57,61,o),
(89,34,cs),
(121,6,o),
(165,-10,o),
(216,-10,cs)
);
},
{
closed = 1;
nodes = (
(466,263,l),
(466,388,ls),
(466,483,o),
(388,536,o),
(264,536,cs),
(180,536,o),
(108,500,o),
(51,435,c),
(118,368,l),
(157,417,o),
(202,441,o),
(262,441,cs),
(291,441,o),
(319,432,o),
(340,417,cs),
(360,402,o),
(373,380,o),
(373,356,cs),
(373,257,l)
);
}
);
width = 898;
},
{
layerId = "A90C822B-E05B-4C1D-A0F8-AEE47565E770";
shapes = (
{
closed = 1;
nodes = (
(274,-10,o),
(325,6,o),
(369,34,cs),
(413,61,o),
(448,99,o),
(472,146,c),
(459,165,l),
(414,73,o),
(323,12,o),
(219,12,cs),
(176,12,o),
(137,26,o),
(109,50,cs),
(80,74,o),
(62,109,o),
(62,149,cs),
(62,225,o),
(127,265,o),
(240,265,cs),
(910,265,l),
(912,291,l),
(912,364,o),
(889,424,o),
(849,465,cs),
(809,506,o),
(754,529,o),
(687,529,cs),
(615,529,o),
(554,499,o),
(511,451,cs),
(467,403,o),
(442,336,o),
(442,263,cs),
(442,183,o),
(469,115,o),
(514,67,cs),
(558,19,o),
(623,-10,o),
(699,-10,cs),
(738,-10,o),
(771,-2,o),
(803,11,cs),
(834,23,o),
(862,42,o),
(886,65,c),
(874,83,l),
(827,39,o),
(768,12,o),
(699,12,cs),
(631,12,o),
(573,38,o),
(531,83,cs),
(489,127,o),
(464,190,o),
(464,263,cs),
(464,335,o),
(487,395,o),
(527,439,cs),
(566,482,o),
(622,507,o),
(690,507,cs),
(746,507,o),
(796,485,o),
(832,449,cs),
(868,412,o),
(890,359,o),
(890,295,cs),
(890,272,l),
(900,287,l),
(246,287,ls),
(109,287,o),
(40,237,o),
(40,149,cs),
(40,101,o),
(59,61,o),
(91,34,cs),
(123,6,o),
(167,-10,o),
(218,-10,cs)
);
},
{
closed = 1;
nodes = (
(464,276,l),
(464,364,ls),
(464,469,o),
(392,530,o),
(272,530,cs),
(188,530,o),
(119,496,o),
(63,428,c),
(79,412,l),
(127,473,o),
(195,508,o),
(271,508,cs),
(326,508,o),
(369,494,o),
(398,470,c),
(426,445,o),
(442,410,o),
(442,367,cs),
(442,276,l)
);
}
);
width = 946;
}
);
unicode = 230;
},
